<?xml version="1.0" standalone="no"?>
<!DOCTYPE svg PUBLIC "-//W3C//DTD SVG 20010904//EN"
 "http://www.w3.org/TR/2001/REC-SVG-20010904/DTD/svg10.dtd">
<svg version="1.0" xmlns="http://www.w3.org/2000/svg"
 width="700.000000pt" height="700.000000pt" viewBox="0 0 700.000000 700.000000"
 preserveAspectRatio="xMidYMid meet">
<metadata>
Created by potrace 1.14, written by Peter Selinger 2001-2017
</metadata>
<g transform="translate(0.000000,700.000000) scale(0.100000,-0.100000)"
fill="#000000" stroke="none">
<path d="M2150 4652 l0 -1379 233 -6 c127 -4 455 -7 727 -7 272 0 506 -3 519
-7 l24 -6 -7 -116 c-36 -594 -279 -993 -746 -1226 -172 -86 -432 -157 -662
-180 l-68 -7 0 -490 0 -490 88 7 c395 31 830 120 1127 232 836 315 1266 883
1434 1894 66 395 64 352 68 1822 l4 1337 -1371 0 -1370 0 0 -1378z"/>
</g>
</svg>
