<svg width="134" height="25" fill="none" xmlns="http://www.w3.org/2000/svg"><g clip-path="url(#clip0_522_18483)" fill="#0E1534"><path d="M12.18 24.75c6.729 0 12.183-5.372 12.183-12v-8.4c0-.955-.385-1.87-1.07-2.546A3.683 3.683 0 0020.707.75H12.79v5.264c0 1.202.074 2.446.714 3.468a6.041 6.041 0 001.796 1.84 6.144 6.144 0 002.409.937l.233.037a.487.487 0 01.33.454.475.475 0 01-.33.454l-.233.037a6.123 6.123 0 00-3.325 1.68 5.97 5.97 0 00-1.704 3.275l-.038.23a.48.48 0 01-.461.324.492.492 0 01-.461-.325l-.038-.23a5.95 5.95 0 00-.952-2.373 6.052 6.052 0 00-1.866-1.769c-1.038-.63-2.301-.703-3.52-.703H.013c.318 6.349 5.644 11.4 12.167 11.4z"/><path d="M0 12.15h5.344c1.22 0 2.483-.073 3.52-.703a6.057 6.057 0 001.995-1.965c.64-1.022.714-2.266.714-3.468V.75H3.655c-.97 0-1.9.38-2.585 1.054A3.573 3.573 0 000 4.35v7.8zm28.295-10.2c0 .318-.128.623-.357.849a1.228 1.228 0 01-1.722 0 1.19 1.19 0 010-1.698 1.227 1.227 0 011.723 0c.228.226.356.53.356.849zm100.656 6.062c3.406 0 5.049 2.343 5.049 5.057v5.097h-3.564v-4.492c0-1.23-.455-2.245-1.762-2.245-1.306 0-1.742 1.015-1.742 2.245v4.492h-3.564v-4.492c0-1.23-.435-2.245-1.742-2.245s-1.762 1.015-1.762 2.245v4.492H116.3v-5.097c0-2.714 1.643-5.057 5.049-5.057 1.861 0 3.207.722 3.821 1.913.653-1.19 2.079-1.914 3.781-1.914v.001zm-19.055 7.03c1.149 0 1.644-1.035 1.644-2.266V8.402h3.563v4.804c0 2.87-1.702 5.253-5.207 5.253-3.504 0-5.207-2.382-5.207-5.253V8.402h3.564v4.374c0 1.23.495 2.266 1.643 2.266zm-10.447 3.436c-2.237 0-3.682-.761-4.534-2.245l2.574-1.426c.357.625.89.938 1.782.938.733 0 1.069-.254 1.069-.567 0-1.19-5.227.02-5.227-3.768 0-1.836 1.584-3.32 4.277-3.32 2.356 0 3.643 1.133 4.217 2.226l-2.574 1.445c-.217-.585-.891-.937-1.564-.937-.515 0-.792.215-.792.508 0 1.21 5.227.097 5.227 3.768 0 2.05-2.04 3.378-4.455 3.378zM87 22.658h-3.564v-9.393c0-2.988 2.276-5.155 5.444-5.155 3.089 0 5.445 2.323 5.445 5.155 0 3.124-2.1 5.194-5.247 5.194a4.445 4.445 0 01-2.079-.547v4.745zm1.88-7.499c1.129 0 1.881-.86 1.881-1.875 0-1.034-.752-1.874-1.88-1.874-1.13 0-1.882.84-1.882 1.875 0 1.015.752 1.874 1.881 1.874zm-9.014-7.791c-1.169 0-2.138-.957-2.138-2.109 0-1.152.97-2.109 2.138-2.109s2.138.957 2.138 2.109c0 1.152-.97 2.109-2.138 2.109zm-1.782 1.034h3.564v9.764h-3.564V8.402zM71.245 18.46c-3.088 0-5.444-2.343-5.444-5.194 0-2.832 2.356-5.175 5.444-5.175 3.09 0 5.445 2.343 5.445 5.175 0 2.851-2.356 5.194-5.445 5.194zm0-3.3c1.129 0 1.881-.86 1.881-1.875 0-1.034-.752-1.894-1.88-1.894-1.13 0-1.881.86-1.881 1.894 0 1.016.752 1.875 1.88 1.875zm-12.174 7.79c-2.454 0-4.236-1.074-5.147-2.988l2.95-1.562c.317.664.91 1.348 2.138 1.348 1.287 0 2.138-.801 2.238-2.207-.475.41-1.228.722-2.356.722-2.753 0-4.97-2.089-4.97-5.018 0-2.83 2.356-5.135 5.445-5.135 3.168 0 5.444 2.167 5.444 5.155v3.866c0 3.515-2.475 5.819-5.742 5.819zm.238-7.986c1.069 0 1.88-.723 1.88-1.797 0-1.054-.81-1.757-1.88-1.757-1.05 0-1.88.703-1.88 1.758 0 1.074.83 1.795 1.88 1.795v.001zm-11.43 3.495c-3.089 0-5.445-2.343-5.445-5.194 0-2.832 2.356-5.175 5.445-5.175 3.088 0 5.445 2.343 5.445 5.175 0 2.851-2.356 5.194-5.445 5.194zm0-3.3c1.129 0 1.88-.86 1.88-1.875 0-1.034-.752-1.894-1.88-1.894-1.129 0-1.881.86-1.881 1.894 0 1.016.752 1.875 1.88 1.875zM35.944 4.986v9.86h5.9v3.32H35.45c-2.257 0-3.167-1.172-3.167-3.027V4.986h3.662z"/></g><defs><clipPath id="clip0_522_18483"><path fill="#fff" transform="translate(0 .75)" d="M0 0h134v24H0z"/></clipPath></defs></svg>