<svg width="142" height="35" fill="none" xmlns="http://www.w3.org/2000/svg"><g clip-path="url(#clip0_522_18507)" fill="#1A1414"><path d="M42.734 24.461h10.043v-3h-6.473v-11.3h-3.57v14.3zm15.992-2c-1.432 0-2.178-1.24-2.178-3.1s.746-3.12 2.178-3.12 2.198 1.26 2.198 3.12-.766 3.1-2.198 3.1zm.02 2.32c3.327 0 5.505-2.34 5.505-5.42s-2.178-5.42-5.505-5.42c-3.307 0-5.525 2.34-5.525 5.42s2.218 5.42 5.525 5.42zm11.265 3.22c1.533 0 2.884-.34 3.791-1.14.827-.74 1.372-1.86 1.372-3.4v-9.24h-3.146v1.1h-.04c-.605-.86-1.533-1.4-2.904-1.4-2.561 0-4.336 2.12-4.336 5.12 0 3.14 2.158 4.86 4.477 4.86 1.25 0 2.037-.5 2.642-1.18h.08v1.02c0 1.24-.585 1.96-1.976 1.96-1.089 0-1.633-.46-1.815-1H64.97c.323 2.14 2.198 3.3 5.041 3.3zm-.02-6.52c-1.23 0-2.037-1-2.037-2.54 0-1.56.807-2.56 2.037-2.56 1.371 0 2.097 1.16 2.097 2.54 0 1.44-.665 2.56-2.097 2.56zm11.651.98c-1.432 0-2.178-1.24-2.178-3.1s.746-3.12 2.178-3.12 2.198 1.26 2.198 3.12-.766 3.1-2.198 3.1zm.02 2.32c3.328 0 5.505-2.34 5.505-5.42s-2.177-5.42-5.505-5.42c-3.307 0-5.525 2.34-5.525 5.42s2.218 5.42 5.525 5.42zm6.465-.32h3.287v-10.24h-3.287v10.24zm0-11.66h3.287v-2.64h-3.287v2.64zm4.715 15.04h3.287v-4.44h.04c.645.86 1.593 1.38 2.924 1.38 2.702 0 4.497-2.12 4.497-5.44 0-3.08-1.674-5.42-4.416-5.42-1.412 0-2.42.62-3.126 1.54h-.06v-1.24h-3.146v13.62zm5.404-5.58c-1.411 0-2.218-1.14-2.218-2.8s.726-2.92 2.158-2.92c1.411 0 2.077 1.16 2.077 2.92 0 1.74-.767 2.8-2.017 2.8zm10.695 2.52c2.702 0 4.699-1.16 4.699-3.4 0-2.62-2.138-3.08-3.953-3.38-1.31-.24-2.48-.34-2.48-1.06 0-.64.625-.94 1.432-.94.907 0 1.532.28 1.653 1.2h3.025c-.161-2.02-1.734-3.28-4.658-3.28-2.44 0-4.457 1.12-4.457 3.28 0 2.4 1.916 2.88 3.711 3.18 1.371.24 2.621.34 2.621 1.26 0 .66-.625 1.02-1.613 1.02-1.089 0-1.775-.5-1.896-1.52h-3.105c.101 2.26 1.996 3.64 5.021 3.64zm9.164-.021c1.431 0 2.339-.56 3.085-1.56h.06v1.26h3.146V14.22h-3.287v5.72c0 1.22-.685 2.06-1.815 2.06-1.048 0-1.552-.62-1.552-1.74v-6.04h-3.267v6.72c0 2.28 1.25 3.82 3.63 3.82zm7.721-.299h3.287v-5.74c0-1.22.605-2.08 1.634-2.08.988 0 1.452.64 1.452 1.74v6.08h3.287v-5.74c0-1.22.584-2.08 1.633-2.08.988 0 1.452.64 1.452 1.74v6.08h3.287v-6.66c0-2.3-1.17-3.88-3.509-3.88-1.331 0-2.44.56-3.247 1.8h-.04c-.524-1.1-1.553-1.8-2.904-1.8-1.492 0-2.48.7-3.125 1.76h-.061v-1.46h-3.146v10.24z"/><path fill-rule="evenodd" clip-rule="evenodd" d="M17.38.802c9.462 0 17.133 7.608 17.133 16.992 0 9.385-7.67 16.993-17.133 16.993S.246 27.18.246 17.794C.246 8.41 7.917.802 17.38.802zm16.476 16.992c0-9.024-7.377-16.34-16.476-16.34-.734 0-1.457.047-2.166.14.458-.04.921-.06 1.39-.06 8.695 0 15.743 6.99 15.743 15.614 0 8.623-7.048 15.614-15.743 15.614-8.232 0-14.988-6.266-15.685-14.25.379 8.691 7.603 15.623 16.46 15.623 9.1 0 16.476-7.316 16.476-16.34zm-2.166-.646c0-8.263-6.755-14.962-15.086-14.962-.677 0-1.343.044-1.996.13.402-.034.809-.051 1.22-.051 7.927 0 14.353 6.374 14.353 14.236 0 7.862-6.426 14.235-14.353 14.235-7.496 0-13.65-5.698-14.297-12.965.33 7.974 6.951 14.339 15.073 14.339 8.331 0 15.086-6.699 15.086-14.962zM15.828 2.918c7.564 0 13.696 6.08 13.696 13.583 0 7.502-6.132 13.583-13.696 13.583-7.39 0-13.411-5.803-13.686-13.064.593 6.554 6.147 11.69 12.91 11.69 7.159 0 12.963-5.756 12.963-12.856S22.21 2.998 15.052 2.998c-.37 0-.737.015-1.1.045a13.93 13.93 0 011.876-.126zm11.529 12.936c0-6.74-5.51-12.204-12.305-12.204-.574 0-1.14.04-1.693.115.302-.024.608-.036.916-.036 6.391 0 11.573 5.139 11.573 11.478 0 6.339-5.182 11.477-11.573 11.477-6.016 0-10.96-4.552-11.52-10.373.242 6.529 5.655 11.747 12.297 11.747 6.796 0 12.305-5.464 12.305-12.204zM14.275 4.381c6.028 0 10.915 4.847 10.915 10.826s-4.887 10.825-10.915 10.825c-5.91 0-10.722-4.657-10.91-10.473.506 5.108 4.85 9.1 10.134 9.1 5.624 0 10.183-4.522 10.183-10.1 0-5.577-4.56-10.099-10.183-10.099-.258 0-.514.01-.767.029a11.1 11.1 0 011.543-.108zm8.75 10.178c0-5.217-4.265-9.446-9.526-9.446-.48 0-.952.035-1.413.103.21-.015.423-.023.637-.023 4.856 0 8.792 3.904 8.792 8.72 0 4.816-3.936 8.72-8.792 8.72-4.55 0-8.293-3.428-8.746-7.822.134 5.101 4.346 9.195 9.522 9.195 5.26 0 9.525-4.23 9.525-9.447zM12.722 5.847c4.493 0 8.134 3.611 8.134 8.067 0 4.456-3.641 8.068-8.134 8.068-4.435 0-8.042-3.521-8.133-7.898.41 3.67 3.548 6.524 7.357 6.524 4.088 0 7.402-3.287 7.402-7.341 0-4.055-3.314-7.341-7.402-7.341-.156 0-.311.004-.465.014a8.183 8.183 0 011.241-.093zm5.969 7.42c0-3.694-3.02-6.69-6.745-6.69-.374 0-.74.031-1.098.089.106-.006.213-.008.321-.008 3.32 0 6.012 2.67 6.012 5.962 0 3.293-2.691 5.963-6.012 5.963-3.07 0-5.603-2.283-5.967-5.23.047 3.655 3.048 6.603 6.744 6.603 3.725 0 6.745-2.995 6.745-6.69zM11.17 7.309c2.957 0 5.355 2.377 5.355 5.31s-2.398 5.31-5.355 5.31c-2.957 0-5.354-2.377-5.354-5.31v-.02c.308 2.234 2.24 3.956 4.578 3.956 2.553 0 4.622-2.052 4.622-4.583s-2.07-4.583-4.622-4.583a4.75 4.75 0 00-.172.003 5.43 5.43 0 01.948-.083zm3.188 4.663c0-2.171-1.775-3.931-3.964-3.931S6.431 9.8 6.431 11.972c0 2.171 1.774 3.931 3.963 3.931 2.19 0 3.964-1.76 3.964-3.931z"/></g><defs><clipPath id="clip0_522_18507"><path fill="#fff" d="M0 0h142v35H0z"/></clipPath></defs></svg>