<svg width="50" height="51" fill="none" xmlns="http://www.w3.org/2000/svg"><g clip-path="url(#clip0_522_18461)"><path d="M50 25.5c0 13.807-11.193 25-25 25S0 39.307 0 25.5 11.193.5 25 .5s25 11.193 25 25z" fill="#1D2633"/><path d="M43.57 31.883c.845 0 1.445.82 1.128 1.603C41.54 41.265 33.91 46.75 24.999 46.75c-8.911 0-16.541-5.485-19.698-13.264-.317-.782.283-1.603 1.127-1.603H43.57zm1.128-14.369c.317.782-.283 1.603-1.128 1.603H6.428c-.844 0-1.444-.82-1.127-1.603C8.458 9.735 16.088 4.25 25 4.25s16.542 5.485 19.699 13.264zm-1.05 6.205c1.404 0 2.082.98 2.082 2.114v2.132h-1.47v-1.878c0-.515-.188-.94-.727-.94-.539 0-.718.425-.718.94v1.878h-1.47v-1.878c0-.515-.18-.94-.719-.94-.539 0-.726.425-.726.94v1.878h-1.47v-2.131c0-1.136.677-2.115 2.082-2.115.767 0 1.323.302 1.576.8.27-.498.857-.8 1.56-.8zm-7.858 2.939c.474 0 .678-.433.678-.947v-1.829h1.47v2.009c0 1.2-.703 2.196-2.148 2.196-1.445 0-2.147-.996-2.147-2.196v-2.009h1.47v1.83c0 .514.203.946.677.946zm-4.309 1.437c-.923 0-1.519-.318-1.87-.939l1.062-.596c.147.262.367.392.735.392.302 0 .44-.106.44-.237 0-.498-2.155.009-2.155-1.575 0-.768.653-1.389 1.764-1.389.971 0 1.502.474 1.739.931l-1.061.605c-.09-.245-.368-.392-.646-.392-.212 0-.326.09-.326.212 0 .506 2.155.04 2.155 1.576 0 .857-.84 1.412-1.837 1.412zm-5.136 1.748h-1.47v-3.928c0-1.249.94-2.155 2.246-2.155 1.273 0 2.245.971 2.245 2.155 0 1.307-.865 2.172-2.164 2.172-.302 0-.604-.09-.857-.228v1.984zm.776-3.136c.465 0 .775-.359.775-.784 0-.432-.31-.783-.775-.783-.466 0-.776.35-.776.784 0 .424.31.783.776.783zm-3.718-3.257a.889.889 0 01-.881-.883c0-.482.4-.882.881-.882.482 0 .882.4.882.882s-.4.882-.882.882zm-.734.432h1.47v4.083h-1.47v-4.083zm-2.819 4.205c-1.275 0-2.247-.98-2.247-2.172 0-1.184.972-2.164 2.246-2.164s2.246.98 2.246 2.164c0 1.192-.972 2.172-2.246 2.172zm0-1.38c.464 0 .775-.359.775-.784 0-.432-.31-.792-.776-.792-.465 0-.776.36-.776.792 0 .425.31.784.776.784zm-5.022 3.258c-1.012 0-1.747-.449-2.123-1.249l1.217-.653c.13.277.375.563.882.563.53 0 .881-.335.922-.923-.196.172-.506.303-.971.303-1.135 0-2.05-.874-2.05-2.099 0-1.184.972-2.148 2.246-2.148 1.306 0 2.245.907 2.245 2.156v1.617c0 1.47-1.02 2.433-2.368 2.433zm.098-3.34c.441 0 .776-.302.776-.75 0-.442-.335-.735-.776-.735-.433 0-.776.293-.776.735 0 .448.343.75.776.75zm-4.716 1.462c-1.273 0-2.245-.98-2.245-2.172 0-1.184.972-2.164 2.245-2.164 1.274 0 2.246.98 2.246 2.164 0 1.192-.972 2.172-2.246 2.172zm0-1.38c.466 0 .776-.359.776-.784 0-.432-.31-.792-.776-.792-.465 0-.775.36-.775.792 0 .425.31.784.775.784zm-4.922-4.254v4.124h2.433v1.388H5.084c-.931 0-1.307-.49-1.307-1.266v-4.246h1.511z" fill="#EDEBDE"/><path d="M21.25 4.58c1.217-.217 2.47-.33 3.75-.33 1.28 0 2.533.113 3.75.33v14.537h-7.5V4.58zm7.5 27.303h-7.5a27.572 27.572 0 01-1.756 9.549l-1.545 4.12A21.213 21.213 0 0025 46.75c2.471 0 4.845-.422 7.05-1.198l-1.544-4.12a27.572 27.572 0 01-1.756-9.549z" fill="#AC2828"/><path d="M28.75 4.58a21.119 21.119 0 017.5 2.889v11.648h-7.5V4.58zm3.3 40.972a21.276 21.276 0 008.787-5.883l-.37-.235a9.109 9.109 0 01-4.216-7.55H28.75c.016 3.26.61 6.493 1.755 9.548l1.546 4.12z" fill="#306A9F"/><path d="M13.75 7.469a21.117 21.117 0 017.5-2.89v14.538h-7.5V7.469zm-.002 24.414h7.5a27.575 27.575 0 01-1.74 9.51l-1.56 4.16a21.277 21.277 0 01-8.786-5.884l.369-.235a9.109 9.109 0 004.217-7.55z" fill="#DEB038"/></g><defs><clipPath id="clip0_522_18461"><path fill="#fff" transform="translate(0 .5)" d="M0 0h50v50H0z"/></clipPath></defs></svg>