<svg width="136" height="33" fill="none" xmlns="http://www.w3.org/2000/svg"><g clip-path="url(#clip0_522_18537)"><path d="M41.488 22.648h9.562V19.75h-6.164V8.836h-3.398v13.812zm15.226-1.932c-1.363 0-2.073-1.198-2.073-2.994 0-1.797.71-3.014 2.073-3.014 1.364 0 2.093 1.217 2.093 3.014 0 1.796-.73 2.994-2.093 2.994zm.02 2.24c3.167 0 5.241-2.26 5.241-5.234 0-2.975-2.074-5.235-5.242-5.235-3.148 0-5.26 2.26-5.26 5.235 0 2.975 2.112 5.235 5.26 5.235zm10.725 3.111c1.459 0 2.745-.329 3.61-1.101.786-.715 1.305-1.797 1.305-3.284v-8.925h-2.995v1.063h-.039c-.576-.83-1.46-1.353-2.765-1.353-2.438 0-4.128 2.048-4.128 4.946 0 3.032 2.055 4.694 4.263 4.694 1.19 0 1.939-.483 2.515-1.14h.077v.985c0 1.198-.557 1.893-1.882 1.893-1.037 0-1.555-.444-1.728-.966H62.66c.307 2.067 2.092 3.188 4.8 3.188zm-.02-6.298c-1.17 0-1.939-.965-1.939-2.453 0-1.507.768-2.472 1.94-2.472 1.305 0 1.996 1.12 1.996 2.453 0 1.39-.634 2.472-1.997 2.472zm11.094.947c-1.363 0-2.074-1.198-2.074-2.994 0-1.797.71-3.014 2.074-3.014 1.363 0 2.093 1.217 2.093 3.014 0 1.796-.73 2.994-2.093 2.994zm.02 2.24c3.167 0 5.24-2.26 5.24-5.234 0-2.975-2.073-5.235-5.24-5.235-3.15 0-5.262 2.26-5.262 5.235 0 2.975 2.112 5.235 5.261 5.235zm6.154-.308h3.13v-9.89h-3.13v9.89zm0-11.262h3.13v-2.55h-3.13v2.55zm4.488 14.526h3.13v-4.288h.038c.615.83 1.517 1.333 2.784 1.333 2.573 0 4.282-2.048 4.282-5.255 0-2.974-1.594-5.235-4.205-5.235-1.344 0-2.304.6-2.976 1.488h-.058v-1.198h-2.995v13.155zm5.146-5.39c-1.344 0-2.112-1.1-2.112-2.704 0-1.603.691-2.82 2.054-2.82 1.344 0 1.978 1.12 1.978 2.82 0 1.68-.73 2.705-1.92 2.705zm10.184 2.435c2.573 0 4.474-1.12 4.474-3.284 0-2.53-2.036-2.975-3.764-3.265-1.248-.232-2.361-.328-2.361-1.024 0-.618.595-.908 1.363-.908.864 0 1.459.27 1.574 1.16h2.88c-.153-1.951-1.651-3.168-4.435-3.168-2.323 0-4.243 1.081-4.243 3.168 0 2.318 1.824 2.781 3.533 3.07 1.305.233 2.496.33 2.496 1.218 0 .637-.595.985-1.536.985-1.037 0-1.69-.483-1.805-1.468h-2.957c.096 2.183 1.901 3.516 4.781 3.516zm8.724-.02c1.363 0 2.227-.54 2.937-1.506h.058v1.217h2.995v-9.89h-3.129v5.524c0 1.178-.653 1.99-1.728 1.99-.999 0-1.479-.6-1.479-1.68v-5.835h-3.11v6.49c0 2.203 1.19 3.69 3.456 3.69zm7.351-.289h3.129v-5.544c0-1.179.576-2.01 1.555-2.01.941 0 1.383.619 1.383 1.681v5.873h3.129v-5.544c0-1.179.557-2.01 1.556-2.01.94 0 1.382.619 1.382 1.681v5.873h3.13v-6.433c0-2.221-1.114-3.748-3.341-3.748-1.267 0-2.323.541-3.091 1.74h-.039c-.499-1.063-1.478-1.74-2.765-1.74-1.42 0-2.361.677-2.976 1.7h-.057v-1.41H120.6v9.89z" fill="#340E0E"/><path fill-rule="evenodd" clip-rule="evenodd" d="M16.547 32.306c8.836 0 16-7.207 16-16.097S25.383.11 16.547.11c-8.837 0-16 7.207-16 16.098 0 8.89 7.163 16.097 16 16.097zM21.538 7.61c.243-.868-.594-1.382-1.36-.833L9.502 14.43c-.83.594-.699 1.779.196 1.779h2.812v-.022h5.48l-4.465 1.585-1.969 7.035c-.242.869.595 1.382 1.36.834l10.677-7.653c.83-.595.7-1.78-.196-1.78h-4.263l2.405-8.598z" fill="#F15757"/></g><defs><clipPath id="clip0_522_18537"><path fill="#fff" d="M0 0h136v33H0z"/></clipPath></defs></svg>