<svg width="149" height="40" fill="none" xmlns="http://www.w3.org/2000/svg"><path d="M27.616 16.953c2.869 0 3.514 1.266 3.514 2.845 0 1.673-.78 2.872-3.502 2.872-2.704 0-3.485-1.13-3.485-2.872 0-1.715.851-2.845 3.473-2.845zm29.977 0c2.868 0 3.513 1.266 3.513 2.845 0 1.673-.781 2.872-3.502 2.872-2.703 0-3.485-1.13-3.485-2.872 0-1.715.852-2.845 3.474-2.845z" fill="#394149"/><path fill-rule="evenodd" clip-rule="evenodd" d="M2.219 36.25V3.33h144.958v32.92H2.219zm69.086-1.857h74.044V5.186H71.305v29.207zm-43.676-8.92c5.093 0 7.234-2.232 7.234-5.717 0-3.542-2.412-5.647-7.234-5.647-4.748 0-7.247 2.286-7.247 5.647 0 3.792 2.622 5.716 7.247 5.716zM9.924 14.36v10.945h10.278V22.39h-6.56v-8.03H9.925zm36.442 10.945l-.096-1.06a6.508 6.508 0 01-4.283 1.227c-2.291 0-4.2-.697-5.27-2.105a5.822 5.822 0 01-1.016-3.514 5.501 5.501 0 011.047-3.416c1.083-1.366 3.046-2.272 5.97-2.272 3.363 0 5.339 1.045 6.19 2.802.182.414.289.858.315 1.31h-3.557a1.487 1.487 0 00-.48-.697 3.738 3.738 0 00-2.403-.627 3.487 3.487 0 00-1.479.137 3.524 3.524 0 00-1.293.742 3.06 3.06 0 00-.562 2.05c-.05.695.134 1.388.52 1.965.379.358.828.629 1.318.795a3.55 3.55 0 001.524.167 3.926 3.926 0 002.827-.892 1.78 1.78 0 00.343-.743h-3.828v-2.352h7.164v6.483h-2.951zm11.24.167c5.092 0 7.234-2.231 7.234-5.716 0-3.542-2.415-5.647-7.233-5.647-4.748 0-7.247 2.286-7.247 5.647 0 3.792 2.621 5.716 7.247 5.716z" fill="#394149"/><path d="M77.568 25.263V14.318h2.651v10.945h-2.65zm16.264-4.573c-.672.892-1.828 1.3-3.458 1.31l-4.9-.014v3.277h-2.595V14.318h7.496c.6-.064 1.208 0 1.782.19.575.19 1.103.5 1.552.911.593.784.88 1.762.81 2.747a3.99 3.99 0 01-.687 2.524zm-2.127-3.569c-.275-.417-.866-.65-1.867-.65h-4.379v3.332h4.35c1.071 0 1.635-.223 1.896-.655.154-.305.22-.649.192-.99a2.148 2.148 0 00-.192-1.037zm10.461 8.309c-4.887 0-6.383-1.857-6.383-3.695h2.773c0 .907 1.221 1.59 3.733 1.59 2.497 0 3.156-.447 3.156-1.172 0-.808-.493-1.06-2.813-1.324a60.376 60.376 0 01-2.169-.265c-3.29-.377-4.557-1.366-4.557-3.137 0-1.868 1.853-3.276 5.875-3.276 4.365 0 6.039 1.743 6.039 3.555h-2.742c0-.92-1.029-1.45-3.459-1.45-2.498 0-3.033.348-3.033 1.032 0 .71.548.934 3.199 1.254.604.085 1.949.238 2.319.279 2.801.292 4.064 1.324 4.064 3.15-.005 2.176-1.926 3.46-6.002 3.46zm13.808-.014c-3.582 0-5.915-1.436-5.915-4.457v-6.64h2.62v6.677c0 1.381 1.113 2.3 3.404 2.3 2.073 0 3.309-.863 3.309-2.3v-6.678h2.594v6.89c0 2.745-2.169 4.208-6.012 4.208zm20.217-.153v-7.306l-3.363 7.306h-2.552l-3.267-7.306v7.306h-2.468V14.318h3.344l3.706 8.338 3.788-8.338h3.291v10.945h-2.479z" fill="#394149"/></svg>