<svg width="72" height="40" fill="none" xmlns="http://www.w3.org/2000/svg"><g clip-path="url(#clip0_522_18486)"><path d="M71.994 14.226a.626.626 0 000-.167.443.443 0 000-.137l-.533-3.91a2.554 2.554 0 00-.594-1.263l-.092-.107-.167-.167L61.374.533l.259.259A2.21 2.21 0 0059.896 0h-2.804a2.029 2.029 0 00-1.264.411 2.196 2.196 0 00-1.31-.41h-2.804a2.09 2.09 0 00-1.829 1.019c-.29.45-.398.994-.305 1.521l.35 2.465a1.526 1.526 0 00-.761-.198H35.593a2.548 2.548 0 00-1.372.411c-.395.247-.712.6-.914 1.02l-1.052-.898a2.18 2.18 0 00-1.523-.578H9.43a2.807 2.807 0 00-1.386.395A2.557 2.557 0 006.87 6.68L.105 29.274a1.975 1.975 0 00.579 2.13c.077.065.159.126.244.182 0 0-.137-.091-.214-.167l9.234 7.957c.39.36.902.56 1.432.563h21.47a2.79 2.79 0 001.386-.41 2.27 2.27 0 00.625-.503l.076-.106.122-.152.092-.168 1.005.867a2.09 2.09 0 001.402.533h21.515a2.879 2.879 0 002.011-.913l.077-.106.121-.153c.065-.096.122-.198.168-.304.05-.092.09-.189.122-.289l6.171-20.631v-.183a.998.998 0 000-.213v-.137a.426.426 0 000-.137 2.021 2.021 0 000-.289h1.981c.172.016.346.016.518 0h.137c.112-.033.22-.079.32-.137h.153l.274-.213.122-.09.213-.275v-.091l.152-.259a.457.457 0 010-.152.122.122 0 010-.076c.033-.09.058-.18.077-.274a.198.198 0 010-.091.425.425 0 010-.137s.304-.593.304-.624z" fill="#000"/><path d="M31.356 6.497a.532.532 0 01.137.593l-6.75 22.58a1.05 1.05 0 01-.488.577 1.283 1.283 0 01-.625.213H2.176a.747.747 0 01-.487-.213.533.533 0 01-.137-.578L8.317 7.09a1.05 1.05 0 01.472-.593c.19-.115.404-.183.625-.198h21.454a.717.717 0 01.488.198zm-11.2 18.623l4.038-13.48H12.888L8.866 25.12h11.29zM51.835 6.725a.746.746 0 00.594.259h2.788a.626.626 0 00.534-.29.639.639 0 00.106-.486l-.548-4.017a1.277 1.277 0 00-.274-.502.747.747 0 00-.595-.258h-2.788a.626.626 0 00-.534.289c-.106.213-.152.35-.106.471l.564 4.017c.029.196.12.377.259.517zm8.852-4.564a1.278 1.278 0 00-.274-.502.716.716 0 00-.579-.259h-2.803a.58.58 0 00-.518.29.638.638 0 00-.122.47l.563 4.018c.036.193.126.373.26.517a.776.776 0 00.594.259h2.803a.594.594 0 00.518-.29.579.579 0 00.107-.486l-.548-4.017zM49.382 8.247l-.274-1.978H35.592a1.19 1.19 0 00-.595.198.884.884 0 00-.441.593l-1.128 3.773a.517.517 0 00.091.579c.129.12.297.19.473.197h16.426L46.38 25.09H30a1.143 1.143 0 00-.595.183 1.034 1.034 0 00-.442.594l-1.142 3.773a.562.562 0 00.106.578.701.701 0 00.473.213h21.515c.222-.02.437-.092.624-.213a1.02 1.02 0 00.473-.578l6.186-20.631h-6.963a.808.808 0 01-.594-.244 1.11 1.11 0 01-.26-.487v-.03z" fill="#fff"/></g><defs><clipPath id="clip0_522_18486"><path fill="#fff" d="M0 0h72v40H0z"/></clipPath></defs></svg>