<svg width="132" height="27" fill="none" xmlns="http://www.w3.org/2000/svg"><g clip-path="url(#clip0_522_18430)" fill="#007DFC"><path fill-rule="evenodd" clip-rule="evenodd" d="M16.7 8.345a6.56 6.56 0 00-3.63-1.095V.75c2.584 0 5.111.762 7.26 2.19a13.015 13.015 0 014.814 5.835 12.94 12.94 0 01.744 7.511 12.979 12.979 0 01-3.577 6.656 13.09 13.09 0 01-6.692 3.558 13.135 13.135 0 01-7.551-.74 13.054 13.054 0 01-5.865-4.788A12.951 12.951 0 010 13.75h6.535c0 1.286.383 2.542 1.1 3.611a6.528 6.528 0 002.934 2.394 6.567 6.567 0 007.121-1.409 6.49 6.49 0 001.788-3.328 6.467 6.467 0 00-.372-3.755A6.507 6.507 0 0016.7 8.345z"/><path fill-rule="evenodd" clip-rule="evenodd" d="M6.535.75A6.47 6.47 0 014.62 5.346 6.537 6.537 0 010 7.25v6.5c1.716 0 3.416-.336 5.001-.99a13.074 13.074 0 004.24-2.818 12.995 12.995 0 002.834-4.217A12.94 12.94 0 0013.069.75H6.535z"/><path d="M82.089 10.144h-3.171v10.018h3.17V10.144zM79.27 8.268c.331.33.746.495 1.243.495.497 0 .905-.165 1.222-.495a1.75 1.75 0 00.478-1.236c0-.495-.16-.907-.477-1.237-.318-.33-.726-.495-1.223-.495-.498 0-.912.165-1.243.495-.318.33-.477.742-.477 1.237 0 .48.159.893.477 1.236zM33.43 20.162V5.61h3.253v11.708h6.487v2.845h-9.74z"/><path fill-rule="evenodd" clip-rule="evenodd" d="M49.028 20.389c-1.036 0-1.976-.227-2.819-.68a5.309 5.309 0 01-1.968-1.897c-.484-.797-.725-1.69-.725-2.68 0-.989.241-1.875.725-2.659a5.203 5.203 0 011.968-1.855c.83-.467 1.769-.7 2.819-.7s1.99.226 2.818.68a5.152 5.152 0 011.969 1.875c.483.784.725 1.67.725 2.66 0 .989-.242 1.882-.725 2.68a5.308 5.308 0 01-1.969 1.896c-.829.453-1.768.68-2.818.68zm0-2.865c.456 0 .856-.097 1.202-.289.345-.206.608-.488.787-.845.194-.371.29-.79.29-1.258 0-.467-.096-.872-.29-1.216a2.025 2.025 0 00-.808-.824c-.332-.206-.725-.31-1.181-.31a2.26 2.26 0 00-1.181.31 2.025 2.025 0 00-.809.824c-.193.358-.29.77-.29 1.237 0 .454.097.866.29 1.237.194.357.463.639.809.845.345.192.739.289 1.18.289zm8.023 6.555c.843.384 1.817.577 2.922.577 1.078 0 2.038-.213 2.88-.64a4.967 4.967 0 001.99-1.772c.484-.756.726-1.649.726-2.68v-9.42h-3.11v.673a3.354 3.354 0 00-.787-.487c-.538-.261-1.153-.392-1.844-.392-.925 0-1.748.22-2.466.66a4.573 4.573 0 00-1.7 1.772c-.414.743-.62 1.58-.62 2.515 0 .92.206 1.76.62 2.515a4.728 4.728 0 001.7 1.793c.718.44 1.54.66 2.466.66.677 0 1.292-.13 1.844-.392.268-.126.51-.275.726-.447v.633c0 .7-.228 1.244-.684 1.628-.442.385-1.057.577-1.844.577-.636 0-1.182-.11-1.637-.33a3.774 3.774 0 01-1.202-.968l-1.948 1.937c.483.688 1.14 1.217 1.968 1.588zm4.518-7.318c-.318.192-.698.289-1.14.289-.442 0-.829-.097-1.16-.289a2.038 2.038 0 01-.746-.783 2.326 2.326 0 01-.27-1.093c0-.412.09-.783.27-1.113.18-.33.435-.59.766-.783a2.23 2.23 0 011.14-.289c.442 0 .822.096 1.14.289.331.192.58.453.746.783.18.33.27.7.27 1.113 0 .412-.09.784-.27 1.113-.166.316-.415.57-.746.763zm10.672 3.628c-1.036 0-1.976-.227-2.818-.68a5.306 5.306 0 01-1.969-1.897c-.484-.797-.725-1.69-.725-2.68 0-.989.241-1.875.725-2.659a5.2 5.2 0 011.969-1.855c.828-.467 1.768-.7 2.818-.7s1.99.226 2.818.68a5.151 5.151 0 011.969 1.875c.483.784.725 1.67.725 2.66 0 .989-.242 1.882-.725 2.68a5.307 5.307 0 01-1.969 1.896c-.829.453-1.768.68-2.818.68zm0-2.865a2.43 2.43 0 001.202-.289c.345-.206.608-.488.787-.845.194-.371.29-.79.29-1.258 0-.467-.096-.872-.29-1.216a2.024 2.024 0 00-.808-.824c-.331-.206-.725-.31-1.18-.31-.443 0-.837.104-1.182.31a2.024 2.024 0 00-.809.824c-.193.358-.29.77-.29 1.237 0 .454.097.866.29 1.237.194.357.463.639.809.845.345.192.739.289 1.181.289zm17.467 2.844c-.676 0-1.298-.13-1.865-.391a3.97 3.97 0 01-.807-.492v4.903h-3.13V10.144h3.17v.692a3.92 3.92 0 01.767-.486 4.216 4.216 0 011.865-.412c.954 0 1.797.227 2.529.68a4.699 4.699 0 011.74 1.855c.43.784.643 1.677.643 2.68 0 1.003-.214 1.897-.642 2.68a4.7 4.7 0 01-1.741 1.855c-.732.454-1.575.68-2.529.68zm-.58-2.844c.456 0 .85-.103 1.182-.31.345-.206.614-.487.808-.845.193-.357.29-.762.29-1.216 0-.467-.097-.88-.29-1.237a2.025 2.025 0 00-.808-.824 2.15 2.15 0 00-1.161-.31c-.442 0-.836.104-1.18.31a2.063 2.063 0 00-.788.824c-.194.358-.29.77-.29 1.237 0 .454.09.859.269 1.216.193.358.463.64.808.846a2.22 2.22 0 001.16.309z"/><path d="M97.724 20.183c.58.15 1.167.226 1.761.226 1.257 0 2.252-.288 2.985-.865.745-.578 1.118-1.354 1.118-2.33 0-.632-.117-1.14-.352-1.525a2.73 2.73 0 00-.912-.948 5.457 5.457 0 00-1.181-.557 18.193 18.193 0 00-1.18-.35 4.29 4.29 0 01-.913-.33c-.235-.124-.352-.289-.352-.495 0-.192.09-.336.269-.433.18-.11.449-.165.808-.165.373 0 .753.076 1.14.227.401.151.76.412 1.078.784l1.802-1.814c-.455-.578-1.049-1.01-1.782-1.299a6.025 6.025 0 00-2.362-.454c-.815 0-1.526.138-2.134.413-.608.275-1.078.652-1.41 1.133-.33.468-.497 1.024-.497 1.67 0 .605.118 1.106.352 1.505.235.385.54.687.912.907.373.22.767.391 1.181.515.415.124.809.24 1.182.35.372.097.677.214.911.351.249.124.374.31.374.557 0 .192-.104.343-.311.453-.194.11-.477.165-.85.165-.54 0-1.036-.096-1.492-.289a3.632 3.632 0 01-1.181-.845l-1.803 1.814c.345.371.76.701 1.243.99a7.09 7.09 0 001.596.639zm11.645.206c-.925 0-1.747-.186-2.465-.557a4.315 4.315 0 01-1.658-1.566c-.401-.674-.601-1.443-.601-2.309v-5.813h3.17v5.772c0 .343.055.639.166.886.124.248.304.44.539.577.235.138.518.206.849.206.47 0 .843-.144 1.12-.432.276-.303.414-.715.414-1.237v-5.772h3.171v5.792c0 .88-.2 1.656-.602 2.33-.4.66-.952 1.182-1.658 1.566-.704.371-1.519.557-2.445.557zm9.452-10.245h-3.171v10.018h3.171v-5.854c0-.344.069-.632.207-.866.152-.233.353-.412.601-.536.249-.137.532-.206.85-.206.456 0 .836.145 1.139.433.319.275.478.667.478 1.175v5.854h3.17v-5.854c0-.344.069-.632.207-.866.153-.233.352-.412.601-.536.249-.137.532-.206.85-.206.456 0 .836.145 1.14.433.317.275.476.667.476 1.175v5.854h3.171v-6.204c0-.839-.179-1.553-.539-2.144a3.454 3.454 0 00-1.43-1.381c-.594-.33-1.278-.495-2.052-.495-.787 0-1.499.172-2.134.515a3.88 3.88 0 00-1.083.848 3.512 3.512 0 00-1.052-.889c-.552-.316-1.18-.474-1.885-.474-.746 0-1.416.158-2.01.474a3.474 3.474 0 00-.705.473v-.74z"/></g><defs><clipPath id="clip0_522_18430"><path fill="#fff" transform="translate(0 .75)" d="M0 0h132v26H0z"/></clipPath></defs></svg>