<svg width="78" height="30" fill="none" xmlns="http://www.w3.org/2000/svg"><g clip-path="url(#clip0_522_18443)" fill="#394149"><path d="M18.515 0c-3.046 0-5.968 1.21-8.122 3.364l-7.029 7.03A11.485 11.485 0 000 18.513C0 24.859 5.142 30 11.485 30c3.046 0 5.968-1.21 8.122-3.364l4.862-4.862L38.636 7.607a5.485 5.485 0 019.095 2.177l4.471-4.471A11.477 11.477 0 0042.515 0c-3.046 0-5.968 1.21-8.122 3.364l-19.029 19.03a5.485 5.485 0 01-7.757-7.758l7.029-7.03a5.485 5.485 0 019.095 2.178l4.471-4.47A11.477 11.477 0 0018.515 0z"/><path d="M39.365 22.393a5.485 5.485 0 01-9.095-2.176l-4.471 4.47A11.477 11.477 0 0035.486 30c3.046 0 5.967-1.21 8.121-3.364l19.03-19.03a5.485 5.485 0 017.757 7.758l-7.03 7.03a5.485 5.485 0 01-9.094-2.178l-4.471 4.471A11.476 11.476 0 0059.486 30c3.046 0 5.967-1.21 8.121-3.364l7.03-7.03A11.485 11.485 0 0078 11.487C78 5.141 72.859 0 66.515 0c-3.046 0-5.967 1.21-8.121 3.364l-19.03 19.03z"/></g><defs><clipPath id="clip0_522_18443"><path fill="#fff" d="M0 0h78v30H0z"/></clipPath></defs></svg>