<svg width="149" height="34" fill="none" xmlns="http://www.w3.org/2000/svg"><g clip-path="url(#clip0_522_18490)" fill="#2F2352"><path d="M42.99 17.682c.03-.581.03-1.163 0-1.744H10.493c-.007.145-.013.29-.016.436H3.67l-.003.218H0v.436h3.665l.005.218h6.807c.003.146.009.291.017.436h9.33a7.155 7.155 0 01-.053-.872h13.7c0 .296-.016.587-.052.872h9.57zm-.068-2.616h-9.665a7.023 7.023 0 00-.283-.871H20.271a6.963 6.963 0 00-.283.871H10.56l.051-.436H3.804l.029-.212H0v-.436h3.9l.04-.223h6.808c.025-.146.055-.292.085-.436h31.818c.12.57.211 1.152.271 1.743zm-.48-2.615H31.97a6.958 6.958 0 00-.816-.872H22.09a7.091 7.091 0 00-.816.872H11.041a16.6 16.6 0 01.123-.436H4.356l.075-.245H0v-.437h4.574l.067-.19h6.808c.051-.147.106-.292.163-.437h30.26c.22.567.411 1.15.57 1.745zm-.939-2.615H11.98c.067-.147.135-.292.206-.436H5.38l.121-.24H0v-.437h5.732l.109-.195h6.808c.083-.147.168-.292.256-.436h27.673c.341.56.651 1.142.925 1.744zM10.56 18.553h32.363c-.06.592-.152 1.174-.272 1.744H32.556c.159-.279.3-.57.42-.872H20.268c.12.302.26.593.418.872h-9.855c-.03-.145-.059-.29-.085-.436H3.94a16.71 16.71 0 01-.04-.23H0v-.436h3.832a6.807 6.807 0 01-.028-.206h6.808c-.02-.145-.037-.29-.052-.436zm.48 2.616h31.402c-.159.595-.35 1.177-.57 1.744h-11.93c.433-.246.84-.538 1.212-.872H22.09c.373.334.78.626 1.213.872H11.612c-.056-.145-.11-.29-.163-.436H4.641l-.073-.21H0v-.436h4.425l-.068-.226h6.807a16.6 16.6 0 01-.123-.436zm.94 2.615h29.523c-.273.6-.582 1.182-.925 1.744H12.905c-.088-.144-.174-.29-.257-.436H5.84a9.991 9.991 0 01-.126-.226H0v-.436h5.485l-.106-.209h6.808c-.071-.144-.14-.29-.207-.436zm2.509 3.923c.126.149.255.293.387.436h23.731c.506-.548.974-1.13 1.402-1.743H13.474c.103.147.207.293.315.436H6.982l.17.222H0v.436h7.501l.18.213h6.808zm2.84 2.616c.209.15.42.296.634.436H35.52a16.374 16.374 0 002.221-1.744H15.744c.158.148.32.294.484.436H9.42c.092.08.185.159.28.235H0v.436h10.252c.089.068.18.135.27.2h6.808zm6.01 2.688a16.03 16.03 0 003.402.363c2.615 0 5.086-.628 7.275-1.744h-14.55c.306.156.615.301.929.436h-6.808c.122.053.244.104.367.154H0v.436h15.178c1.505.467 3.102.718 4.756.718 1.168 0 2.306-.125 3.404-.363zm-9.865-25.79H40.01a16.594 16.594 0 00-1.402-1.744H14.876c-.132.143-.261.287-.388.436H7.681l-.15.18H0v.435h7.178l-.196.256h6.807c-.107.144-.212.29-.315.436zm2.268-2.616H37.74a16.374 16.374 0 00-2.22-1.744H17.962c-.214.14-.425.286-.634.436h-6.806c-.095.069-.189.138-.281.208H0v.436h9.69l-.27.228h6.807c-.164.142-.326.288-.485.436zm3.726-2.616h14.549A15.967 15.967 0 0026.742.246c-1.168 0-2.306.125-3.404.363a16.057 16.057 0 00-3.404-.363c-1.827 0-3.583.307-5.223.872H0v.436h20.395c-.314.135-.623.28-.927.435zM95.264 0c.563 0 1.005.143 1.326.429.334.273.501.654.501 1.145s-.166.88-.501 1.165c-.321.273-.763.41-1.326.41-.562 0-1.01-.137-1.345-.41-.321-.286-.482-.674-.482-1.165 0-.49.16-.871.482-1.145.335-.286.783-.429 1.345-.429zm1.566 5.05v8.893c0 .572.094.961.282 1.165.2.205.535.307 1.004.307v.429c-.375-.019-.75-.032-1.125-.041a28.904 28.904 0 00-1.546-.04 31.5 31.5 0 00-1.586.04 52.07 52.07 0 00-1.205.041v-.429c.468 0 .796-.102.984-.307.2-.204.301-.593.301-1.165v-6.44c0-.613-.094-1.064-.281-1.349-.174-.3-.509-.45-1.004-.45v-.43c.428.041.844.061 1.245.061.562 0 1.084-.02 1.566-.06.495-.055.95-.13 1.365-.226z"/><path fill-rule="evenodd" clip-rule="evenodd" d="M102.482 6.926V5.049c-.414.096-.87.171-1.365.225a19.06 19.06 0 01-1.567.061 13.4 13.4 0 01-1.245-.06v.43c.482 0 .817.15 1.004.45.188.285.281.735.281 1.348v10.222c0 .545-.093.913-.28 1.104-.174.191-.483.286-.925.286v.43l1.065-.061c.488-.014.977-.021 1.466-.021.682 0 1.325.007 1.927.02.616.028 1.098.048 1.447.061v-.429c-.563 0-1.005-.109-1.326-.327-.321-.204-.482-.627-.482-1.268v-2.048c.176.15.384.274.623.372.428.192.903.287 1.425.287.71 0 1.346-.13 1.908-.389a3.895 3.895 0 001.466-1.145c.415-.518.73-1.151.944-1.901.228-.75.342-1.621.342-2.617 0-1.13-.161-2.072-.482-2.821-.322-.764-.751-1.329-1.286-1.697a3.07 3.07 0 00-1.827-.573c-.777 0-1.459.204-2.049.613-.463.319-.817.76-1.064 1.325zm0 .702v7.411c.111.135.246.246.402.335.254.136.542.204.864.204.602 0 1.077-.204 1.425-.613.348-.422.596-1.008.743-1.758.161-.763.241-1.67.241-2.72 0-1.17-.073-2.092-.221-2.76-.147-.667-.348-1.144-.602-1.43-.255-.287-.562-.43-.924-.43-.482 0-.923.192-1.325.573-.302.296-.504.693-.603 1.188z"/><path d="M113.8 4.988c.562 0 1.05.075 1.466.225.428.136.736.273.924.41.454.313.736.108.843-.615h.421c-.026.382-.047.853-.059 1.411a89.615 89.615 0 00-.021 2.188h-.421a6.614 6.614 0 00-.382-1.492 2.974 2.974 0 00-.823-1.207c-.349-.314-.803-.47-1.366-.47-.388 0-.716.116-.984.348-.268.218-.402.538-.402.96 0 .41.121.77.362 1.084.241.3.549.593.924.88.388.272.789.565 1.205.878.441.34.843.682 1.204 1.023.347.308.639.674.864 1.083.215.395.322.865.322 1.41 0 .614-.175 1.152-.523 1.615a3.39 3.39 0 01-1.385 1.043c-.563.246-1.192.369-1.888.369a4.407 4.407 0 01-1.085-.123 3.72 3.72 0 01-.803-.307 13.519 13.519 0 00-.502-.225 3.796 3.796 0 00-.422-.204c-.133-.04-.254.006-.361.143a1.651 1.651 0 00-.221.572h-.421c.026-.436.047-.968.06-1.595.013-.626.02-1.458.02-2.493h.421c.081.736.228 1.39.442 1.962.214.56.502 1.002.863 1.33.376.313.844.47 1.407.47.227 0 .448-.048.662-.144a1.18 1.18 0 00.523-.47c.147-.219.221-.498.221-.838 0-.6-.195-1.098-.584-1.493a13.465 13.465 0 00-1.445-1.288 56.21 56.21 0 01-1.225-1.042 5.263 5.263 0 01-.924-1.145 2.838 2.838 0 01-.361-1.432c0-.612.16-1.13.481-1.553a2.868 2.868 0 011.266-.94 4.48 4.48 0 011.707-.328zm24.928.225c-.348-.15-.803-.225-1.366-.225a3.707 3.707 0 00-1.807.45c-.549.286-.984.77-1.306 1.452V5.05c-.414.095-.87.17-1.364.224-.483.041-1.005.061-1.567.061a13.4 13.4 0 01-1.245-.06v.43c.495 0 .83.149 1.004.449.187.286.281.736.281 1.349v6.44c0 .572-.101.961-.301 1.165-.187.205-.515.307-.984.307v.429c.402-.018.803-.032 1.205-.041.522-.027 1.044-.04 1.566-.041.469 0 .924.014 1.365.041.456.014.791.028 1.005.04v-.428c-.348 0-.596-.102-.744-.307-.147-.204-.221-.593-.221-1.165V8.259c0-.45.088-.851.262-1.206.187-.368.428-.654.722-.858.283-.2.62-.308.965-.307.308 0 .535.075.682.225.161.136.268.334.322.593.053.245.08.538.08.879v6.358c0 .572-.074.961-.221 1.165-.134.205-.381.307-.743.307v.429c.241-.013.596-.027 1.065-.041.95-.055 1.902-.055 2.851 0 .495.014.863.028 1.104.04v-.428c-.428 0-.729-.102-.903-.307-.174-.204-.261-.593-.261-1.165V8.35l-.001-.064-.004-.206c.031-.342.121-.676.266-.985a2.45 2.45 0 01.722-.88 1.59 1.59 0 01.965-.327c.347 0 .602.075.763.225.173.136.287.334.341.593.067.245.1.538.1.879v6.358c0 .572-.073.961-.22 1.165-.134.205-.382.307-.744.307v.429c.242-.013.596-.027 1.065-.041.474-.028.95-.041 1.425-.041.496 0 .998.014 1.507.041.508.014.89.028 1.145.04v-.428c-.469 0-.804-.102-1.005-.307-.187-.204-.281-.593-.281-1.165v-5.5c0-.681-.047-1.226-.14-1.635-.094-.423-.248-.763-.463-1.022a2.121 2.121 0 00-.843-.573c-.348-.15-.803-.225-1.365-.225-.683 0-1.326.143-1.928.43-.577.28-1.044.815-1.403 1.605a3.94 3.94 0 00-.043-.215c-.093-.423-.247-.763-.461-1.022a2.132 2.132 0 00-.844-.573zm-10.23 8.403V5.049c-.416.096-.87.171-1.366.225-.482.041-1.004.061-1.566.061-.402 0-.817-.02-1.246-.06v.43c.496 0 .831.149 1.005.449.187.286.281.736.281 1.349v5.356c0 .45-.094.859-.281 1.226a2.144 2.144 0 01-.703.84 1.596 1.596 0 01-.964.306c-.334 0-.589-.069-.763-.205a1.172 1.172 0 01-.362-.613 4.451 4.451 0 01-.08-.9V5.05c-.415.096-.87.171-1.365.225a18.57 18.57 0 01-1.566.061c-.402 0-.817-.02-1.245-.06v.43c.494 0 .829.149 1.003.449.188.286.281.736.281 1.349v5.172c0 .668.047 1.213.141 1.635.094.423.255.764.482 1.023.201.232.475.423.823.573.348.149.804.225 1.366.225a4.1 4.1 0 001.887-.43c.576-.3 1.025-.79 1.346-1.472v1.84a8.386 8.386 0 011.366-.225 18.537 18.537 0 011.566-.061c.415 0 .83.02 1.245.06v-.428c-.482 0-.817-.143-1.005-.43-.187-.3-.28-.756-.28-1.368v-.001z"/><path fill-rule="evenodd" clip-rule="evenodd" d="M89.653 5.54c-.736-.368-1.594-.552-2.57-.552-.951 0-1.802.184-2.55.552-.737.368-1.32.961-1.748 1.779-.415.817-.623 1.901-.623 3.25 0 1.35.208 2.433.622 3.252.429.803 1.01 1.39 1.747 1.757.75.368 1.6.553 2.551.553.977 0 1.835-.185 2.571-.553.736-.368 1.312-.954 1.726-1.757.416-.818.623-1.902.623-3.251 0-1.35-.207-2.433-.623-3.251-.414-.818-.99-1.41-1.726-1.779zm-3.916 1.084c.361-.818.81-1.227 1.345-1.227.55 0 .998.41 1.346 1.227.361.804.542 2.12.542 3.946s-.181 3.142-.542 3.945c-.348.804-.797 1.207-1.346 1.207-.535 0-.984-.403-1.345-1.207-.361-.803-.542-2.119-.542-3.945 0-1.827.18-3.142.542-3.946zM75.614 19.688c-.831 0-1.573-.075-2.23-.225-.642-.136-1.15-.354-1.525-.654-.362-.287-.542-.64-.542-1.064 0-.422.186-.803.561-1.144.375-.327.931-.586 1.668-.777l.18.327a2.09 2.09 0 00-.562.654 1.878 1.878 0 00-.161.756c0 .573.254 1.01.763 1.308.523.314 1.225.47 2.109.47.602 0 1.138-.081 1.606-.244.482-.164.857-.41 1.125-.736.281-.328.422-.73.422-1.206a1.4 1.4 0 00-.442-1.043c-.295-.273-.884-.409-1.767-.409h-1.246a5.108 5.108 0 01-1.445-.184c-.403-.122-.717-.314-.945-.573-.227-.272-.34-.613-.34-1.021 0-.573.22-1.077.662-1.514.346-.342.824-.667 1.434-.975a5.14 5.14 0 01-1.173-.292c-.602-.231-1.078-.586-1.425-1.063-.349-.477-.523-1.09-.523-1.84s.174-1.363.523-1.84c.347-.49.823-.846 1.425-1.064.602-.23 1.285-.347 2.048-.347.764 0 1.446.116 2.048.348.398.143.739.346 1.025.608.17-.25.378-.473.622-.67.456-.354.945-.531 1.466-.531.428 0 .75.122.964.368.228.231.342.538.342.92 0 .409-.108.715-.322.92a1.054 1.054 0 01-.723.287 1 1 0 01-.642-.246c-.188-.164-.295-.41-.321-.736-.023-.293.057-.656.241-1.09-.39.17-.691.362-.904.58-.16.156-.3.333-.416.527.032.04.064.083.094.126.349.477.523 1.09.523 1.84s-.174 1.363-.523 1.84c-.348.477-.823.832-1.426 1.063-.602.231-1.284.347-2.048.347-.114 0-.228-.002-.342-.008a7.074 7.074 0 00-.521.397.851.851 0 00-.321.695c0 .436.268.654.803.654h2.189c.736 0 1.392.089 1.968.266.589.178 1.05.47 1.385.88.349.394.522.912.522 1.553 0 .668-.214 1.288-.642 1.86-.415.573-1.057 1.03-1.928 1.37-.87.355-1.975.532-3.313.532zm.2-8.566c.362 0 .642-.204.844-.613.2-.423.3-1.18.3-2.27s-.1-1.84-.3-2.249c-.2-.423-.482-.634-.843-.634-.349 0-.63.211-.844.634-.2.409-.301 1.159-.301 2.25 0 1.09.1 1.846.301 2.269.215.409.495.612.843.612zM68.717 5.54c-.737-.368-1.593-.552-2.57-.552-.95 0-1.8.184-2.55.552-.737.368-1.319.961-1.747 1.779-.415.817-.623 1.901-.623 3.25 0 1.35.208 2.433.622 3.252.428.803 1.01 1.39 1.747 1.757.75.368 1.6.553 2.551.553.977 0 1.834-.185 2.57-.553.736-.368 1.312-.954 1.727-1.757.415-.818.623-1.902.623-3.251 0-1.35-.208-2.433-.623-3.251-.414-.818-.99-1.41-1.727-1.779zM64.8 6.624c.362-.818.81-1.227 1.346-1.227.548 0 .997.41 1.344 1.227.363.804.543 2.12.543 3.946s-.18 3.142-.542 3.945c-.348.804-.796 1.207-1.345 1.207-.536 0-.985-.403-1.346-1.207-.362-.803-.542-2.119-.542-3.945 0-1.827.18-3.142.542-3.946z"/><path d="M55.819 1.37v.41c-.455.012-.803.067-1.044.162a.722.722 0 00-.462.491c-.08.231-.12.6-.12 1.104v10.386c0 .422.026.735.08.94.067.204.188.34.362.41.187.067.462.101.823.101h.984c.454 0 .883-.109 1.285-.327a3.613 3.613 0 001.084-.92c.339-.44.61-.93.804-1.452a9.16 9.16 0 00.481-1.86h.463c-.04.463-.06 1.063-.06 1.799 0 .314.006.77.02 1.37.013.6.053 1.22.12 1.86a58.455 58.455 0 00-2.31-.04c-.856-.014-1.62-.021-2.29-.021h-1.284c-.522 0-1.085.007-1.687.02-.602 0-1.211.007-1.827.021-.617 0-1.199.007-1.747.02v-.409c.428-.027.75-.082.964-.163.214-.082.354-.246.422-.49.08-.246.12-.614.12-1.105V3.537c0-.505-.04-.872-.12-1.104a.687.687 0 00-.442-.49c-.214-.097-.53-.15-.944-.165V1.37a83.912 83.912 0 004.899.04 115.49 115.49 0 001.426-.04z"/><path fill-rule="evenodd" clip-rule="evenodd" d="M145.464 32.739c-.028-.147-.009-.338.058-.573l2.829-10.433c-.453.19-.922.336-1.4.44a9.445 9.445 0 01-1.689.162l-.101.31c.472 0 .766.078.881.234.115.157.129.401.043.734l-.67 2.571a.77.77 0 00-.21-.322c-.164-.157-.39-.235-.678-.235a3.33 3.33 0 00-1.603.396 4.994 4.994 0 00-1.313 1.058c-.395.432-.73.917-.996 1.44a8.24 8.24 0 00-.621 1.602 5.62 5.62 0 00-.217 1.47c0 .47.073.857.217 1.16.145.294.342.515.592.661.25.138.529.206.837.206a2.05 2.05 0 001.27-.425c.375-.294.726-.745 1.054-1.353.137-.247.275-.525.412-.834l-.095.364a4.477 4.477 0 00-.173.882c-.019.254 0 .47.058.647.115.48.471.72 1.068.72.221 0 .447-.045.678-.133.232-.088.447-.24.649-.456.213-.215.381-.523.506-.925l.347-1.073h-.274l-.232.661c-.173.5-.336.838-.49 1.014-.145.167-.294.25-.448.25-.164 0-.26-.073-.289-.22zm-.77-3.784c-.108.358-.227.7-.355 1.02a10.449 10.449 0 01-.766 1.618c-.259.44-.514.783-.764 1.029-.25.234-.472.352-.664.352-.183 0-.318-.088-.404-.264-.077-.187-.116-.466-.116-.838 0-.53.058-1.068.173-1.616a9.675 9.675 0 01.476-1.602c.186-.478.419-.936.693-1.367.26-.411.534-.735.823-.97.298-.236.592-.352.88-.352.193 0 .347.069.463.206.08.088.142.217.185.388l-.624 2.396z"/><path d="M135.859 33.414h-1.775l1.731-6.333c.088-.293.116-.5.088-.617-.029-.117-.116-.176-.261-.176-.182 0-.351.093-.505.279-.154.186-.312.514-.476.985l-.246.69h-.274l.375-1.102c.136-.393.304-.695.506-.911a1.67 1.67 0 01.664-.47 2.13 2.13 0 01.736-.133c.308 0 .534.064.678.192a.82.82 0 01.289.5c.049.221.059.45.029.675a4.072 4.072 0 01-.116.69l-.232.922.059-.157c.27-.695.529-1.249.779-1.66.261-.422.535-.72.823-.897.283-.175.608-.266.939-.265.346 0 .61.103.794.309.192.206.288.46.288.765 0 .244-.058.475-.173.69a1.428 1.428 0 01-.462.5 1.146 1.146 0 01-.635.176c-.24 0-.433-.064-.578-.191-.134-.128-.202-.314-.202-.558 0-.216.049-.412.145-.589a1.37 1.37 0 01.375-.44 1.35 1.35 0 01.505-.265.176.176 0 00-.072-.044.319.319 0 00-.101-.014c-.211 0-.428.078-.65.235-.221.146-.452.387-.693.72-.24.333-.485.773-.735 1.322-.282.648-.533 1.31-.751 1.984-.109.326-.218.677-.328 1.052l-.538 2.136z"/><path fill-rule="evenodd" clip-rule="evenodd" d="M130.467 31.144l-.061.229a6.011 6.011 0 00-.187 1.013c-.029.314.018.578.144.794.192.294.519.44.981.44a1.78 1.78 0 001.313-.588c.203-.225.371-.538.506-.94l.361-1.072h-.275l-.216.661c-.173.51-.341.848-.505 1.014-.163.166-.323.25-.477.25-.125 0-.206-.04-.245-.118a.785.785 0 01-.029-.309c.019-.125.048-.247.087-.367l1.862-6.525c-.29.071-.584.12-.881.148-.298.03-.62.049-.967.058l-.209.787a1.224 1.224 0 00-.166-.566.841.841 0 00-.317-.32.82.82 0 00-.434-.107c-.423 0-.846.133-1.27.397a5.23 5.23 0 00-1.198 1.058 8.243 8.243 0 00-1.01 1.47 8.467 8.467 0 00-.678 1.66 5.678 5.678 0 00-.245 1.602c0 .549.125.99.375 1.322.25.324.634.485 1.154.485.366 0 .717-.107 1.054-.323.346-.216.673-.573.982-1.072.19-.3.374-.66.551-1.08zm-1.244 1.492c-.222.205-.419.308-.592.308-.145 0-.255-.073-.332-.22-.068-.157-.101-.416-.101-.779 0-.52.057-1.053.173-1.601.115-.55.269-1.078.462-1.587.202-.51.423-.965.664-1.367.24-.4.481-.72.722-.955.25-.236.485-.353.707-.353.23 0 .394.118.491.353.096.212.12.497.074.854l-.426 1.606.049-.256a13.313 13.313 0 01-.549 1.734c-.185.473-.406.93-.664 1.366a4.553 4.553 0 01-.678.897zm-4.813-.47c-.067.235-.086.426-.057.573.028.147.125.22.288.22.155 0 .304-.083.447-.25.155-.176.318-.514.491-1.014l.231-.66h.274l-.346 1.071c-.125.402-.293.711-.505.926-.18.2-.402.357-.65.456-.216.086-.446.13-.678.133-.596 0-.952-.24-1.068-.72-.061-.21-.08-.43-.057-.647.019-.255.076-.55.173-.881l.095-.365a10.83 10.83 0 01-.413.834c-.327.608-.678 1.059-1.053 1.352a2.055 2.055 0 01-1.271.427c-.307 0-.587-.07-.837-.206a1.513 1.513 0 01-.591-.662c-.145-.303-.217-.69-.217-1.16 0-.45.072-.942.217-1.47a8.21 8.21 0 01.62-1.601 6.48 6.48 0 01.996-1.44 4.982 4.982 0 011.313-1.059 3.325 3.325 0 011.602-.396c.289 0 .515.078.679.235a.768.768 0 01.211.322l.669-2.57c.087-.334.073-.579-.043-.735-.116-.157-.409-.236-.88-.236l.101-.308a9.445 9.445 0 001.688-.162 8.087 8.087 0 001.401-.44l-2.83 10.433zm-1.183-2.19c.128-.323.247-.663.355-1.021l.624-2.396a.906.906 0 00-.185-.389.581.581 0 00-.462-.205c-.289 0-.582.117-.88.352-.29.235-.564.559-.823.97a7.825 7.825 0 00-.693 1.366 9.586 9.586 0 00-.476 1.603 7.838 7.838 0 00-.174 1.616c0 .372.039.651.116.837.086.177.221.265.404.265.193 0 .413-.118.664-.353.25-.244.505-.588.765-1.029.3-.515.556-1.056.765-1.616z"/><path d="M110.717 33.414h1.775l.167-.664-.009.048c.184-.686.39-1.347.621-1.984.225-.608.475-1.207.75-1.793.261-.549.52-1.029.78-1.44.26-.412.51-.73.751-.956.24-.235.461-.352.663-.352.164 0 .265.059.303.176a.82.82 0 01.015.412 3.75 3.75 0 01-.116.47l-1.312 4.041a4.363 4.363 0 00-.232 1.058c-.019.294.034.534.159.72a.93.93 0 00.404.338c.183.087.4.133.65.133.23 0 .461-.045.693-.133a1.59 1.59 0 00.663-.44c.212-.216.386-.53.52-.942l.361-1.072h-.274l-.232.661c-.182.51-.355.847-.519 1.014-.154.167-.303.25-.447.25-.155 0-.25-.064-.289-.192-.038-.136-.015-.337.072-.601l1.415-4.32c.125-.383.187-.74.187-1.073.01-.343-.081-.617-.274-.823-.183-.215-.51-.323-.981-.323-.356 0-.698.079-1.025.235-.327.157-.645.43-.952.823-.309.382-.626.901-.954 1.557-.217.442-.416.893-.596 1.352l.481-1.91a6.05 6.05 0 00.13-.705 1.86 1.86 0 00-.029-.662.842.842 0 00-.331-.5c-.164-.127-.405-.19-.722-.19a1.84 1.84 0 00-1.055.323c-.316.215-.577.612-.779 1.19l-.375 1.102h.274l.246-.69c.173-.48.331-.809.476-.985.154-.186.322-.279.505-.279.135 0 .217.04.246.118a.48.48 0 01.028.294c-.021.128-.05.256-.086.381l-1.746 6.333z"/><path fill-rule="evenodd" clip-rule="evenodd" d="M107.039 31.372l.061-.228a7.481 7.481 0 01-.552 1.081c-.308.499-.635.857-.982 1.072a1.928 1.928 0 01-1.053.323c-.52 0-.905-.161-1.155-.485-.251-.333-.376-.773-.376-1.322 0-.51.083-1.043.246-1.602a8.529 8.529 0 01.678-1.66 8.167 8.167 0 011.011-1.47 5.23 5.23 0 011.198-1.058c.423-.264.847-.396 1.27-.396a.83.83 0 01.751.427c.092.145.148.334.166.565l.209-.787c.346-.01.669-.029.967-.058a6.14 6.14 0 00.88-.148l-1.862 6.526c-.039.12-.068.242-.086.367a.785.785 0 00.029.309c.038.078.12.117.245.117.154 0 .312-.083.476-.25.163-.166.332-.505.505-1.013l.217-.662h.274l-.361 1.073c-.134.401-.303.714-.505.941a1.786 1.786 0 01-1.314.588c-.461 0-.788-.148-.981-.441-.125-.216-.173-.48-.144-.794a6.13 6.13 0 01.188-1.015zm-1.776 1.572c.174 0 .371-.103.592-.308.221-.216.447-.515.679-.897.23-.381.452-.836.663-1.366.212-.529.395-1.107.549-1.735l-.049.257.427-1.605c.045-.358.02-.643-.075-.854-.096-.236-.26-.354-.491-.354-.221 0-.457.118-.707.353-.24.235-.481.553-.722.955-.24.401-.462.857-.664 1.366a10.905 10.905 0 00-.462 1.587 7.772 7.772 0 00-.173 1.602c0 .363.034.623.101.779.077.147.188.22.332.22z"/><path d="M103.983 26.126l.043-.294h-1.719l.68-2.41a5.659 5.659 0 01-.866.148c-.298.029-.621.049-.967.058l-.621 2.204H99.22l-.072.294h1.303l-1.477 5.246c-.125.431-.168.818-.13 1.16.049.334.183.599.405.794.23.196.563.295.996.295.49 0 .913-.133 1.27-.398.356-.264.635-.7.837-1.307l.289-.882h-.275l-.216.603c-.174.49-.366.832-.578 1.028-.202.197-.404.294-.606.294a.509.509 0 01-.418-.192c-.097-.126-.106-.327-.029-.601l1.705-6.04h1.759zm-4.78-3.218c-.096.255-.226.628-.39 1.117a17.91 17.91 0 00-.462 1.88h-.288a3.09 3.09 0 00.057-.425c.019-.131.028-.264.03-.397 0-.382-.078-.715-.232-.999a1.557 1.557 0 00-.678-.691c-.298-.176-.683-.264-1.154-.264-.51 0-.944.137-1.3.411-.356.264-.534.69-.534 1.278 0 .363.082.706.245 1.029.174.314.39.622.65.926.27.294.553.593.851.896.3.294.578.598.838.911.26.314.472.647.635 1 .173.343.26.72.26 1.13 0 .52-.125.966-.375 1.338a2.96 2.96 0 01-.939.896 4.559 4.559 0 01-1.255.5c-.424.115-.86.174-1.3.177-.433 0-.793-.035-1.082-.103a2.505 2.505 0 01-.707-.25 29.888 29.888 0 01-.563-.323.853.853 0 00-.29-.162.55.55 0 00-.215-.06c-.126 0-.231.064-.318.193a3.73 3.73 0 00-.288.601h-.29c.239-.598.437-1.21.593-1.836.115-.45.245-1.014.39-1.69h.288c-.04.194-.074.39-.1.587-.03.196-.04.393-.03.589.03.685.236 1.214.62 1.586.396.373.973.558 1.732.558.645 0 1.132-.137 1.459-.41.327-.285.49-.696.49-1.235 0-.411-.077-.784-.23-1.117a3.854 3.854 0 00-.578-.955c-.245-.298-.5-.587-.765-.867s-.52-.568-.765-.867a4.578 4.578 0 01-.592-.97 2.904 2.904 0 01-.23-1.175c0-.49.1-.916.303-1.279.203-.353.479-.659.807-.896a3.577 3.577 0 011.112-.544 3.975 3.975 0 011.198-.19c.52 0 .948.063 1.284.191a3.6 3.6 0 01.867.455l.274.176c.086.04.154.059.202.059.134 0 .294-.26.476-.779h.289z"/><path fill-rule="evenodd" clip-rule="evenodd" d="M85.27 32.739c-.028-.147-.009-.338.06-.573l2.828-10.433a8.08 8.08 0 01-1.4.44 9.435 9.435 0 01-1.69.162l-.1.31c.47 0 .765.078.88.234.116.157.13.401.044.734l-.67 2.571a.771.771 0 00-.21-.322c-.164-.157-.39-.235-.679-.235-.578 0-1.111.132-1.602.396a4.982 4.982 0 00-1.314 1.058c-.395.432-.73.917-.996 1.44a8.201 8.201 0 00-.62 1.602 5.62 5.62 0 00-.217 1.47c0 .47.073.857.217 1.16.144.294.341.515.591.661.25.138.53.206.838.206a2.05 2.05 0 001.27-.425c.375-.294.726-.745 1.053-1.353.137-.247.275-.525.413-.834l-.094.364a4.434 4.434 0 00-.174.882c-.023.217-.004.437.057.647.116.48.471.72 1.069.72.22 0 .447-.045.678-.133.231-.088.447-.24.65-.456.212-.215.38-.523.504-.925l.347-1.073h-.274l-.231.661c-.173.5-.337.838-.49 1.014-.145.167-.294.25-.449.25-.162 0-.26-.073-.288-.22zm-.77-3.784c-.108.358-.226.7-.355 1.02a10.37 10.37 0 01-.765 1.618c-.26.44-.515.783-.765 1.029-.25.234-.47.352-.664.352-.182 0-.317-.088-.403-.264-.078-.187-.116-.466-.116-.838 0-.53.057-1.068.173-1.616a9.628 9.628 0 01.476-1.602c.186-.478.419-.936.694-1.367.26-.411.533-.735.822-.97.298-.236.591-.352.88-.352.193 0 .347.069.462.206.08.088.143.217.185.388l-.624 2.396z"/><path d="M73.41 33.414h-1.775l1.747-6.333c.038-.136.066-.264.085-.381a.482.482 0 00-.028-.294c-.03-.079-.111-.118-.246-.118-.182 0-.35.093-.505.28-.144.175-.303.504-.476.984l-.245.69h-.274l.375-1.102c.202-.578.463-.975.78-1.19a1.833 1.833 0 011.053-.323c.317 0 .558.063.722.19a.84.84 0 01.332.5c.048.196.057.417.029.662a6.06 6.06 0 01-.13.705l-.482 1.91c.204-.513.403-.963.597-1.352.327-.656.644-1.175.953-1.557.308-.392.625-.666.952-.823a2.345 2.345 0 011.025-.235c.47 0 .799.108.981.323.193.206.284.48.274.823 0 .333-.061.69-.187 1.072l-1.414 4.32c-.087.265-.111.466-.073.602.039.128.135.192.29.192.143 0 .292-.083.447-.25.163-.167.336-.505.52-1.014l.23-.66h.275l-.362 1.071c-.134.412-.308.726-.519.942-.181.202-.41.353-.664.44a1.93 1.93 0 01-.693.133 1.48 1.48 0 01-.65-.133.926.926 0 01-.403-.338c-.125-.186-.178-.426-.16-.72.02-.294.097-.646.232-1.058l1.313-4.04c.048-.157.087-.314.116-.471a.82.82 0 00-.015-.412c-.038-.117-.14-.176-.303-.176-.202 0-.424.118-.664.352-.24.226-.491.544-.75.956-.289.464-.549.945-.78 1.44-.26.55-.51 1.146-.75 1.793a23.812 23.812 0 00-.62 1.984l.008-.048-.168.664z"/><path fill-rule="evenodd" clip-rule="evenodd" d="M68.017 31.144l-.06.228a6.245 6.245 0 00-.189 1.014c-.029.314.02.578.144.794.193.294.52.44.982.44a1.784 1.784 0 001.314-.588c.202-.225.37-.538.505-.94l.36-1.072h-.274l-.216.661c-.174.51-.342.847-.505 1.014-.164.166-.323.25-.476.25-.126 0-.207-.04-.246-.118a.785.785 0 01-.03-.309c.02-.127.049-.25.088-.367l1.862-6.525c-.29.07-.584.12-.88.148-.3.03-.621.049-.968.058l-.209.787a1.234 1.234 0 00-.166-.566.84.84 0 00-.317-.32.82.82 0 00-.433-.107c-.424 0-.848.133-1.271.397a5.24 5.24 0 00-1.198 1.058c-.389.45-.728.944-1.01 1.47a8.483 8.483 0 00-.679 1.66 5.695 5.695 0 00-.245 1.602c0 .549.125.99.375 1.322.25.324.636.485 1.155.485a1.92 1.92 0 001.053-.323c.347-.216.675-.573.982-1.072.191-.3.374-.66.552-1.081zm-1.245 1.492c-.22.205-.418.308-.591.308-.145 0-.255-.073-.332-.22-.067-.157-.102-.416-.102-.779 0-.52.059-1.053.174-1.601.115-.55.27-1.078.462-1.587.202-.51.423-.965.663-1.367.241-.4.482-.72.722-.955.25-.236.486-.353.708-.353.23 0 .394.118.49.353.096.212.12.497.075.854l-.427 1.606.05-.256a13.104 13.104 0 01-.549 1.734 9.484 9.484 0 01-.664 1.366 4.593 4.593 0 01-.678.897z"/><path d="M60.041 33.414h-1.775l1.731-6.333c.087-.293.116-.5.087-.617-.028-.117-.115-.176-.26-.176-.182 0-.35.093-.505.279-.154.186-.312.514-.476.985l-.246.69h-.274l.375-1.102c.136-.393.303-.695.505-.911a1.67 1.67 0 01.665-.47c.24-.088.486-.133.736-.133.308 0 .534.064.678.192a.822.822 0 01.29.5c.047.205.057.43.027.675a4.023 4.023 0 01-.115.69l-.231.922.023-.063.035-.094c.27-.695.53-1.249.78-1.66.26-.422.533-.72.822-.897.283-.175.608-.266.939-.265.346 0 .61.103.794.309.191.206.288.46.288.765 0 .244-.058.475-.174.69-.112.202-.27.373-.461.5-.191.12-.412.18-.636.176-.24 0-.432-.064-.577-.191-.134-.128-.202-.314-.202-.558 0-.216.048-.412.145-.589.096-.176.22-.322.375-.44.154-.127.322-.215.505-.265a.18.18 0 00-.072-.044.261.261 0 00-.102-.014c-.21 0-.428.078-.649.235-.22.146-.452.387-.693.72-.24.333-.485.773-.736 1.322-.282.648-.533 1.31-.75 1.984a27.17 27.17 0 00-.328 1.052l-.538 2.136z"/><path fill-rule="evenodd" clip-rule="evenodd" d="M57.341 23.555c-.48-.353-1.25-.53-2.31-.53-.326 0-.653.006-.981.016-.317.01-.683.014-1.096.014h-.722c-.26-.01-.506-.014-.737-.014a44.49 44.49 0 01-.577-.03l-.072.294c.375 0 .63.049.765.147.145.087.211.225.202.412a4.43 4.43 0 01-.116.705l-1.905 7.288c-.086.352-.182.617-.289.793a.77.77 0 01-.432.354 3.262 3.262 0 01-.766.116l-.057.294c.163-.009.36-.014.59-.014.232-.01.478-.015.737-.015a28.902 28.902 0 012.18.015c.395.009.756.015 1.083.015.625 0 1.217-.065 1.775-.192a4.826 4.826 0 001.458-.601c.403-.245.744-.582.995-.985.25-.393.375-.852.375-1.381 0-.598-.24-1.113-.72-1.544-.471-.431-1.218-.686-2.238-.764a6.12 6.12 0 001.833-.573c.539-.284.962-.632 1.27-1.043.31-.391.479-.879.476-1.381 0-.588-.239-1.053-.72-1.396zm-4.607 4.585l-.965 3.717c-.057.244-.096.46-.114.646-.01.187.037.329.143.427.106.098.303.147.592.147.683 0 1.242-.133 1.674-.397.424-.254.761-.633.968-1.087.211-.47.317-1 .317-1.587a2.28 2.28 0 00-.188-.955 1.342 1.342 0 00-.563-.662c-.259-.166-.606-.25-1.039-.25h-.825zm.065-.25h.66c.548 0 1.014-.143 1.399-.427.395-.294.694-.675.896-1.145a3.6 3.6 0 00.317-1.485c0-.49-.096-.866-.289-1.132-.182-.264-.505-.396-.968-.396-.335 0-.576.069-.72.206-.145.127-.27.406-.376.836L52.8 27.89z"/></g><defs><clipPath id="clip0_522_18490"><path fill="#fff" d="M0 0h149v34H0z"/></clipPath></defs></svg>