<svg width="130" height="30" fill="none" xmlns="http://www.w3.org/2000/svg"><g clip-path="url(#clip0_522_18548)" fill="#283841"><path fill-rule="evenodd" clip-rule="evenodd" d="M7.704 1.875V30H0V1.875h7.704zm3.851 0h16.37c5.318 0 9.63 4.197 9.63 9.375s-4.312 9.375-9.63 9.375h-8.667V30h-7.703V1.875zm7.703 11.25h8.667c1.064 0 1.926-.84 1.926-1.875 0-1.036-.862-1.875-1.926-1.875h-8.667v3.75zm47.186-11.25v14.531c0 3.366 2.802 6.094 6.26 6.094 3.456 0 6.259-2.728 6.259-6.094V1.875h7.703v14.531C86.666 23.914 80.415 30 72.703 30c-7.711 0-13.963-6.086-13.963-13.594V1.875h7.704z"/><path fill-rule="evenodd" clip-rule="evenodd" d="M40.444 15c0-7.249 6.036-13.125 13.481-13.125h1.926v7.5h-1.926c-3.19 0-5.777 2.518-5.777 5.625v.938C48.148 23.703 41.68 30 33.703 30h-.963v-7.5h.963c3.723 0 6.74-2.938 6.74-6.563V15z"/><path d="M130 2.813c0 1.553-1.293 2.812-2.889 2.812-1.595 0-2.888-1.26-2.888-2.813 0-1.553 1.293-2.812 2.888-2.812C128.707 0 130 1.26 130 2.813zM94.938 30l3.676-14.986 2.733 9.015c1.629 5.378 9.453 5.378 11.083 0l2.732-9.015L118.838 30h7.92l-5.78-23.565c-1.374-5.605-9.486-5.812-11.161-.286l-2.929 9.663-2.929-9.663C102.284.623 94.172.83 92.798 6.435L87.018 30h7.92z"/></g><defs><clipPath id="clip0_522_18548"><path fill="#fff" d="M0 0h130v30H0z"/></clipPath></defs></svg>