<svg width="100" height="52" fill="none" xmlns="http://www.w3.org/2000/svg"><path d="M2.586 29.767h2.833v13.89H2.586v-13.89zm4.474 9.131a5.043 5.043 0 115.043 5.033 4.984 4.984 0 01-5.042-5.033zm7.234 0a2.19 2.19 0 10-2.19 2.247 2.133 2.133 0 002.19-2.247z" fill="#394149"/><path d="M28.535 34.139v9.046c0 3.201-2.502 4.551-5.033 4.551a4.863 4.863 0 01-4.504-2.304l2.436-1.407a2.172 2.172 0 002.125 1.2 1.887 1.887 0 002.19-2.04v-.878a3.36 3.36 0 01-2.775 1.237 4.835 4.835 0 010-9.67 3.39 3.39 0 012.776 1.237v-.944l2.785-.029zm-2.785 4.57a2.304 2.304 0 10-2.304 2.21 2.153 2.153 0 002.304-2.21zm4.418.189a5.043 5.043 0 115.043 5.033 4.985 4.985 0 01-5.043-5.033zm7.234 0a2.191 2.191 0 10-2.191 2.247 2.134 2.134 0 002.172-2.247h.019zm4.164-7.309a1.719 1.719 0 111.719 1.719 1.728 1.728 0 01-1.719-1.719zm.293 2.55h2.833v9.518h-2.833V34.14zm15.185 4.759a4.78 4.78 0 01-4.542 5.033 3.617 3.617 0 01-2.833-1.161v4.721h-2.833V34.14h2.833v.897a3.617 3.617 0 012.833-1.162 4.777 4.777 0 014.542 5.024zm-2.833 0a2.266 2.266 0 10-2.323 2.323 2.172 2.172 0 002.304-2.323h.019zm11.653 1.907c0 2.191-1.89 3.126-3.967 3.126a4.174 4.174 0 01-4.088-2.266l2.474-1.407a1.567 1.567 0 001.614 1.123c.69 0 1.03-.217 1.03-.595 0-1.048-4.722-.49-4.722-3.777 0-2.077 1.757-3.125 3.777-3.125a4.183 4.183 0 013.721 2.04l-2.484 1.303a1.407 1.407 0 00-1.284-.841c-.49 0-.793.189-.793.538.038 1.086 4.721.36 4.721 3.881zm10.424-6.666v9.518h-2.833v-.887a3.258 3.258 0 01-2.72 1.161c-1.888 0-3.56-1.37-3.56-3.947v-5.846h2.834v5.43a1.568 1.568 0 001.709 1.729c1.039 0 1.766-.605 1.766-1.955v-5.203h2.804zm16.375 3.682v5.836H89.83v-5.59c0-.944-.463-1.568-1.37-1.568-.906 0-1.491.67-1.491 1.794v5.364h-2.833v-5.59c0-.944-.453-1.568-1.37-1.568-.915 0-1.482.67-1.482 1.794v5.364h-2.833V34.14h2.833v.878a2.926 2.926 0 012.55-1.143 2.833 2.833 0 012.493 1.256 3.135 3.135 0 012.757-1.256c2.153 0 3.579 1.568 3.579 3.947zm2.417-3.739a2.115 2.115 0 100-4.23 2.115 2.115 0 000 4.23zM34.644 22.561c5.471 0 9.906-4.434 9.906-9.905 0-5.471-4.435-9.906-9.906-9.906-5.47 0-9.905 4.435-9.905 9.906 0 5.47 4.434 9.905 9.905 9.905zm22.145 0c5.47 0 9.905-4.434 9.905-9.905 0-5.471-4.435-9.906-9.905-9.906-5.471 0-9.906 4.435-9.906 9.906 0 5.47 4.435 9.905 9.906 9.905zM22.406 2.75H2.604v19.802h19.802V2.75z" fill="#394149"/></svg>