<svg width="132" height="41" fill="none" xmlns="http://www.w3.org/2000/svg"><path d="M23.23 11.64h2v13.92h6v2h-8V11.64zm14.23 0a6 6 0 110 12 6 6 0 010-12zm0 10a4 4 0 10-4-4 4 4 0 004 3.98v.02zm-4 3.94h8v2h-8v-2zm25.6 2h-2v-1.43a7.69 7.69 0 01-4.4 1.39 8 8 0 116-13.23l-1.47 1.31a5.999 5.999 0 10-4.46 10 5.77 5.77 0 004.38-2h-5.4v-2h7.37l-.02 5.96zm7.36-15.9a6 6 0 11-6 6 6 6 0 016.02-6.04l-.02.04zm0 10a4 4 0 10-4-4 4 4 0 004.02 3.94l-.02.06zm-4 3.94h8v2h-8v-2zm12.13-13.98h2v15.9h-2v-15.9zm4.77 0h2c.104-.01.207-.01.31 0a6 6 0 110 11.93h-.31v4h-2V11.64zm2 2v7.91h.31a4 4 0 100-7.93 1.467 1.467 0 00-.32.07l.01-.05zm14.41-.85l-1.48 1.17a1.94 1.94 0 00-3.33 1.13v.16c0 .88.61 1.47 1.8 1.55 4.58.28 6.68 2.43 6.68 5.27v.18a5.9 5.9 0 01-10.17 3.42l1.53-1.18a3.6 3.6 0 002.8 1.14 3.74 3.74 0 003.92-3.38v-.14c0-2.67-2.62-3.16-4.89-3.38-2.1-.2-3.61-1.51-3.61-3.4v-.08a3.85 3.85 0 013.93-3.56 3.74 3.74 0 012.81 1.15l.01-.05zm11.5 12.72c2.49 0 4.46-2.69 4.46-6v-8h2v8c0 4.4-2.88 7.95-6.42 7.95s-6.42-3.55-6.42-7.95v-8h2v8c-.08 3.36 1.89 6.05 4.37 6.05l.01-.05zm21.81 2h-2v-9.9l-4.61 6-4.61-6v9.93h-2v-15.9l6.6 8.69 6.6-8.69.02 15.87zM13.63 9.25a5.44 5.44 0 10-10.88 0V25.7l4.48 3.21v7.82h1.92v-7.82l4.48-3.21V9.25zm-1.92 9.2l-2.56 2.56v-2.4l2.56-2.56v2.4zm-7-2.4l2.56 2.56v2.4l-2.56-2.56v-2.4zm7-2.72l-3.52 3.52-3.52-3.6v-2.4l3.52 3.52 3.52-3.52v2.48zm-3.52-7.6a3.54 3.54 0 013.4 2.61l-3.4 3.39-3.4-3.39a3.54 3.54 0 013.4-2.65v.04zm-3.52 19v-3.6l2.56 2.56v2.86l-2.56-1.82zm4.48 1.83v-2.87l2.56-2.56v3.59l-2.56 1.84z" fill="#394149"/></svg>