<svg width="330" height="542" fill="none" xmlns="http://www.w3.org/2000/svg"><g clip-path="url(#clip0_522_37311)"><path fill="#F9F9F9" d="M0 541.791V0h330v541.791z"/><path stroke="#DCC7B3" stroke-width="3.774" d="M114.8 271.166l50.252-50.252 50.252 50.252-50.252 50.252z"/><path d="M164.155 448.192L31.538 315.575l175.745-175.401-55.682-55.536m162.153 381.883L208.426 361.194l92.579-92.234-88.567-88.567L313.754 79.077" stroke="#DCC7B3" stroke-width="3.774"/><path d="M54.718 67.961L259.27 272.514 54.718 477.066" stroke="#DCC7B3" stroke-width="3.774"/><path d="M14.571 506.354v-5.822h3.76v.913h-2.785v1.436h2.3v.913h-2.3v1.646h2.786v.914h-3.76zm4.488 0v-5.822h2.309c.393 0 .715.079.966.238.253.156.44.357.562.603.124.245.186.498.186.76 0 .32-.077.593-.23.816a1.107 1.107 0 01-.619.453v-.202c.367.084.644.257.833.522.191.264.287.564.287.901 0 .345-.066.647-.198.906a1.418 1.418 0 01-.59.606c-.26.146-.58.219-.963.219H19.06zm.987-.918h1.435c.17 0 .322-.034.457-.101a.783.783 0 00.315-.291.84.84 0 00.117-.449.869.869 0 00-.1-.421.741.741 0 00-.296-.295.911.911 0 00-.465-.113h-1.463v1.67zm0-2.58h1.31c.14 0 .265-.027.376-.08a.626.626 0 00.262-.239.73.73 0 00.098-.388.703.703 0 00-.195-.506c-.129-.134-.31-.202-.541-.202h-1.31v1.415zm3.872 3.498v-5.822h2.406c.056 0 .129.002.218.008.089.002.171.01.247.024.336.051.614.163.832.335.222.173.385.391.49.655.107.262.161.553.161.874 0 .318-.053.609-.161.873a1.564 1.564 0 01-.494.651c-.218.173-.494.284-.828.336a4.095 4.095 0 01-.465.032h-1.432v2.034h-.974zm.974-2.944h1.391c.054 0 .115-.002.182-.008a.938.938 0 00.186-.032.74.74 0 00.38-.214.874.874 0 00.198-.348c.04-.13.06-.256.06-.38s-.02-.251-.06-.38a.862.862 0 00-.198-.352.732.732 0 00-.38-.214.816.816 0 00-.186-.029 2.503 2.503 0 00-.182-.008h-1.39v1.965zm6.41 3.065c-.582 0-1.08-.127-1.496-.38a2.54 2.54 0 01-.958-1.067c-.221-.456-.332-.984-.332-1.585s.11-1.13.332-1.585c.224-.456.543-.81.958-1.064.415-.256.914-.384 1.496-.384s1.081.128 1.496.384c.418.254.737.608.958 1.064.224.455.336.984.336 1.585s-.112 1.129-.336 1.585c-.22.455-.54.811-.958 1.067-.415.253-.914.38-1.496.38zm0-.918c.391.003.716-.083.975-.259.261-.175.456-.421.586-.739.132-.318.198-.69.198-1.116 0-.426-.066-.796-.198-1.108a1.579 1.579 0 00-.586-.736c-.26-.175-.584-.266-.975-.271-.39-.003-.715.084-.974.259a1.614 1.614 0 00-.587.74c-.129.318-.194.69-.194 1.116 0 .426.065.796.194 1.112.13.312.324.556.583.731.261.176.587.266.978.271zm3.352.797v-5.822h4.719v5.822h-.975v-4.909h-2.77v4.909h-.974zm5.205 0l1.835-5.822h1.428l1.835 5.822h-1.002l-1.666-5.224h.218l-1.645 5.224h-1.003zm1.023-1.262v-.909h3.056v.909h-3.056zM15.46 44.33v-5.823h2.308c.394 0 .716.08.966.239.254.156.441.357.562.602.124.245.186.499.186.76 0 .321-.076.593-.23.817a1.107 1.107 0 01-.619.453v-.202c.367.083.645.257.833.521.192.264.287.565.287.902 0 .345-.066.647-.198.906a1.422 1.422 0 01-.59.606c-.259.146-.58.218-.962.218h-2.544zm.986-.919h1.435c.17 0 .322-.033.457-.1a.784.784 0 00.316-.292.838.838 0 00.117-.448.866.866 0 00-.101-.42.74.74 0 00-.295-.296.907.907 0 00-.465-.113h-1.464v1.67zm0-2.579h1.31c.14 0 .265-.027.376-.08a.624.624 0 00.263-.24.727.727 0 00.097-.388.7.7 0 00-.194-.505c-.13-.135-.31-.202-.542-.202h-1.31v1.415zm6.335 3.619c-.583 0-1.081-.127-1.496-.38a2.54 2.54 0 01-.959-1.068c-.22-.455-.331-.984-.331-1.585 0-.6.11-1.13.331-1.585a2.51 2.51 0 01.959-1.063c.415-.256.913-.384 1.496-.384.582 0 1.08.128 1.496.384.417.253.737.608.958 1.063.224.456.335.984.335 1.585s-.111 1.13-.335 1.585c-.221.456-.54.812-.958 1.068-.416.253-.914.38-1.496.38zm0-.918c.39.002.715-.084.974-.259a1.58 1.58 0 00.586-.74c.132-.318.198-.69.198-1.116 0-.426-.066-.795-.198-1.108a1.582 1.582 0 00-.586-.736c-.259-.175-.584-.265-.974-.27-.391-.003-.716.083-.975.258a1.614 1.614 0 00-.586.74c-.13.318-.194.69-.194 1.116 0 .426.064.797.194 1.112.13.313.323.557.582.732.262.175.588.265.979.27zm5.814.918c-.582 0-1.081-.127-1.496-.38a2.54 2.54 0 01-.958-1.068c-.221-.455-.332-.984-.332-1.585 0-.6.11-1.13.332-1.585.223-.455.543-.81.958-1.063.415-.256.914-.384 1.496-.384.671 0 1.23.168 1.678.505.447.334.761.786.942 1.355l-.983.27c-.113-.38-.305-.676-.578-.889-.272-.216-.625-.323-1.06-.323-.39 0-.716.087-.978.262a1.615 1.615 0 00-.586.74c-.13.316-.195.686-.198 1.112 0 .426.065.798.194 1.116.132.316.329.56.59.736.262.175.588.263.979.263.434 0 .787-.108 1.06-.324.271-.215.464-.512.577-.89l.983.272a2.658 2.658 0 01-.942 1.358c-.448.334-1.007.502-1.678.502zm4.664-.122v-4.908h-1.884v-.914h4.743v.914h-1.885v4.908h-.974zm5.725.122c-.583 0-1.081-.127-1.496-.38a2.54 2.54 0 01-.959-1.068c-.22-.455-.331-.984-.331-1.585 0-.6.11-1.13.331-1.585.224-.455.544-.81.959-1.063.415-.256.913-.384 1.496-.384.582 0 1.08.128 1.496.384.418.253.737.608.958 1.063.224.456.336.984.336 1.585s-.112 1.13-.336 1.585c-.221.456-.54.812-.958 1.068-.415.253-.914.38-1.496.38zm0-.918c.39.002.715-.084.974-.259a1.58 1.58 0 00.586-.74c.133-.318.199-.69.199-1.116 0-.426-.067-.795-.199-1.108a1.582 1.582 0 00-.586-.736c-.259-.175-.583-.265-.974-.27-.391-.003-.716.083-.975.258a1.614 1.614 0 00-.586.74c-.13.318-.194.69-.194 1.116 0 .426.065.797.194 1.112.13.313.323.557.582.732.262.175.588.265.979.27zm3.352.796v-5.822h.974v2.701l2.325-2.7h1.197l-2.503 2.854 2.673 2.967h-1.238l-2.454-2.717v2.717h-.974zm246.456 462.146c-.41 0-.768-.059-1.075-.178a2.5 2.5 0 01-.769-.465 2.314 2.314 0 01-.473-.602l.833-.566a1.436 1.436 0 00.773.764c.202.086.452.129.752.129.288 0 .524-.043.707-.129a.912.912 0 00.404-.34.848.848 0 00.13-.457c0-.205-.057-.362-.17-.473a.903.903 0 00-.445-.234 2.659 2.659 0 00-.586-.077 47.826 47.826 0 01-.574-.016h-.077v-.922h.372l.19-.008c.307-.014.559-.085.756-.214a.64.64 0 00.299-.575.684.684 0 00-.279-.578c-.183-.14-.427-.21-.731-.21a1.48 1.48 0 00-.757.19 1.425 1.425 0 00-.489.449l-.683-.696c.197-.24.464-.442.8-.606.34-.167.726-.251 1.157-.251.253 0 .5.034.74.101.24.065.455.165.647.3.191.134.343.307.457.517.113.21.169.461.169.752 0 .267-.051.514-.153.74-.1.224-.24.407-.421.55.256.102.454.259.595.469.142.21.214.476.214.796 0 .378-.103.704-.307.979a2.002 2.002 0 01-.833.639 2.97 2.97 0 01-1.173.222zm2.543-.121l1.835-5.822h1.428l1.835 5.822h-1.003l-1.665-5.224h.218l-1.646 5.224h-1.002zm1.023-1.262v-.909h3.056v.909h-3.056zm4.564 1.262v-5.822h4.718v5.822h-.974v-4.909h-2.77v4.909h-.974zm5.204 0l1.836-5.822h1.427l1.836 5.822h-1.003l-1.666-5.224h.219l-1.646 5.224h-1.003zm1.023-1.262v-.909h3.057v.909h-3.057zm4.506 2.232v-1.884a.768.768 0 00.473-.142.986.986 0 00.303-.392c.078-.167.139-.361.182-.582.043-.224.077-.461.101-.712a53.441 53.441 0 00.137-1.969l.073-1.12 3.797.009v4.908h.436v1.884h-.97v-.97h-3.558v.97h-.974zm1.516-1.884h2.575v-3.995l-1.932-.008a77.59 77.59 0 00-.049.793 28.383 28.383 0 01-.113 1.56c-.027.291-.057.534-.089.728-.03.194-.074.363-.134.506-.059.14-.145.279-.258.416zm-19.67-461.11l1.835-5.823h1.428l1.835 5.822h-1.002l-1.666-5.224h.218l-1.646 5.224h-1.002zm1.023-1.262v-.91h3.056v.91h-3.056zm6.468 1.383c-.41 0-.768-.06-1.076-.178a2.518 2.518 0 01-.768-.465 2.297 2.297 0 01-.473-.603l.833-.566a1.426 1.426 0 00.772.764c.202.087.453.13.752.13.289 0 .524-.043.708-.13a.912.912 0 00.404-.34.857.857 0 00.129-.456c0-.205-.056-.363-.169-.473a.912.912 0 00-.445-.235 2.691 2.691 0 00-.586-.076 124.448 124.448 0 01-.575-.017h-.076v-.921h.372l.19-.009c.307-.013.559-.084.756-.214a.64.64 0 00.299-.574.684.684 0 00-.279-.578c-.183-.14-.427-.21-.732-.21a1.477 1.477 0 00-1.245.638l-.683-.695a2.34 2.34 0 01.8-.607c.34-.167.725-.25 1.156-.25.254 0 .5.033.74.1.24.066.456.165.647.3.192.135.344.307.457.518.113.21.17.46.17.752 0 .267-.051.513-.154.74-.099.223-.24.407-.42.55.256.102.454.258.594.469.143.21.214.475.214.796 0 .377-.102.704-.307.978a1.995 1.995 0 01-.833.64 2.958 2.958 0 01-1.172.222zm7.621-.122h-.987v-4.104l-2.701 4.104h-.986v-5.822h.986v4.104l2.701-4.104h.987v5.822zm5.092 0h-.97v-2.033h-1.504l-.417-.037c-.496-.08-.864-.29-1.104-.63-.239-.343-.359-.751-.359-1.226 0-.32.054-.611.161-.873a1.58 1.58 0 01.49-.655c.218-.172.496-.284.832-.336a3.755 3.755 0 01.465-.032h2.406v5.822zm-3.344 0h-1.103l1.261-2.587.991.218-1.149 2.37zm2.374-2.943V39.42h-1.395c-.054 0-.115.003-.182.008a.797.797 0 00-.186.028.752.752 0 00-.384.215.872.872 0 00-.194.351c-.038.13-.057.256-.057.38s.019.251.057.38a.87.87 0 00.194.348.754.754 0 00.384.215.97.97 0 00.186.032c.067.005.128.008.182.008h1.395zM145.741 506.354v-5.822h4.719v5.822h-.975v-4.909h-2.769v4.909h-.975zm5.609 0v-5.822h2.406c.057 0 .129.002.218.008.089.002.172.01.247.024.337.051.615.163.833.335.221.173.384.391.489.655.108.262.162.553.162.874 0 .318-.054.609-.162.873a1.566 1.566 0 01-.493.651c-.218.173-.495.284-.829.336a4.082 4.082 0 01-.465.032h-1.431v2.034h-.975zm.975-2.944h1.391c.054 0 .114-.002.182-.008a.949.949 0 00.186-.032.743.743 0 00.38-.214.88.88 0 00.198-.348c.04-.13.06-.256.06-.38s-.02-.251-.06-.38a.868.868 0 00-.198-.352.736.736 0 00-.38-.214.823.823 0 00-.186-.029 2.518 2.518 0 00-.182-.008h-1.391v1.965zm6.41 3.065c-.583 0-1.081-.127-1.496-.38a2.545 2.545 0 01-.959-1.067c-.221-.456-.331-.984-.331-1.585s.11-1.13.331-1.585a2.52 2.52 0 01.959-1.064c.415-.256.913-.384 1.496-.384.582 0 1.081.128 1.496.384.417.254.737.608.958 1.064.224.455.335.984.335 1.585s-.111 1.129-.335 1.585a2.51 2.51 0 01-.958 1.067c-.415.253-.914.38-1.496.38zm0-.918c.391.003.715-.083.974-.259.262-.175.457-.421.586-.739.132-.318.198-.69.198-1.116 0-.426-.066-.796-.198-1.108a1.573 1.573 0 00-.586-.736c-.259-.175-.583-.266-.974-.271-.391-.003-.716.084-.975.259a1.611 1.611 0 00-.586.74c-.129.318-.194.69-.194 1.116 0 .426.065.796.194 1.112.129.312.323.556.582.731.262.176.588.266.979.271zm3.352.797v-5.822h.974v4.908h1.799v-4.908h.975v4.908h1.803v-4.908h.97v5.822h-6.521zm7.005 0v-.817a.938.938 0 00.327-.028.453.453 0 00.223-.166c.062-.084.116-.201.161-.352.046-.153.091-.346.134-.578.062-.332.113-.677.154-1.035a33.084 33.084 0 00.177-2.05c.017-.307.03-.573.041-.796h3.898v5.822h-.975v-4.909h-2.021l-.049.655a21.83 21.83 0 01-.069.825 21.224 21.224 0 01-.254 1.86c-.054.28-.119.532-.195.756a1.62 1.62 0 01-.303.55.905.905 0 01-.489.287c-.199.049-.453.04-.76-.024zm8.468.121c-.583 0-1.081-.127-1.496-.38a2.545 2.545 0 01-.959-1.067c-.221-.456-.331-.984-.331-1.585s.11-1.13.331-1.585a2.52 2.52 0 01.959-1.064c.415-.256.913-.384 1.496-.384.582 0 1.081.128 1.496.384.417.254.737.608.958 1.064.224.455.335.984.335 1.585s-.111 1.129-.335 1.585a2.51 2.51 0 01-.958 1.067c-.415.253-.914.38-1.496.38zm0-.918c.39.003.715-.083.974-.259.262-.175.457-.421.586-.739.132-.318.198-.69.198-1.116 0-.426-.066-.796-.198-1.108a1.573 1.573 0 00-.586-.736c-.259-.175-.584-.266-.974-.271-.391-.003-.716.084-.975.259a1.611 1.611 0 00-.586.74c-.129.318-.194.69-.194 1.116 0 .426.065.796.194 1.112.129.312.323.556.582.731.262.176.588.266.979.271zm3.352.797v-5.822h3.76v.913h-2.786v1.436h2.301v.913h-2.301v1.646h2.786v.914h-3.76zM147.498 44.33v-5.823h3.894v.914h-2.92v1.253h1.432c.054 0 .125.003.214.008.092.003.175.008.251.017.326.037.598.141.816.31.221.17.387.385.498.644.113.258.17.541.17.849 0 .307-.056.591-.166.853a1.585 1.585 0 01-.498.643c-.218.167-.491.27-.82.307a5.451 5.451 0 01-.247.02 7.47 7.47 0 01-.218.004h-2.406zm.974-.914h1.391a2.291 2.291 0 00.368-.033c.243-.051.41-.164.502-.34a1.146 1.146 0 000-1.084c-.092-.174-.259-.287-.502-.339a2.291 2.291 0 00-.368-.032h-1.391v1.828zm4.716.913l.768-1.568-2.009-4.254h1.1l1.419 3.227 1.463-3.227h1.04l-2.742 5.822h-1.039zm3.258.97v-1.883a.768.768 0 00.473-.142.982.982 0 00.304-.392c.078-.167.138-.361.182-.582.043-.224.076-.461.101-.712.029-.331.055-.656.076-.974a322.14 322.14 0 01.134-2.115l3.796.008v4.909h.437V45.3h-.97v-.97h-3.558v.97h-.975zm1.516-1.883h2.576V39.42l-1.933-.008c-.019.283-.035.547-.048.792-.011.243-.026.49-.045.74-.016.25-.039.524-.068.82-.027.292-.057.535-.089.729-.03.194-.074.362-.134.505a1.67 1.67 0 01-.259.417zm5.402.913l.768-1.568-2.009-4.254h1.099l1.419 3.227 1.464-3.227h1.039l-2.741 5.822h-1.039zm10.332.918v-.918h-.566v-.865h1.54v1.783h-.974zm-6.194-.918v-5.822h.974v4.909h1.799v-4.909h.975v4.909h1.803v-4.909h.971v5.822h-6.522zm7.575 0v-5.822h3.76v.914h-2.785v1.435h2.3v.914h-2.3v1.646h2.785v.913h-3.76zm4.488 0v-5.822h3.76v.914h-2.786v1.435h2.301v.914h-2.301v1.646h2.786v.913h-3.76z" fill="#575756"/></g><defs><clipPath id="clip0_522_37311"><path fill="#fff" transform="matrix(0 -1 1 0 0 541.791)" d="M0 0h541.791v330H0z"/></clipPath></defs></svg>