<svg width="1005" height="613" fill="none" xmlns="http://www.w3.org/2000/svg"><path fill="#F9F9F9" d="M0 0h1005v612.308H0z"/><path stroke="#DCC7B3" stroke-width="7" d="M502 212.95l93.215 93.215L502 399.38l-93.215-93.215z"/><path d="M173.622 304.5l245.999-246 325.362 326 103.016-103.288M139.622 582L335 386.622l171.091 171.73 164.288-164.288L858.315 582" stroke="#DCC7B3" stroke-width="7"/><path d="M878.935 101.5L499.499 480.936 120.063 101.5" stroke="#DCC7B3" stroke-width="7"/><path d="M51.05 61V50.2h6.975v1.695h-5.167v2.662h4.267v1.695h-4.267v3.053h5.167V61H51.05zm8.324 0V50.2h4.283c.73 0 1.327.147 1.792.442.47.29.818.663 1.043 1.118.23.455.345.925.345 1.41 0 .595-.143 1.1-.428 1.515-.28.415-.662.695-1.147.84v-.375c.68.155 1.195.477 1.545.968.355.49.532 1.047.532 1.672 0 .64-.122 1.2-.367 1.68a2.64 2.64 0 01-1.095 1.125c-.48.27-1.075.405-1.785.405h-4.718zm1.83-1.703h2.663c.315 0 .597-.062.847-.187.25-.13.445-.31.585-.54.145-.235.218-.513.218-.833 0-.29-.063-.55-.188-.78a1.373 1.373 0 00-.547-.547c-.24-.14-.528-.21-.863-.21h-2.715v3.097zm0-4.784h2.43c.26 0 .493-.05.698-.15.205-.1.367-.248.487-.443s.18-.435.18-.72a1.3 1.3 0 00-.36-.938c-.24-.25-.575-.374-1.005-.374h-2.43v2.625zM68.387 61V50.2h4.463c.105 0 .24.005.405.015.165.005.317.02.457.045.625.095 1.14.303 1.545.623.41.32.713.724.908 1.214.2.486.3 1.026.3 1.62 0 .59-.1 1.13-.3 1.62-.2.485-.505.888-.915 1.208-.405.32-.918.527-1.538.622a6.889 6.889 0 01-.862.06h-2.655V61h-1.808zm1.808-5.46h2.58c.1 0 .212-.005.337-.015.125-.01.24-.03.345-.06.3-.075.535-.208.705-.398a1.6 1.6 0 00.368-.645c.075-.24.112-.474.112-.704 0-.23-.037-.466-.112-.706a1.6 1.6 0 00-.368-.652c-.17-.19-.405-.322-.705-.398a1.468 1.468 0 00-.345-.052 4.272 4.272 0 00-.337-.015h-2.58v3.645zm11.89 5.685c-1.08 0-2.005-.235-2.775-.705a4.71 4.71 0 01-1.778-1.98c-.41-.845-.615-1.825-.615-2.94s.205-2.095.615-2.94a4.661 4.661 0 011.778-1.972c.77-.476 1.695-.713 2.775-.713 1.08 0 2.005.237 2.775.712a4.598 4.598 0 011.777 1.973c.415.845.623 1.825.623 2.94s-.208 2.095-.623 2.94a4.646 4.646 0 01-1.777 1.98c-.77.47-1.695.705-2.775.705zm0-1.703c.725.006 1.327-.154 1.807-.48.485-.325.848-.782 1.088-1.372.245-.59.367-1.28.367-2.07 0-.79-.122-1.475-.367-2.055-.24-.585-.603-1.04-1.088-1.365-.48-.325-1.082-.492-1.807-.502-.725-.005-1.328.155-1.808.48-.48.325-.842.782-1.087 1.372-.24.59-.36 1.28-.36 2.07 0 .79.12 1.477.36 2.063.24.58.6 1.032 1.08 1.357.485.325 1.09.492 1.815.502zM88.303 61V50.2h8.752V61h-1.807v-9.105H90.11V61h-1.807zm9.654 0l3.405-10.8h2.648l3.405 10.8h-1.86l-3.09-9.69h.405L99.817 61h-1.86zm1.898-2.34v-1.688h5.67v1.688h-5.67zM896.484 61V50.2h4.282c.73 0 1.328.147 1.793.442.47.29.817.663 1.042 1.118.23.455.345.925.345 1.41 0 .595-.142 1.1-.427 1.515-.28.415-.663.695-1.148.84v-.375c.68.155 1.195.477 1.545.968a2.78 2.78 0 01.533 1.672c0 .64-.123 1.2-.368 1.68a2.64 2.64 0 01-1.095 1.125c-.48.27-1.075.405-1.785.405h-4.717zm1.83-1.703h2.662c.315 0 .598-.062.848-.187.25-.13.445-.31.585-.54.145-.235.217-.513.217-.833 0-.29-.062-.55-.187-.78a1.375 1.375 0 00-.548-.547c-.24-.14-.527-.21-.862-.21h-2.715v3.097zm0-4.784h2.43c.26 0 .492-.05.697-.15.205-.1.368-.248.488-.443s.18-.435.18-.72a1.3 1.3 0 00-.36-.938c-.24-.25-.575-.374-1.005-.374h-2.43v2.625zm11.75 6.712c-1.08 0-2.005-.235-2.775-.705a4.712 4.712 0 01-1.778-1.98c-.41-.845-.615-1.825-.615-2.94s.205-2.095.615-2.94a4.662 4.662 0 011.778-1.972c.77-.476 1.695-.713 2.775-.713 1.08 0 2.005.237 2.775.712a4.597 4.597 0 011.777 1.973c.415.845.623 1.825.623 2.94s-.208 2.095-.623 2.94a4.645 4.645 0 01-1.777 1.98c-.77.47-1.695.705-2.775.705zm0-1.703c.725.006 1.327-.154 1.807-.48.485-.325.848-.782 1.088-1.372.245-.59.367-1.28.367-2.07 0-.79-.122-1.475-.367-2.055-.24-.585-.603-1.04-1.088-1.365-.48-.325-1.082-.492-1.807-.502-.725-.005-1.328.155-1.808.48-.48.325-.842.782-1.087 1.372-.24.59-.36 1.28-.36 2.07 0 .79.12 1.477.36 2.063.24.58.6 1.032 1.08 1.357.485.325 1.09.492 1.815.502zm10.785 1.703c-1.08 0-2.005-.235-2.775-.705a4.71 4.71 0 01-1.777-1.98c-.41-.845-.615-1.825-.615-2.94s.205-2.095.615-2.94a4.66 4.66 0 011.777-1.972c.77-.476 1.695-.713 2.775-.713 1.245 0 2.283.313 3.113.938.83.62 1.412 1.457 1.747 2.512l-1.822.503c-.21-.706-.568-1.255-1.073-1.65-.505-.4-1.16-.6-1.965-.6-.725 0-1.33.162-1.815.487-.48.325-.842.782-1.087 1.373-.24.585-.363 1.272-.368 2.062 0 .79.12 1.48.36 2.07.245.585.61 1.04 1.095 1.365.485.325 1.09.488 1.815.488.805 0 1.46-.2 1.965-.6.505-.4.863-.95 1.073-1.65l1.822.502c-.335 1.055-.917 1.895-1.747 2.52-.83.62-1.868.93-3.113.93zm8.652-.225v-9.105h-3.495V50.2h8.798v1.695h-3.495V61h-1.808zm10.619.225c-1.08 0-2.005-.235-2.775-.705a4.71 4.71 0 01-1.777-1.98c-.41-.845-.615-1.825-.615-2.94s.205-2.095.615-2.94a4.66 4.66 0 011.777-1.972c.77-.476 1.695-.713 2.775-.713 1.08 0 2.005.237 2.775.712a4.6 4.6 0 011.778 1.973c.415.845.622 1.825.622 2.94s-.207 2.095-.622 2.94a4.647 4.647 0 01-1.778 1.98c-.77.47-1.695.705-2.775.705zm0-1.703c.725.006 1.328-.154 1.808-.48.485-.325.847-.782 1.087-1.372.245-.59.368-1.28.368-2.07 0-.79-.123-1.475-.368-2.055-.24-.585-.602-1.04-1.087-1.365-.48-.325-1.083-.492-1.808-.502-.725-.005-1.327.155-1.807.48-.48.325-.843.782-1.088 1.372-.24.59-.36 1.28-.36 2.07 0 .79.12 1.477.36 2.063.24.58.6 1.032 1.08 1.357.485.325 1.09.492 1.815.502zM946.338 61V50.2h1.808v5.01l4.312-5.01h2.22l-4.642 5.295L954.993 61h-2.295l-4.552-5.04V61h-1.808zM54.875 562.225c-.76 0-1.425-.11-1.995-.33a4.652 4.652 0 01-1.425-.863 4.246 4.246 0 01-.877-1.117l1.544-1.05c.12.275.295.54.526.795.23.25.532.457.907.622.375.16.84.24 1.395.24.535 0 .972-.08 1.313-.24.34-.16.59-.37.75-.63.16-.26.24-.542.24-.847 0-.38-.105-.673-.316-.878a1.68 1.68 0 00-.825-.435 5.012 5.012 0 00-1.087-.142l-.758-.023a11.294 11.294 0 00-.307-.007h-.142v-1.71h.69c.145-.005.262-.01.352-.015.57-.025 1.038-.158 1.403-.398.37-.24.555-.595.555-1.065 0-.455-.173-.812-.518-1.072-.34-.26-.792-.39-1.357-.39-.53 0-.998.117-1.403.352-.4.235-.703.513-.907.833l-1.268-1.29c.365-.445.86-.82 1.485-1.125.63-.31 1.345-.465 2.145-.465.47 0 .928.062 1.373.187.444.12.844.305 1.2.555.355.25.637.57.847.96.21.39.315.855.315 1.395 0 .495-.095.953-.285 1.373a2.653 2.653 0 01-.78 1.02c.475.19.843.48 1.102.87.265.39.398.882.398 1.477 0 .7-.19 1.305-.57 1.815-.38.51-.895.905-1.545 1.185-.645.276-1.37.413-2.175.413zm4.716-.225l3.405-10.8h2.648l3.405 10.8h-1.86l-3.09-9.69h.405L61.45 562h-1.86zm1.898-2.34v-1.688h5.67v1.688h-5.67zm8.466 2.34v-10.8h8.752V562H76.9v-9.105h-5.138V562h-1.807zm9.654 0l3.405-10.8h2.648l3.405 10.8h-1.86l-3.09-9.69h.405L81.469 562h-1.86zm1.898-2.34v-1.688h5.67v1.688h-5.67zm8.357 4.14v-3.495c.35 0 .642-.088.877-.263.235-.175.423-.417.563-.727.145-.31.257-.67.337-1.08.08-.415.143-.855.188-1.32a84.4 84.4 0 00.142-1.808c.04-.595.078-1.21.113-1.845.04-.64.085-1.332.135-2.077l7.042.015v9.105h.81v3.495h-1.8V562h-6.6v1.8h-1.807zm2.812-3.495h4.778v-7.41l-3.585-.015a126.6 126.6 0 00-.09 1.47c-.02.45-.048.907-.083 1.372-.03.465-.072.973-.127 1.523-.05.54-.105.99-.165 1.35-.055.36-.138.672-.248.937-.11.26-.27.518-.48.773zM916.469 562l3.405-10.8h2.648l3.405 10.8h-1.86l-3.09-9.69h.405l-3.053 9.69h-1.86zm1.898-2.34v-1.688h5.67v1.688h-5.67zm11.998 2.565c-.76 0-1.425-.11-1.995-.33a4.652 4.652 0 01-1.425-.863 4.248 4.248 0 01-.878-1.117l1.545-1.05c.12.275.295.54.525.795.23.25.533.457.908.622.375.16.84.24 1.395.24.535 0 .972-.08 1.312-.24.34-.16.59-.37.75-.63.16-.26.24-.542.24-.847 0-.38-.105-.673-.315-.878a1.68 1.68 0 00-.825-.435 5.007 5.007 0 00-1.087-.142l-.758-.023a11.271 11.271 0 00-.307-.007h-.143v-1.71h.69c.145-.005.263-.01.353-.015.57-.025 1.037-.158 1.402-.398.37-.24.555-.595.555-1.065 0-.455-.172-.812-.517-1.072-.34-.26-.793-.39-1.358-.39-.53 0-.997.117-1.402.352-.4.235-.703.513-.908.833l-1.267-1.29c.365-.445.86-.82 1.485-1.125.63-.31 1.345-.465 2.145-.465.47 0 .927.062 1.372.187.445.12.845.305 1.2.555.355.25.638.57.848.96.21.39.315.855.315 1.395 0 .495-.095.953-.285 1.373a2.653 2.653 0 01-.78 1.02c.475.19.842.48 1.102.87.265.39.398.882.398 1.477 0 .7-.19 1.305-.57 1.815-.38.51-.895.905-1.545 1.185-.645.276-1.37.413-2.175.413zm14.136-.225h-1.83v-7.613l-5.01 7.613h-1.83v-10.8h1.83v7.612l5.01-7.612h1.83V562zm9.447 0h-1.8v-3.773h-2.79l-.773-.067c-.92-.15-1.602-.54-2.047-1.17-.445-.635-.668-1.393-.668-2.273 0-.595.1-1.135.3-1.62.2-.49.503-.895.908-1.215.405-.32.92-.527 1.545-.622.145-.025.297-.04.457-.045.165-.01.3-.015.405-.015h4.463V562zm-6.203 0h-2.047l2.34-4.8 1.837.405-2.13 4.395zm4.403-5.46v-3.645h-2.588c-.1 0-.212.005-.337.015-.125.005-.24.022-.345.052-.3.075-.538.208-.713.398-.17.19-.29.407-.36.652a2.51 2.51 0 00-.105.705c0 .23.035.465.105.705.07.24.19.455.36.645.175.19.413.323.713.398.105.03.22.05.345.06.125.01.237.015.337.015h2.588zM51.05 312v-10.8h8.753V312h-1.808v-9.105h-5.137V312H51.05zm10.405 0v-10.8h4.462c.105 0 .24.005.405.015.165.005.317.02.457.045.626.095 1.14.302 1.546.622.41.32.712.725.907 1.215.2.485.3 1.025.3 1.62 0 .59-.1 1.13-.3 1.62-.2.485-.505.888-.915 1.208-.405.32-.917.527-1.537.622a6.1 6.1 0 01-.466.046 7.745 7.745 0 01-.397.014h-2.655V312h-1.807zm1.807-5.46h2.58c.1 0 .213-.005.338-.015.124-.01.24-.03.344-.06.3-.075.535-.208.706-.398.174-.19.297-.405.367-.645.075-.24.113-.475.113-.705 0-.23-.038-.465-.113-.705a1.598 1.598 0 00-.367-.652c-.17-.19-.406-.323-.706-.398a1.468 1.468 0 00-.344-.052 4.272 4.272 0 00-.338-.015h-2.58v3.645zm11.89 5.685c-1.08 0-2.005-.235-2.775-.705a4.71 4.71 0 01-1.777-1.98c-.41-.845-.615-1.825-.615-2.94s.205-2.095.615-2.94a4.663 4.663 0 011.777-1.973c.77-.475 1.695-.712 2.775-.712 1.08 0 2.005.237 2.775.712a4.6 4.6 0 011.778 1.973c.415.845.622 1.825.622 2.94s-.207 2.095-.622 2.94a4.646 4.646 0 01-1.778 1.98c-.77.47-1.695.705-2.775.705zm0-1.703c.725.005 1.328-.155 1.808-.48.485-.325.847-.782 1.087-1.372.245-.59.368-1.28.368-2.07 0-.79-.123-1.475-.368-2.055-.24-.585-.602-1.04-1.087-1.365-.48-.325-1.083-.493-1.808-.503-.725-.005-1.327.155-1.807.48-.48.325-.843.783-1.088 1.373-.24.59-.36 1.28-.36 2.07 0 .79.12 1.477.36 2.062.24.58.6 1.033 1.08 1.358.485.325 1.09.492 1.815.502zM81.37 312v-10.8h1.807v9.105h3.338V301.2h1.807v9.105h3.345V301.2h1.8V312H81.37zm12.994 0v-1.515c.24.015.443-.003.608-.053a.828.828 0 00.412-.307c.115-.155.215-.373.3-.653.085-.285.168-.642.248-1.072.115-.615.21-1.255.285-1.92a58.754 58.754 0 00.33-3.803c.03-.57.055-1.062.075-1.477h7.23V312h-1.808v-9.105h-3.75l-.09 1.215c-.03.47-.072.98-.127 1.53-.05.55-.115 1.12-.195 1.71-.075.59-.168 1.17-.278 1.74-.1.52-.22.987-.36 1.402-.14.41-.327.75-.562 1.02-.23.265-.533.443-.908.533-.37.09-.84.075-1.41-.045zm15.708.225c-1.08 0-2.005-.235-2.775-.705a4.712 4.712 0 01-1.778-1.98c-.41-.845-.615-1.825-.615-2.94s.205-2.095.615-2.94a4.664 4.664 0 011.778-1.973c.77-.475 1.695-.712 2.775-.712 1.08 0 2.005.237 2.775.712a4.598 4.598 0 011.777 1.973c.415.845.623 1.825.623 2.94s-.208 2.095-.623 2.94a4.645 4.645 0 01-1.777 1.98c-.77.47-1.695.705-2.775.705zm0-1.703c.725.005 1.327-.155 1.807-.48.485-.325.848-.782 1.088-1.372.245-.59.367-1.28.367-2.07 0-.79-.122-1.475-.367-2.055-.24-.585-.603-1.04-1.088-1.365-.48-.325-1.082-.493-1.807-.503-.725-.005-1.328.155-1.808.48-.48.325-.842.783-1.087 1.373-.24.59-.36 1.28-.36 2.07 0 .79.12 1.477.36 2.062.24.58.6 1.033 1.08 1.358.485.325 1.09.492 1.815.502zm6.217 1.478v-10.8h6.975v1.695h-5.167v2.662h4.267v1.695h-4.267v3.053h5.167V312h-6.975zm771.504 0v-10.8h7.222v1.695H889.6v2.325h2.655c.1 0 .233.005.398.015.17.005.325.015.465.03.605.07 1.11.262 1.515.577.41.315.717.713.922 1.193.21.48.315 1.005.315 1.575a4.02 4.02 0 01-.307 1.582c-.205.48-.513.878-.923 1.193-.405.31-.912.5-1.522.57-.14.015-.293.027-.458.037-.165.005-.3.008-.405.008h-4.462zm1.807-1.695h2.58a4.284 4.284 0 00.683-.06c.45-.095.76-.305.93-.63.17-.325.255-.66.255-1.005 0-.35-.085-.685-.255-1.005-.17-.325-.48-.535-.93-.63a1.802 1.802 0 00-.345-.045 4.284 4.284 0 00-.338-.015h-2.58v3.39zm8.748 1.695l1.425-2.91-3.727-7.89h2.04l2.632 5.985 2.715-5.985h1.928l-5.085 10.8h-1.928zm6.044 1.8v-3.495c.35 0 .642-.088.877-.263.235-.175.423-.417.563-.727.145-.31.257-.67.337-1.08.08-.415.143-.855.188-1.32a84.35 84.35 0 00.142-1.808c.04-.595.078-1.21.113-1.845.04-.64.085-1.332.135-2.077l7.042.015v9.105h.81v3.495h-1.8V312h-6.6v1.8h-1.807zm2.812-3.495h4.778v-7.41l-3.585-.015a126.6 126.6 0 00-.09 1.47c-.02.45-.048.907-.083 1.372-.03.465-.072.973-.127 1.523-.05.54-.105.99-.165 1.35-.055.36-.138.672-.248.937-.11.26-.27.518-.48.773zM917.223 312l1.425-2.91-3.727-7.89h2.04l2.632 5.985 2.715-5.985h1.928l-5.085 10.8h-1.928zm19.166 1.703V312h-1.05v-1.605h2.858v3.308h-1.808zM924.899 312v-10.8h1.808v9.105h3.337V301.2h1.808v9.105h3.345V301.2h1.8V312h-12.098zm14.052 0v-10.8h6.975v1.695h-5.167v2.662h4.267v1.695h-4.267v3.053h5.167V312h-6.975zm8.325 0v-10.8h6.975v1.695h-5.168v2.662h4.268v1.695h-4.268v3.053h5.168V312h-6.975z" fill="#575756"/></svg>