<svg width="128" height="44" fill="none" xmlns="http://www.w3.org/2000/svg"><g clip-path="url(#clip0_2001_180)" fill="#1D1D1B"><path d="M64.642 31.848c-.422 0-.76-.068-1.047-.219-.287-.151-.49-.336-.625-.57a1.553 1.553 0 01-.202-.773c0-.32.067-.571.202-.79.136-.218.321-.369.54-.487a2.52 2.52 0 01.727-.252c.32-.067.642-.117 1.013-.167.355-.05.693-.084.997-.118.304-.034.523-.067.675-.084l-.152.1c.017-.637-.1-1.108-.354-1.41-.254-.319-.693-.47-1.318-.47-.456 0-.81.1-1.097.302-.288.202-.473.504-.575.924l-.456-.118c.119-.504.372-.873.744-1.142.371-.252.844-.386 1.418-.386.507 0 .912.1 1.25.302.338.202.557.47.675.823.051.135.085.303.102.487.017.185.034.37.034.555v3.358h-.389v-1.478l.203.017a1.997 1.997 0 01-.862 1.192 2.905 2.905 0 01-1.503.404zm-.016-.42a2.51 2.51 0 001.03-.202 1.7 1.7 0 00.726-.604c.186-.27.304-.588.355-.94.033-.186.033-.387.033-.589v-.453l.22.168c-.169.017-.422.034-.726.067-.304.034-.642.067-.98.1a7.35 7.35 0 00-.946.169c-.168.033-.337.1-.506.184a1.15 1.15 0 00-.44.37c-.118.151-.168.353-.168.604 0 .168.05.353.135.521.084.168.236.32.439.437.203.117.473.168.828.168zm4.864.268v-5.374h.388V27.6l-.135-.168c.05-.151.135-.286.22-.403.084-.118.168-.235.253-.302.152-.152.32-.252.523-.32.203-.067.406-.117.608-.134.203-.017.389 0 .54.05v.404a1.98 1.98 0 00-.709-.034 1.2 1.2 0 00-.692.352 1.48 1.48 0 00-.405.605c-.085.235-.135.47-.135.705-.017.252-.034.47-.034.689v2.653h-.422zm6.417.152c-.54 0-.98-.118-1.35-.353a2.177 2.177 0 01-.828-.991c-.186-.42-.287-.924-.304-1.478.017-.57.118-1.075.304-1.494a2.29 2.29 0 01.827-.991c.355-.235.81-.353 1.351-.353.507 0 .946.118 1.335.353.388.235.675.57.827.974l-.405.168a1.786 1.786 0 00-.693-.806c-.32-.202-.675-.286-1.08-.286-.457 0-.828.1-1.132.302a1.691 1.691 0 00-.659.857c-.135.37-.22.79-.236 1.26.017.721.186 1.31.523 1.763.338.436.845.655 1.504.655.388 0 .743-.084 1.047-.269.304-.185.54-.453.709-.806l.405.185c-.22.436-.523.755-.878.974-.338.218-.777.319-1.267.335zm4.223-.152v-7.154h.388v4.232h.034v2.94h-.422v-.018zm4.02 0v-2.838c0-.386-.035-.722-.119-.99a1.897 1.897 0 00-.355-.69 1.323 1.323 0 00-.557-.402 2.088 2.088 0 00-.743-.134c-.338 0-.608.05-.845.168a1.392 1.392 0 00-.557.47 2.15 2.15 0 00-.32.688 3.327 3.327 0 00-.102.823l-.389.017c0-.605.102-1.108.304-1.478.203-.37.473-.655.811-.823.338-.168.71-.252 1.098-.252.27 0 .523.034.76.118.236.084.439.185.608.336.169.15.338.319.456.52.118.202.22.454.287.706.068.268.101.554.101.873v2.922l-.439-.034zm2.82-6.532v-.639h.422v.639h-.422zm0 6.532v-5.374h.422v5.374h-.422zm2.314-4.954v-.42h3.394v.42h-3.394zm3.394 4.954a2.58 2.58 0 01-.793.067 1.922 1.922 0 01-.71-.184c-.203-.101-.355-.286-.473-.504a1.485 1.485 0 01-.135-.537c-.017-.185-.017-.387-.017-.622v-5.071h.422v5.642a.84.84 0 00.102.403.77.77 0 00.574.437c.27.05.591.05 1.013-.017l.017.386zm4.02.151c-.507 0-.946-.117-1.317-.335a2.167 2.167 0 01-.845-.974 3.706 3.706 0 01-.304-1.512c0-.588.101-1.091.304-1.511.203-.42.473-.756.844-.974.372-.219.811-.336 1.318-.336s.963.117 1.317.353c.372.235.642.57.845 1.007.202.437.287.974.287 1.595h-.456v-.134c-.017-.772-.203-1.36-.54-1.78-.338-.42-.828-.621-1.47-.621s-1.132.218-1.486.638c-.355.42-.524 1.007-.524 1.78 0 .772.17 1.36.524 1.78.354.42.844.638 1.486.638.44 0 .844-.1 1.182-.319.338-.218.608-.504.81-.907l.355.202a2.59 2.59 0 01-.928 1.058c-.389.252-.879.336-1.402.352zm-2.213-2.72v-.42h4.391v.42h-4.39zm8.935 2.721c-.541 0-.98-.118-1.351-.353a2.177 2.177 0 01-.828-.991c-.186-.42-.287-.924-.304-1.478.017-.57.118-1.075.304-1.494.186-.42.473-.756.828-.991.354-.235.81-.353 1.351-.353.506 0 .945.118 1.334.353.388.235.675.57.827.974l-.405.168a1.785 1.785 0 00-.692-.806c-.321-.202-.676-.286-1.081-.286-.456 0-.828.1-1.132.302a1.69 1.69 0 00-.658.857c-.136.37-.22.79-.237 1.26.017.721.186 1.31.524 1.763.337.436.844.655 1.503.655.388 0 .743-.084 1.047-.269a1.85 1.85 0 00.709-.806l.406.185a2.37 2.37 0 01-.879.974c-.337.218-.777.319-1.266.335zm3.614-5.106v-.42h3.395v.42h-3.395zm3.395 4.954a2.59 2.59 0 01-.794.067 1.919 1.919 0 01-.709-.184c-.203-.101-.355-.286-.473-.504a1.455 1.455 0 01-.135-.537c-.017-.185-.017-.387-.017-.622v-5.071h.422v5.642c0 .151.034.269.101.403a.77.77 0 00.574.437c.271.05.592.05 1.014-.017l.017.386zm4.087.118c-.271 0-.524-.034-.76-.118-.22-.084-.439-.184-.608-.336a1.907 1.907 0 01-.456-.52 2.888 2.888 0 01-.287-.705 3.52 3.52 0 01-.102-.874V26.34h.422v2.838c0 .387.034.706.119.991.084.286.202.52.354.706.152.184.338.319.558.403.219.083.473.134.743.134.338 0 .608-.05.844-.168.237-.118.422-.269.558-.47.135-.202.253-.42.32-.689a3.21 3.21 0 00.102-.823l.388-.016c0 .604-.101 1.108-.304 1.477-.202.37-.473.655-.81.823-.304.185-.676.269-1.081.269zm1.857-.118v-1.091h-.033v-4.282h.422v5.373h-.389zm2.787 0v-5.374h.389V27.6l-.135-.168c.05-.151.135-.286.219-.403.085-.118.169-.235.254-.302.152-.152.32-.252.523-.32.203-.067.405-.117.608-.134.203-.017.389 0 .541.05v.404a1.983 1.983 0 00-.71-.034 1.2 1.2 0 00-.692.352 1.48 1.48 0 00-.406.605c-.084.235-.135.47-.135.705-.017.252-.033.47-.033.689v2.653h-.423zm6.418.151c-.507 0-.946-.117-1.317-.335a2.167 2.167 0 01-.845-.974 3.72 3.72 0 01-.304-1.512c0-.588.102-1.091.304-1.511.203-.42.473-.756.845-.974.371-.219.81-.336 1.317-.336.507 0 .963.117 1.317.353.372.235.642.57.845 1.007.203.437.287.974.287 1.595h-.456v-.134c-.017-.772-.203-1.36-.54-1.78-.338-.42-.828-.621-1.47-.621s-1.131.218-1.486.638c-.355.42-.524 1.007-.524 1.78 0 .772.169 1.36.524 1.78.355.42.844.638 1.486.638.439 0 .845-.1 1.182-.319.338-.218.608-.504.811-.907l.355.202a2.6 2.6 0 01-.929 1.058c-.389.252-.878.336-1.402.352zm-2.195-2.72v-.42h4.391v.42h-4.391zM65.352 41.655c-.406 0-.777-.05-1.098-.168a2.3 2.3 0 01-.844-.52 1.84 1.84 0 01-.389-.622 2.624 2.624 0 01-.152-.722c0-.235.034-.47.102-.722.067-.235.185-.454.354-.655.118-.151.253-.269.405-.353.153-.084.304-.168.473-.235a4.872 4.872 0 01-.658-.773 1.565 1.565 0 01-.237-.873c0-.352.085-.655.254-.94.169-.286.388-.504.692-.655a1.96 1.96 0 01.524-.185 2.95 2.95 0 01.54-.05c.237 0 .473.033.726.084a1.9 1.9 0 01.946.571c.101.117.169.235.237.37l-.389.184a1.101 1.101 0 00-.422-.504 1.449 1.449 0 00-.49-.218 2.11 2.11 0 00-.557-.067c-.338 0-.642.067-.912.201a1.18 1.18 0 00-.507.487 1.407 1.407 0 00-.169.705c0 .236.034.42.102.571.067.152.185.32.337.504l.254.252c.084.084.185.168.287.252l2.584 2.401c.017-.1.034-.218.034-.302 0-.084.016-.184.016-.285l-.016-1.176h.456v.957a7.1 7.1 0 01-.034.723c-.034.167-.05.302-.085.403l.946.873-.287.302-.861-.806c-.068.134-.186.252-.321.386a3.291 3.291 0 01-.422.303c-.203.1-.423.184-.676.218-.253.033-.507.067-.743.084zm-.034-.42c.253 0 .473-.017.659-.05.185-.034.388-.101.557-.202.203-.134.355-.252.44-.353.084-.1.151-.184.202-.252l-2.635-2.384c-.169.05-.338.117-.49.201a1.541 1.541 0 00-.405.336 1.292 1.292 0 00-.253.504 2.233 2.233 0 00-.085.588c0 .201.034.386.102.57.067.186.152.337.287.471.185.201.422.353.709.437.287.084.608.134.912.134zm10.319.42c-.54 0-.98-.118-1.35-.353a2.177 2.177 0 01-.829-.99c-.185-.42-.287-.924-.303-1.479.016-.57.118-1.074.303-1.494.186-.42.473-.756.828-.991s.81-.353 1.351-.353c.507 0 .946.118 1.335.353.388.235.675.571.827.974l-.405.168a1.786 1.786 0 00-.693-.806c-.32-.202-.675-.286-1.08-.286-.457 0-.828.101-1.132.303a1.69 1.69 0 00-.659.856c-.135.37-.22.79-.236 1.26.017.722.185 1.31.523 1.763.338.437.845.655 1.503.655.389 0 .743-.084 1.047-.269.305-.184.54-.453.71-.806l.405.185c-.22.437-.523.756-.878.974-.338.218-.777.319-1.267.336zm6.249 0c-.54 0-.98-.118-1.351-.37a2.22 2.22 0 01-.828-1.007 3.721 3.721 0 01-.287-1.478c0-.554.102-1.058.287-1.478.186-.42.473-.756.845-.99.371-.236.81-.353 1.334-.353s.98.117 1.351.352c.372.235.642.571.828.991.186.42.287.907.287 1.461s-.101 1.058-.287 1.495a2.127 2.127 0 01-.845.99c-.371.236-.81.387-1.334.387zm0-.42c.676 0 1.182-.218 1.52-.672.338-.453.507-1.024.507-1.746s-.17-1.31-.507-1.747c-.338-.436-.844-.655-1.52-.655-.456 0-.828.101-1.132.303-.303.201-.523.487-.675.856-.152.37-.22.773-.22 1.243 0 .722.17 1.31.507 1.763.355.42.861.655 1.52.655zm4.56.269V36.13h.389v1.091h.033v4.283h-.422zm4.02 0v-2.838c0-.387-.034-.722-.118-.991a1.896 1.896 0 00-.355-.689 1.323 1.323 0 00-.557-.403 2.088 2.088 0 00-.744-.134c-.337 0-.608.05-.844.168a1.392 1.392 0 00-.557.47 2.15 2.15 0 00-.321.688 3.331 3.331 0 00-.102.823l-.388.017c0-.604.101-1.108.304-1.478.203-.37.473-.654.81-.822a2.45 2.45 0 011.098-.252c.27 0 .524.033.76.117.237.084.44.185.608.336.17.151.338.32.456.52a2.9 2.9 0 01.287.706c.068.269.102.554.102.873v2.922l-.44-.033zm4.695.134c-.608 0-1.115-.134-1.52-.386s-.659-.605-.743-1.058l.422-.084c.085.336.304.587.642.789.338.202.743.302 1.216.302s.878-.1 1.165-.319a.992.992 0 00.44-.856.873.873 0 00-.136-.487c-.084-.135-.253-.235-.507-.336-.253-.1-.624-.218-1.114-.353-.507-.134-.912-.268-1.2-.403-.286-.134-.49-.285-.59-.436a1.112 1.112 0 01-.17-.605 1.2 1.2 0 01.254-.756 1.6 1.6 0 01.71-.503 2.843 2.843 0 011.046-.185c.406 0 .76.067 1.065.201.32.135.574.32.776.555.203.235.304.503.338.806l-.422.084a1.324 1.324 0 00-.574-.89c-.321-.219-.727-.32-1.2-.32-.455 0-.81.084-1.097.27-.287.184-.422.436-.422.738 0 .168.05.32.152.437.1.117.27.235.506.335.237.101.575.202.997.303.54.134.962.268 1.266.42.304.134.507.302.642.487.118.184.186.42.186.688 0 .487-.186.873-.557 1.142-.44.286-.946.42-1.571.42zm6.249-.017a2.25 2.25 0 01-.76-.117c-.22-.084-.439-.185-.608-.336a1.914 1.914 0 01-.456-.52 2.945 2.945 0 01-.287-.706 3.545 3.545 0 01-.102-.873v-2.922h.423v2.838c0 .386.033.705.118.99.084.286.203.521.355.706.152.184.337.319.557.403.219.084.473.134.743.134.338 0 .608-.05.844-.168a1.39 1.39 0 00.558-.47c.135-.202.253-.42.321-.689.067-.252.101-.537.101-.822l.388-.017c0 .604-.101 1.108-.304 1.478-.202.369-.472.654-.81.822a2.11 2.11 0 01-1.081.27zm1.858-.117v-1.109h-.034v-4.282h.422v5.374h-.388v.017zm2.888 0v-7.322h.422v7.305h-.422v.017zm2.313-4.954v-.42h3.395v.42h-3.395zm3.395 4.954c-.27.067-.54.084-.794.067a1.922 1.922 0 01-.709-.185c-.203-.1-.355-.285-.473-.504a1.494 1.494 0 01-.135-.537c-.017-.185-.017-.386-.017-.621v-5.072h.422v5.642c0 .152.034.27.102.404a.77.77 0 00.574.436c.27.05.591.05 1.013-.017l.017.387zm2.094-6.533v-.638h.423v.638h-.423zm0 6.533V36.13h.423v5.374h-.423zm2.922 0V36.13h.389v1.091h.033v4.283h-.422zm4.003 0v-2.838c0-.387-.034-.722-.118-.991a1.905 1.905 0 00-.355-.689 1.326 1.326 0 00-.557-.403 2.09 2.09 0 00-.743-.134c-.338 0-.608.05-.845.168a1.394 1.394 0 00-.557.47 2.15 2.15 0 00-.321.688 3.308 3.308 0 00-.101.823l-.389.017c0-.604.101-1.108.304-1.478.203-.37.473-.654.811-.822a2.45 2.45 0 011.098-.252c.27 0 .523.033.76.117.236.084.439.185.608.336.169.151.337.32.456.52.118.202.219.454.287.706.067.269.101.554.101.873v2.922l-.439-.033zm4.78.151c-.507 0-.946-.134-1.284-.37-.355-.251-.608-.587-.794-1.024-.186-.437-.27-.907-.27-1.444 0-.538.084-1.008.27-1.428.186-.42.439-.772.777-1.007a2.1 2.1 0 011.233-.37c.49 0 .929.118 1.267.37.337.252.608.57.777 1.007.168.437.27.907.27 1.461 0 .555-.085 1.008-.254 1.445a2.244 2.244 0 01-.76 1.024 2.45 2.45 0 01-1.232.336zm.016 2.385c-.253 0-.523-.034-.793-.101-.271-.067-.507-.202-.744-.37-.236-.168-.422-.42-.591-.705l.372-.252c.186.37.439.638.76.79.321.15.659.234.996.234.49 0 .862-.083 1.132-.268.27-.185.456-.454.574-.806.118-.353.169-.806.169-1.327v-1.377h.034v-3.694h.388v5.071c0 .168 0 .32-.017.47-.016.151-.016.303-.033.454-.051.436-.169.789-.355 1.075a1.581 1.581 0 01-.743.62 4.162 4.162 0 01-1.149.186zm-.016-2.805c.422 0 .776-.1 1.064-.319.287-.218.506-.504.641-.873.135-.37.22-.773.22-1.243 0-.47-.068-.873-.22-1.243-.152-.37-.354-.655-.641-.856-.288-.202-.642-.302-1.064-.302-.423 0-.794.1-1.064.319-.271.218-.49.503-.625.856a3.438 3.438 0 00-.203 1.226c0 .454.068.873.22 1.243.152.37.354.655.641.873.287.218.608.302 1.031.32zM14.634 19.169c-1.317 0-2.449-.336-3.428-.991-.98-.655-1.74-1.545-2.264-2.67-.54-1.126-.81-2.402-.81-3.813 0-1.427.27-2.72.81-3.845s1.3-2.015 2.297-2.67c.997-.655 2.162-.974 3.513-.974s2.5.319 3.412.974c.912.655 1.621 1.545 2.094 2.67.473 1.125.71 2.401.71 3.829 0 1.41-.237 2.687-.71 3.812s-1.182 2.032-2.128 2.687c-.929.655-2.094.99-3.496.99zm.287 6.297a6.902 6.902 0 01-2.28-.37 6.668 6.668 0 01-1.959-1.057 5.402 5.402 0 01-1.419-1.663l2.922-1.444c.27.52.659.907 1.149 1.142.49.252 1.03.37 1.587.37.659 0 1.25-.118 1.774-.354.523-.235.928-.57 1.215-1.024.288-.453.423-1.008.406-1.68v-4.03h.388V4.575h2.787v14.862c0 .353-.017.705-.05 1.025a8.128 8.128 0 01-.153.957c-.22.923-.608 1.68-1.216 2.267-.59.588-1.334 1.024-2.23 1.327-.877.302-1.857.453-2.92.453zm.203-9.136c.861 0 1.537-.201 2.06-.587.524-.387.912-.94 1.149-1.63.236-.705.354-1.51.354-2.434 0-.924-.118-1.747-.354-2.435-.237-.689-.625-1.243-1.132-1.63-.506-.386-1.165-.587-1.976-.587-.861 0-1.554.201-2.111.621-.557.42-.963.974-1.233 1.68-.27.705-.388 1.477-.388 2.334 0 .873.135 1.646.388 2.35a3.62 3.62 0 001.2 1.68c.54.437 1.215.638 2.043.638zm18.206 2.838c-1.418 0-2.668-.319-3.732-.957a6.684 6.684 0 01-2.483-2.636c-.591-1.125-.878-2.419-.878-3.88 0-1.494.304-2.787.895-3.913a6.464 6.464 0 012.5-2.62c1.063-.637 2.296-.94 3.698-.94 1.436 0 2.686.32 3.75.958a6.683 6.683 0 012.482 2.636c.591 1.125.879 2.418.879 3.88 0 1.477-.305 2.77-.896 3.895a6.574 6.574 0 01-2.482 2.637c-1.064.621-2.314.94-3.733.94zm0-2.972c1.267 0 2.213-.42 2.82-1.26.609-.84.93-1.93.93-3.257 0-1.377-.321-2.47-.93-3.292-.624-.823-1.553-1.226-2.803-1.226-.861 0-1.554.185-2.111.571a3.234 3.234 0 00-1.216 1.595c-.27.672-.389 1.462-.389 2.352 0 1.377.321 2.468.946 3.291.608.823 1.52 1.226 2.753 1.226zm17.582 2.972c-1.318 0-2.45-.335-3.429-.99-.98-.655-1.74-1.545-2.263-2.67-.54-1.126-.81-2.402-.81-3.813 0-1.427.27-2.72.81-3.845s1.3-2.016 2.297-2.67c.996-.655 2.162-.974 3.513-.974s2.5.319 3.411.974c.912.654 1.622 1.545 2.095 2.67.473 1.125.71 2.401.71 3.829 0 1.41-.237 2.687-.71 3.812s-1.183 2.032-2.128 2.687c-.946.654-2.111.99-3.496.99zm.49-2.838c.86 0 1.536-.201 2.06-.587.523-.387.912-.94 1.148-1.63.237-.705.355-1.51.355-2.434 0-.924-.118-1.747-.355-2.435-.236-.689-.624-1.243-1.131-1.63-.507-.386-1.166-.587-1.976-.587-.861 0-1.554.201-2.111.621-.558.42-.963.974-1.233 1.68-.27.705-.389 1.477-.389 2.334 0 .873.136 1.645.389 2.35.253.706.659 1.26 1.199 1.68.524.437 1.216.638 2.044.638zm3.563 2.435V8.824h-.388V-.127h3.209v18.892h-2.82zm14.845.403c-1.435 0-2.702-.319-3.8-.923a6.496 6.496 0 01-2.55-2.586c-.608-1.109-.912-2.368-.912-3.813 0-1.544.304-2.888.895-4.03a6.448 6.448 0 012.5-2.653c1.064-.638 2.297-.94 3.699-.94 1.486 0 2.736.335 3.766 1.024 1.03.688 1.807 1.662 2.297 2.905.506 1.26.692 2.72.574 4.417h-3.158v-1.16c-.017-1.544-.287-2.67-.81-3.375-.541-.705-1.386-1.058-2.534-1.058-1.3 0-2.263.403-2.905 1.21-.642.806-.946 1.964-.946 3.51 0 1.427.32 2.552.946 3.341.642.79 1.554 1.176 2.77 1.176.776 0 1.452-.168 2.026-.52a3.361 3.361 0 001.318-1.495l3.141.94c-.54 1.276-1.385 2.267-2.533 2.972-1.166.689-2.415 1.058-3.783 1.058zm-4.914-6.616v-2.385h9.812v2.385h-9.812zm16.146 6.213l.034-18.892H84.3v11.554l5.219-6.818h3.969l-5.54 7.07 6.013 7.086h-4.206L84.3 11.947v6.818h-3.26zm20.064.403c-1.03 0-1.909-.201-2.618-.587-.71-.387-1.25-.907-1.621-1.562-.372-.655-.54-1.36-.54-2.133 0-.688.118-1.293.337-1.847a3.486 3.486 0 011.064-1.41c.473-.404 1.098-.723 1.841-.975.574-.185 1.25-.352 2.01-.504a59.184 59.184 0 012.499-.42c.895-.134 1.841-.268 2.838-.42l-1.132.639c.017-.974-.203-1.696-.659-2.166s-1.199-.689-2.263-.689c-.641 0-1.266.151-1.857.453-.592.303-1.014.806-1.25 1.529l-2.905-.907c.355-1.193 1.03-2.167 2.01-2.889.996-.722 2.33-1.091 4.002-1.091 1.267 0 2.382.201 3.344.621.963.403 1.672 1.092 2.145 2.015.254.504.406 1.008.456 1.528.051.521.085 1.092.085 1.697v8.699h-2.787v-3.074l.456.504c-.642 1.025-1.385 1.78-2.246 2.25-.862.488-1.926.74-3.209.74zm.625-2.535c.726 0 1.334-.135 1.841-.387a3.868 3.868 0 001.216-.923c.304-.37.506-.706.608-1.041.169-.403.253-.857.287-1.377.017-.521.034-.94.034-1.26l.979.286c-.963.15-1.773.285-2.466.386a53.65 53.65 0 00-1.773.319c-.49.1-.929.218-1.3.336a4.32 4.32 0 00-.929.453 1.83 1.83 0 00-.591.605 1.545 1.545 0 00-.203.806c0 .352.084.655.27.923.169.27.439.487.777.639.338.168.76.235 1.25.235zm12.413 2.132V4.592h2.838v4.4h.388v9.773h-3.226zm9.88 0v-6.818c0-.453-.034-.94-.084-1.477a5.674 5.674 0 00-.422-1.562 3.008 3.008 0 00-.997-1.243c-.439-.32-1.047-.487-1.807-.487-.405 0-.811.067-1.199.201-.389.135-.76.353-1.081.672-.321.32-.574.756-.777 1.31-.186.554-.287 1.26-.287 2.133l-1.892-.806c0-1.21.237-2.3.71-3.275a5.72 5.72 0 012.077-2.351c.912-.588 2.044-.873 3.378-.873 1.064 0 1.925.168 2.618.52.692.353 1.233.79 1.638 1.344a5.65 5.65 0 01.895 1.73c.186.604.321 1.192.372 1.746.05.554.084.99.084 1.327v7.91h-3.226zM0 3.545V0h3.564v2.8c0 1.341-.267 2.335-.816 2.948-.55.613-1.466.961-2.715 1.044v-1.26c.633-.049 1.1-.248 1.432-.579.317-.331.483-.795.483-1.391L0 3.545z"/></g><defs><clipPath id="clip0_2001_180"><path fill="#fff" d="M0 0h128v44H0z"/></clipPath></defs></svg>