<svg width="226" height="78" fill="none" xmlns="http://www.w3.org/2000/svg"><g clip-path="url(#clip0_514_1476)" fill="#fff"><path d="M114.134 56.457c-.745 0-1.342-.12-1.849-.387-.507-.268-.864-.595-1.103-1.012a2.758 2.758 0 01-.358-1.37c0-.565.119-1.012.358-1.399s.567-.655.954-.863a4.354 4.354 0 011.283-.447 24.8 24.8 0 011.789-.297c.626-.09 1.222-.15 1.759-.209.537-.06.924-.119 1.193-.149l-.269.179c.03-1.131-.178-1.965-.626-2.5-.447-.566-1.222-.834-2.326-.834-.805 0-1.431.178-1.938.536-.507.357-.835.893-1.014 1.637l-.805-.209c.209-.893.656-1.547 1.312-2.024.656-.446 1.491-.685 2.505-.685.895 0 1.61.18 2.207.536.596.358.984.834 1.192 1.459.09.238.15.536.179.863.03.328.06.655.06.983v5.954h-.686v-2.62l.358.03a3.543 3.543 0 01-1.521 2.114 5.112 5.112 0 01-2.654.714zm-.03-.744c.686 0 1.283-.12 1.819-.358a3 3 0 001.283-1.071 3.891 3.891 0 00.626-1.667c.059-.328.059-.685.059-1.042v-.804l.388.298c-.298.03-.745.06-1.282.119-.537.06-1.133.119-1.73.178a12.91 12.91 0 00-1.67.298c-.298.06-.596.179-.894.328a2.029 2.029 0 00-.775.654c-.209.268-.299.626-.299 1.072 0 .298.09.625.239.923.149.298.417.566.775.774.358.208.835.298 1.461.298zm8.588.476v-9.526h.686v2.262l-.238-.298c.089-.268.238-.506.387-.714.149-.209.299-.417.448-.536.268-.268.566-.447.924-.566a4.642 4.642 0 011.074-.238c.357-.03.685 0 .954.09v.714a3.488 3.488 0 00-1.253-.06 2.11 2.11 0 00-1.222.626 2.616 2.616 0 00-.716 1.071 3.716 3.716 0 00-.238 1.25c-.03.447-.06.834-.06 1.221v4.704h-.746zm11.332.268c-.954 0-1.729-.208-2.385-.625-.656-.417-1.134-1.012-1.462-1.757-.328-.744-.507-1.637-.536-2.62.029-1.012.208-1.905.536-2.649a4.044 4.044 0 011.462-1.756c.626-.417 1.431-.626 2.385-.626.895 0 1.67.209 2.356.626.686.416 1.193 1.012 1.461 1.726l-.716.298a3.163 3.163 0 00-1.222-1.429c-.567-.357-1.193-.506-1.909-.506-.805 0-1.461.178-1.998.536-.536.357-.924.863-1.163 1.518a7.278 7.278 0 00-.417 2.233c.03 1.28.328 2.322.924 3.126.597.774 1.491 1.16 2.654 1.16.686 0 1.312-.148 1.849-.476.537-.327.954-.803 1.253-1.429l.715.328c-.387.774-.924 1.34-1.55 1.727-.597.387-1.372.565-2.237.595zm7.455-.268V43.507h.686v7.502h.059v5.21h-.745v-.03zm7.097 0v-5.031c0-.685-.06-1.28-.209-1.757a3.355 3.355 0 00-.626-1.22 2.332 2.332 0 00-.984-.715 3.676 3.676 0 00-1.312-.238c-.596 0-1.073.09-1.491.298-.417.208-.745.476-.984.833a3.844 3.844 0 00-.567 1.221 5.936 5.936 0 00-.179 1.459l-.685.03c0-1.072.179-1.965.536-2.62.358-.655.835-1.161 1.432-1.459a4.307 4.307 0 011.938-.447c.477 0 .924.06 1.342.209.417.149.775.327 1.073.595.299.268.597.566.806.923.208.357.387.804.506 1.25.12.477.179.983.179 1.549v5.18l-.775-.06zm4.98-11.581v-1.13h.746v1.13h-.746zm0 11.58v-9.526h.746v9.527h-.746zm4.085-8.781v-.744h5.994v.744h-5.994zm5.994 8.782a4.545 4.545 0 01-1.402.119 3.38 3.38 0 01-1.252-.328c-.358-.178-.626-.506-.835-.893-.149-.297-.209-.625-.239-.952-.029-.328-.029-.685-.029-1.102v-8.99h.745v10.002c0 .268.06.477.179.715.209.417.537.685 1.014.774.477.09 1.044.09 1.789-.03l.03.685zm7.097.268c-.895 0-1.67-.209-2.326-.596a3.84 3.84 0 01-1.491-1.726c-.328-.744-.537-1.638-.537-2.68 0-1.041.179-1.935.537-2.679.358-.744.835-1.34 1.491-1.727.656-.386 1.431-.595 2.326-.595s1.7.209 2.326.625c.656.417 1.133 1.013 1.491 1.786.358.774.507 1.727.507 2.829h-.805v-.239c-.03-1.369-.358-2.41-.954-3.155-.597-.744-1.462-1.102-2.595-1.102-1.133 0-1.998.387-2.624 1.132-.626.744-.924 1.786-.924 3.155 0 1.37.298 2.412.924 3.156.626.744 1.491 1.131 2.624 1.131.776 0 1.491-.178 2.088-.566a3.975 3.975 0 001.431-1.607l.626.357a4.58 4.58 0 01-1.64 1.876c-.686.446-1.551.595-2.475.625zm-3.906-4.823v-.744h7.753v.744h-7.753zm15.774 4.823c-.954 0-1.729-.208-2.385-.625-.656-.417-1.133-1.012-1.461-1.757-.328-.744-.507-1.637-.537-2.62.03-1.012.209-1.905.537-2.649a4.049 4.049 0 011.461-1.756c.626-.417 1.431-.626 2.385-.626.895 0 1.67.209 2.356.626.686.416 1.193 1.012 1.461 1.726l-.715.298c-.269-.595-.656-1.072-1.223-1.429-.567-.357-1.193-.506-1.909-.506-.805 0-1.461.178-1.997.536-.537.357-.925.863-1.163 1.518a7.248 7.248 0 00-.418 2.233c.03 1.28.328 2.322.925 3.126.596.774 1.49 1.16 2.653 1.16.686 0 1.313-.148 1.849-.476.537-.327.955-.803 1.253-1.429l.715.328c-.387.774-.924 1.34-1.55 1.727-.597.387-1.372.565-2.237.595zm6.382-9.05v-.744h5.994v.744h-5.994zm5.994 8.782a4.547 4.547 0 01-1.402.119 3.38 3.38 0 01-1.252-.328c-.358-.178-.626-.506-.835-.893-.149-.297-.209-.625-.239-.952-.03-.328-.03-.685-.03-1.102v-8.99h.746v10.002c0 .268.06.477.179.715.209.417.537.685 1.014.774.477.09 1.043.09 1.789-.03l.03.685zm7.216.209c-.477 0-.924-.06-1.342-.209-.388-.149-.775-.327-1.073-.595a3.402 3.402 0 01-.806-.923 5.246 5.246 0 01-.506-1.25 6.269 6.269 0 01-.179-1.548v-5.18h.745v5.03c0 .685.06 1.251.209 1.757s.358.923.626 1.25c.268.328.596.566.984.715.388.149.835.238 1.312.238.597 0 1.074-.09 1.491-.298.418-.208.746-.476.984-.833.239-.357.448-.745.567-1.22.119-.447.179-.953.179-1.46l.686-.03c0 1.072-.179 1.965-.537 2.62-.358.655-.835 1.161-1.432 1.46-.536.327-1.192.476-1.908.476zm3.28-.209v-1.935h-.059v-7.591h.745v9.526h-.686zm4.92 0v-9.526h.686v2.262l-.239-.298a2.76 2.76 0 01.388-.714c.149-.209.298-.417.447-.536.269-.268.567-.447.925-.566a4.634 4.634 0 011.073-.238c.358-.03.686 0 .954.09v.714a3.482 3.482 0 00-1.252-.06c-.447.06-.865.268-1.223.626a2.614 2.614 0 00-.715 1.071 3.718 3.718 0 00-.239 1.25c-.03.447-.059.834-.059 1.221v4.704h-.746zm11.332.268c-.895 0-1.67-.209-2.326-.596a3.84 3.84 0 01-1.491-1.726c-.328-.744-.537-1.638-.537-2.68 0-1.041.179-1.935.537-2.679.358-.744.835-1.34 1.491-1.727.656-.386 1.431-.595 2.326-.595.894 0 1.7.209 2.326.625.656.417 1.133 1.013 1.491 1.786.358.774.507 1.727.507 2.829h-.805v-.239c-.03-1.369-.358-2.41-.955-3.155-.596-.744-1.461-1.102-2.594-1.102-1.133 0-1.998.387-2.624 1.132-.626.744-.925 1.786-.925 3.155 0 1.37.299 2.412.925 3.156.626.744 1.491 1.131 2.624 1.131.775 0 1.491-.178 2.087-.566a3.97 3.97 0 001.432-1.607l.626.357a4.587 4.587 0 01-1.64 1.876c-.686.446-1.551.595-2.475.625zm-3.877-4.823v-.744h7.753v.744h-7.753zm-102.46 22.209c-.716 0-1.372-.09-1.938-.298-.567-.208-1.074-.506-1.491-.923a3.249 3.249 0 01-.686-1.101 4.676 4.676 0 01-.269-1.28c0-.417.06-.834.179-1.28.12-.417.328-.804.627-1.162a2.35 2.35 0 01.715-.625c.269-.149.537-.298.835-.417-.507-.506-.894-.952-1.163-1.369-.268-.417-.417-.923-.417-1.548s.149-1.161.447-1.667a2.873 2.873 0 011.223-1.161c.298-.15.596-.268.924-.328.328-.06.626-.089.954-.089.418 0 .835.06 1.283.149.417.119.775.268 1.103.506.209.149.388.298.566.506.179.208.299.417.418.655l-.686.327a1.954 1.954 0 00-.745-.893c-.239-.178-.537-.297-.865-.387a3.71 3.71 0 00-.984-.119 3.56 3.56 0 00-1.611.358c-.387.208-.685.476-.894.863-.209.387-.298.774-.298 1.25 0 .417.059.744.179 1.012.119.268.328.566.596.893l.447.447c.149.149.328.298.507.447l4.563 4.257c.029-.179.059-.387.059-.536 0-.149.03-.328.03-.506l-.03-2.084h.805v1.697c0 .565-.029.982-.059 1.28-.06.297-.09.536-.149.714l1.67 1.548-.507.536-1.521-1.429c-.119.238-.328.447-.567.685a5.807 5.807 0 01-.745.536 3.749 3.749 0 01-1.193.387c-.447.06-.895.119-1.312.149zm-.06-.745c.448 0 .835-.03 1.163-.089.328-.06.686-.178.984-.357.358-.238.627-.447.776-.625.149-.179.268-.328.357-.447l-4.651-4.227a4.41 4.41 0 00-.865.357 2.723 2.723 0 00-.716.595 2.285 2.285 0 00-.447.893c-.09.328-.149.685-.149 1.043 0 .357.059.684.179 1.012.119.327.268.595.507.833.328.358.745.625 1.252.774a5.859 5.859 0 001.61.238zm18.22.745c-.954 0-1.729-.209-2.386-.626-.656-.416-1.133-1.012-1.461-1.756-.328-.744-.507-1.637-.536-2.62.029-1.012.208-1.905.536-2.65a4.048 4.048 0 011.461-1.756c.627-.416 1.432-.625 2.386-.625.895 0 1.67.209 2.356.625.686.417 1.193 1.012 1.461 1.727l-.716.298a3.163 3.163 0 00-1.222-1.43c-.567-.357-1.193-.505-1.909-.505-.805 0-1.461.178-1.998.535-.536.358-.924.864-1.163 1.519a7.278 7.278 0 00-.417 2.232c.03 1.28.328 2.322.924 3.126.597.774 1.491 1.161 2.654 1.161.686 0 1.312-.148 1.849-.476.537-.328.954-.804 1.252-1.429l.716.328c-.388.773-.924 1.34-1.55 1.726-.597.387-1.372.566-2.237.596zm11.033 0c-.954 0-1.729-.209-2.385-.655a3.934 3.934 0 01-1.461-1.787c-.329-.773-.507-1.637-.507-2.62 0-.982.178-1.875.507-2.619a3.914 3.914 0 011.49-1.756c.657-.417 1.432-.626 2.356-.626.925 0 1.73.209 2.386.626.656.416 1.133 1.012 1.461 1.756.328.744.507 1.608.507 2.59 0 .982-.179 1.876-.507 2.65a3.765 3.765 0 01-1.491 1.756 4.303 4.303 0 01-2.356.685zm0-.745c1.193 0 2.088-.387 2.684-1.19.596-.804.895-1.816.895-3.097 0-1.28-.299-2.322-.895-3.096-.596-.774-1.491-1.16-2.684-1.16-.805 0-1.461.178-1.998.535-.536.358-.924.864-1.192 1.519-.269.654-.388 1.369-.388 2.203 0 1.28.298 2.322.894 3.125.627.745 1.521 1.161 2.684 1.161zm8.051.477v-9.527h.686v1.935h.06v7.592h-.746zm7.097 0v-5.031c0-.685-.059-1.28-.208-1.757a3.356 3.356 0 00-.627-1.22 2.332 2.332 0 00-.984-.715 3.672 3.672 0 00-1.312-.238c-.596 0-1.073.09-1.491.298-.417.208-.745.476-.984.833-.238.357-.447.744-.566 1.22a5.89 5.89 0 00-.179 1.46l-.686.03c0-1.073.179-1.966.537-2.62.358-.655.835-1.161 1.431-1.46a4.308 4.308 0 011.938-.446c.477 0 .925.06 1.342.209.418.148.776.327 1.074.595.298.268.596.566.805.923.209.357.388.804.507 1.25.119.476.179.983.179 1.548v5.18l-.776-.06zm8.29.238c-1.073 0-1.968-.238-2.683-.685-.716-.447-1.163-1.072-1.313-1.876l.746-.148c.149.595.537 1.042 1.133 1.399.597.357 1.312.536 2.147.536.835 0 1.551-.179 2.058-.566.507-.357.775-.863.775-1.518a1.55 1.55 0 00-.239-.864c-.149-.238-.447-.416-.894-.595-.447-.178-1.103-.387-1.968-.625-.895-.238-1.611-.476-2.117-.715-.507-.238-.865-.506-1.044-.774-.179-.267-.298-.654-.298-1.071 0-.506.149-.953.447-1.34.298-.387.716-.685 1.252-.893a5.004 5.004 0 011.849-.328c.716 0 1.342.12 1.879.358a3.612 3.612 0 011.372.982c.357.417.536.893.596 1.43l-.746.148a2.348 2.348 0 00-1.013-1.578c-.567-.387-1.283-.566-2.118-.566-.805 0-1.431.15-1.938.477-.507.327-.745.774-.745 1.31 0 .297.089.565.268.774.179.208.477.416.895.595.417.179 1.013.357 1.759.536.954.238 1.7.476 2.236.744.537.238.895.536 1.134.864.208.327.328.744.328 1.22 0 .864-.328 1.548-.984 2.025-.776.506-1.67.744-2.774.744zm11.034-.03a3.96 3.96 0 01-1.342-.209c-.388-.148-.775-.327-1.074-.595a3.395 3.395 0 01-.805-.923 5.289 5.289 0 01-.507-1.25 6.318 6.318 0 01-.178-1.548v-5.18h.745v5.031c0 .685.06 1.25.209 1.756.149.507.358.923.626 1.25.268.328.596.566.984.715.388.15.835.238 1.312.238.596 0 1.074-.089 1.491-.297.418-.209.746-.477.984-.834.239-.357.447-.744.567-1.22.119-.447.179-.953.179-1.46l.685-.029c0 1.072-.178 1.965-.536 2.62-.358.655-.835 1.16-1.432 1.459-.566.327-1.192.476-1.908.476zm3.28-.209V71.61h-.06v-7.592h.746v9.527h-.686v.03zm5.099.001v-12.98h.746v12.95h-.746v.03zm4.086-8.782v-.745h5.993v.745h-5.993zm5.993 8.782c-.477.119-.954.148-1.401.119a3.387 3.387 0 01-1.253-.328c-.357-.178-.626-.506-.835-.893-.149-.297-.208-.625-.238-.953-.03-.327-.03-.684-.03-1.101v-8.99h.746V71.43c0 .268.059.477.178.715.209.416.537.684 1.014.774.477.089 1.044.089 1.79-.03l.029.685zm3.698-11.581v-1.131h.746v1.131h-.746zm0 11.58v-9.526h.746v9.527h-.746zm5.159.001v-9.527h.686v1.935h.059v7.592h-.745zm7.067 0v-5.031c0-.685-.06-1.28-.209-1.757a3.37 3.37 0 00-.626-1.22 2.332 2.332 0 00-.984-.715 3.676 3.676 0 00-1.312-.238c-.596 0-1.074.09-1.491.298-.418.208-.746.476-.984.833a3.844 3.844 0 00-.567 1.22 5.938 5.938 0 00-.179 1.46l-.685.03c0-1.073.178-1.966.536-2.62.358-.655.835-1.161 1.432-1.46a4.305 4.305 0 011.938-.446c.477 0 .924.06 1.342.209.417.148.775.327 1.073.595.299.268.597.566.805.923.209.357.388.804.507 1.25.12.476.179.983.179 1.548v5.18l-.775-.06zm8.439.268c-.895 0-1.67-.238-2.266-.655-.627-.447-1.074-1.042-1.402-1.816-.328-.774-.477-1.608-.477-2.56 0-.953.149-1.787.477-2.53.328-.745.775-1.37 1.372-1.787.596-.417 1.312-.655 2.177-.655.864 0 1.64.208 2.236.655a3.953 3.953 0 011.372 1.786 7.04 7.04 0 01.477 2.59c0 .983-.149 1.786-.447 2.56-.299.774-.746 1.37-1.342 1.816a4.317 4.317 0 01-2.177.596zm.03 4.227a5.84 5.84 0 01-1.402-.178c-.477-.12-.894-.358-1.312-.655-.417-.298-.745-.745-1.044-1.25l.657-.447c.328.655.775 1.13 1.341 1.399a4.124 4.124 0 001.76.417c.865 0 1.521-.15 1.998-.477.477-.327.805-.803 1.014-1.429.208-.625.298-1.429.298-2.352v-2.44h.059v-6.55h.686v8.99c0 .298 0 .566-.03.834-.029.268-.029.536-.059.804-.09.774-.298 1.399-.626 1.905a2.798 2.798 0 01-1.312 1.102c-.537.178-1.223.297-2.028.327zm-.03-4.971c.745 0 1.372-.18 1.879-.566a3.344 3.344 0 001.133-1.548c.238-.655.387-1.37.387-2.203 0-.834-.119-1.548-.387-2.203-.269-.655-.626-1.161-1.133-1.518-.507-.358-1.134-.536-1.879-.536-.746 0-1.402.178-1.879.565a3.59 3.59 0 00-1.103 1.519c-.239.625-.358 1.369-.358 2.173s.119 1.548.388 2.203c.268.655.626 1.16 1.133 1.548.507.387 1.073.536 1.819.566zM25.838 33.98c-2.326 0-4.324-.595-6.053-1.756-1.73-1.16-3.072-2.739-3.996-4.733-.954-1.995-1.432-4.257-1.432-6.758 0-2.53.478-4.823 1.432-6.817.954-1.995 2.296-3.573 4.055-4.734 1.76-1.16 3.817-1.727 6.203-1.727 2.385 0 4.413.566 6.023 1.727 1.61 1.161 2.863 2.739 3.698 4.734.835 1.994 1.252 4.257 1.252 6.787 0 2.5-.417 4.763-1.252 6.758s-2.087 3.602-3.757 4.763c-1.64 1.161-3.698 1.757-6.173 1.757zm.507 11.164c-1.402 0-2.743-.208-4.026-.654a11.76 11.76 0 01-3.459-1.876c-1.014-.804-1.878-1.786-2.505-2.947l5.16-2.56c.476.922 1.162 1.607 2.027 2.024.865.446 1.819.655 2.803.655 1.163 0 2.207-.209 3.131-.625.924-.417 1.64-1.013 2.147-1.816.507-.804.745-1.787.716-2.977v-7.145h.686V8.11h4.92v26.347c0 .625-.03 1.25-.09 1.816a14.44 14.44 0 01-.268 1.697c-.388 1.637-1.074 2.977-2.147 4.019-1.044 1.042-2.356 1.816-3.936 2.352-1.55.535-3.28.803-5.16.803zm.358-16.194c1.52 0 2.713-.358 3.638-1.043.924-.684 1.61-1.667 2.027-2.887.418-1.25.627-2.68.627-4.317s-.209-3.096-.627-4.316c-.417-1.221-1.103-2.204-1.997-2.888-.895-.685-2.058-1.042-3.49-1.042-1.52 0-2.743.357-3.727 1.101-.984.745-1.7 1.727-2.177 2.977-.477 1.25-.686 2.62-.686 4.138 0 1.548.24 2.918.686 4.168.448 1.25 1.163 2.233 2.118 2.977.954.774 2.147 1.131 3.608 1.131zm32.146 5.03c-2.505 0-4.712-.565-6.59-1.697-1.88-1.13-3.34-2.709-4.384-4.673-1.044-1.995-1.55-4.287-1.55-6.877 0-2.65.536-4.942 1.58-6.937a11.438 11.438 0 014.413-4.644c1.879-1.131 4.056-1.667 6.53-1.667 2.535 0 4.742.566 6.62 1.697 1.88 1.131 3.34 2.709 4.384 4.674 1.044 1.994 1.55 4.287 1.55 6.877 0 2.62-.536 4.912-1.58 6.906-1.044 1.995-2.505 3.543-4.383 4.674-1.879 1.102-4.086 1.667-6.59 1.667zm0-5.269c2.236 0 3.906-.744 4.98-2.233 1.073-1.488 1.64-3.423 1.64-5.775 0-2.441-.567-4.376-1.64-5.835-1.104-1.459-2.744-2.173-4.95-2.173-1.521 0-2.744.327-3.728 1.012s-1.7 1.607-2.147 2.828c-.477 1.19-.686 2.59-.686 4.168 0 2.441.567 4.376 1.67 5.835 1.073 1.459 2.684 2.173 4.86 2.173zM89.89 33.98c-2.325 0-4.323-.595-6.053-1.756-1.73-1.161-3.071-2.739-3.996-4.733-.954-1.995-1.43-4.258-1.43-6.758 0-2.53.476-4.823 1.43-6.818.955-1.994 2.297-3.572 4.056-4.733 1.76-1.161 3.817-1.727 6.203-1.727 2.385 0 4.413.566 6.023 1.727 1.61 1.16 2.863 2.739 3.698 4.733.835 1.995 1.252 4.258 1.252 6.788 0 2.5-.417 4.763-1.252 6.758-.835 1.994-2.088 3.602-3.758 4.763s-3.727 1.756-6.172 1.756zm.865-5.03c1.521 0 2.714-.358 3.639-1.043.924-.684 1.61-1.667 2.027-2.887.418-1.25.626-2.68.626-4.317s-.208-3.096-.626-4.317c-.417-1.22-1.103-2.203-1.998-2.887-.894-.685-2.057-1.042-3.489-1.042-1.52 0-2.743.357-3.727 1.101s-1.7 1.727-2.177 2.977c-.477 1.25-.686 2.62-.686 4.138 0 1.548.239 2.918.686 4.168.447 1.25 1.163 2.233 2.117 2.977.925.774 2.147 1.131 3.608 1.131zm6.293 4.316V15.642h-.686V-.225h5.665v33.49h-4.98zm26.211.714c-2.535 0-4.771-.565-6.709-1.637a11.486 11.486 0 01-4.503-4.585c-1.074-1.964-1.61-4.197-1.61-6.757 0-2.74.536-5.12 1.58-7.145 1.044-2.025 2.535-3.602 4.413-4.704 1.879-1.131 4.056-1.667 6.531-1.667 2.624 0 4.831.595 6.65 1.816 1.819 1.22 3.19 2.947 4.055 5.15.895 2.233 1.223 4.823 1.014 7.83h-5.576v-2.054c-.03-2.74-.507-4.734-1.432-5.984-.954-1.25-2.445-1.876-4.473-1.876-2.296 0-3.995.715-5.129 2.144-1.133 1.429-1.67 3.483-1.67 6.222 0 2.53.567 4.525 1.67 5.924 1.134 1.4 2.744 2.084 4.891 2.084 1.372 0 2.564-.298 3.578-.923 1.014-.625 1.789-1.489 2.326-2.65l5.547 1.668c-.955 2.262-2.446 4.019-4.473 5.269-2.058 1.22-4.265 1.875-6.68 1.875zm-8.678-11.729v-4.227h17.326v4.227h-17.326zm28.508 11.015l.06-33.491h5.696v20.481l9.214-12.086h7.007l-9.78 12.533 10.615 12.563h-7.425l-9.631-12.087v12.087h-5.756zm35.426.714c-1.819 0-3.369-.357-4.622-1.041-1.252-.685-2.207-1.608-2.863-2.77-.656-1.16-.954-2.41-.954-3.78 0-1.22.209-2.292.597-3.275.417-.982 1.013-1.816 1.878-2.5.835-.715 1.938-1.28 3.251-1.727 1.013-.327 2.206-.625 3.548-.893 1.372-.268 2.833-.506 4.413-.744 1.581-.238 3.251-.477 5.01-.745l-1.998 1.132c.03-1.727-.358-3.007-1.163-3.84-.805-.834-2.117-1.221-3.996-1.221a7.119 7.119 0 00-3.28.804c-1.043.535-1.789 1.428-2.206 2.709l-5.129-1.608c.626-2.114 1.819-3.84 3.548-5.12 1.759-1.28 4.115-1.935 7.067-1.935 2.237 0 4.205.357 5.905 1.101 1.699.715 2.952 1.935 3.787 3.572.447.894.715 1.787.805 2.71.089.922.149 1.935.149 3.006v15.421h-4.92v-5.448l.805.893c-1.133 1.816-2.445 3.156-3.966 3.99-1.521.863-3.4 1.31-5.666 1.31zm1.103-4.495c1.283 0 2.356-.238 3.251-.684.894-.447 1.61-1.013 2.147-1.638.537-.655.894-1.25 1.073-1.846.299-.714.448-1.518.507-2.44.03-.924.06-1.668.06-2.233l1.729.506c-1.699.268-3.131.506-4.353.684a97.134 97.134 0 00-3.131.566c-.865.178-1.64.387-2.296.595a7.64 7.64 0 00-1.64.804c-.448.298-.806.655-1.044 1.072-.239.417-.358.863-.358 1.429 0 .625.149 1.16.477 1.637.298.476.775.863 1.372 1.131.596.298 1.342.417 2.206.417zm21.918 3.781V8.14h5.009v7.8h.686v17.326h-5.695zm17.444 0V21.179c0-.803-.059-1.667-.149-2.62a10.042 10.042 0 00-.745-2.768 5.316 5.316 0 00-1.76-2.203c-.775-.566-1.849-.863-3.191-.863a6.46 6.46 0 00-2.117.357 5 5 0 00-1.908 1.19c-.567.566-1.014 1.34-1.372 2.323-.328.982-.507 2.233-.507 3.78l-3.34-1.428c0-2.144.418-4.079 1.253-5.806a10.122 10.122 0 013.668-4.167c1.61-1.042 3.608-1.548 5.964-1.548 1.878 0 3.399.297 4.622.922 1.222.626 2.176 1.4 2.892 2.382a10.006 10.006 0 011.581 3.066c.328 1.072.566 2.114.656 3.096.089.983.149 1.757.149 2.352v14.022h-5.696zM0 6.284V0h6.292v4.963c0 2.379-.47 4.14-1.44 5.227-.97 1.087-2.588 1.703-4.793 1.85V9.808c1.117-.088 1.94-.44 2.529-1.027.558-.588.852-1.41.852-2.467L0 6.284z"/></g><defs><clipPath id="clip0_514_1476"><path fill="#fff" d="M0 0h226v78H0z"/></clipPath></defs></svg>