<svg width="330" height="784" fill="none" xmlns="http://www.w3.org/2000/svg"><mask id="a" fill="#fff"><path fill-rule="evenodd" clip-rule="evenodd" d="M172 0h85v232h73v245h-45.5v42.25H219V646h111v138H0V98h172V0z"/></mask><path d="M257 0h5v-5h-5v5zm-85 0v-5h-5v5h5zm85 232h-5v5h5v-5zm73 0h5v-5h-5v5zm0 245v5h5v-5h-5zm-45.5 0v-5h-5v5h5zm0 42.25v5h5v-5h-5zm-65.5 0v-5h-5v5h5zM219 646h-5v5h5v-5zm111 0h5v-5h-5v5zm0 138v5h5v-5h-5zM0 784h-5v5h5v-5zM0 98v-5h-5v5h5zm172 0v5h5v-5h-5zM257-5h-85V5h85V-5zm5 237V0h-10v232h10zm68-5h-73v10h73v-10zm5 250V232h-10v245h10zm-50.5 5H330v-10h-45.5v10zm5 37.25V477h-10v42.25h10zm-70.5 5h65.5v-10H219v10zM224 646V519.25h-10V646h10zm106-5H219v10h111v-10zm5 143V646h-10v138h10zM0 789h330v-10H0v10zM-5 98v686H5V98H-5zm177-5H0v10h172V93zm-5-93v98h10V0h-10z" fill="#DCC7B3" mask="url(#a)"/></svg>