<svg width="644" height="1033" fill="none" xmlns="http://www.w3.org/2000/svg"><mask id="a" fill="#fff"><path fill-rule="evenodd" clip-rule="evenodd" d="M0 96v937h644V0H201v96H0z"/></mask><path d="M0 1033h-7v7h7v-7zM0 96v-7h-7v7h7zm644 937v7h7v-7h-7zM644 0h7v-7h-7v7zM201 0v-7h-7v7h7zm0 96v7h7v-7h-7zM7 1033V96H-7v937H7zm637-7H0v14h644v-14zM637 0v1033h14V0h-14zM201 7h443V-7H201V7zm-7-7v96h14V0h-14zm7 89H0v14h201V89z" fill="#DCC7B3" mask="url(#a)"/><path fill="#fff" stroke="#DCC7B3" stroke-width="7" d="M366.5-293.5h194v292h-194z"/></svg>