<svg width="644" height="1033" fill="none" xmlns="http://www.w3.org/2000/svg"><mask id="a" fill="#fff"><path fill-rule="evenodd" clip-rule="evenodd" d="M221.837 0h124.049v290.728h237.342V0H644v770.896h-79.343V1033H0V148.012h221.837V0z"/></mask><path d="M345.886 0h7v-7h-7v7zM221.837 0v-7h-7v7h7zm124.049 290.728h-7v7h7v-7zm237.342 0v7h7v-7h-7zm0-290.728v-7h-7v7h7zM644 0h7v-7h-7v7zm0 770.896v7h7v-7h-7zm-79.343 0v-7h-7v7h7zm0 262.104v7h7v-7h-7zM0 1033h-7v7h7v-7zm0-884.988v-7h-7v7h7zm221.837 0v7h7v-7h-7zM345.886-7H221.837V7h124.049V-7zm7 297.728V0h-14v290.728h14zm230.342-7H345.886v14h237.342v-14zM576.228 0v290.728h14V0h-14zM644-7h-60.772V7H644V-7zm7 777.896V0h-14v770.896h14zm-86.343 7H644v-14h-79.343v14zm7 255.104V770.896h-14V1033h14zM0 1040h564.657v-14H0v14zm-7-891.988V1033H7V148.012H-7zm228.837-7H0v14h221.837v-14zM214.837 0v148.012h14V0h-14z" fill="#DCC7B3" mask="url(#a)"/></svg>