<svg width="1340" height="670" fill="none" xmlns="http://www.w3.org/2000/svg"><mask id="a" fill="#fff"><path fill-rule="evenodd" clip-rule="evenodd" d="M201 0h704v216h201V0h234v423h-58.5v77H1103v170H0V96h201V0z"/></mask><path d="M905 0h7v-7h-7v7zM201 0v-7h-7v7h7zm704 216h-7v7h7v-7zm201 0v7h7v-7h-7zm0-216v-7h-7v7h7zm234 0h7v-7h-7v7zm0 423v7h7v-7h-7zm-58.5 0v-7h-7v7h7zm0 77v7h7v-7h-7zm-178.5 0v-7h-7v7h7zm0 170v7h7v-7h-7zM0 670h-7v7h7v-7zM0 96v-7h-7v7h7zm201 0v7h7v-7h-7zM905-7H201V7h704V-7zm7 223V0h-14v216h14zm194-7H905v14h201v-14zm-7-209v216h14V0h-14zm241-7h-234V7h234V-7zm7 430V0h-14v423h14zm-65.5 7h58.5v-14h-58.5v14zm7 70v-77h-14v77h14zm-185.5 7h178.5v-14H1103v14zm7 163V500h-14v170h14zM0 677h1103v-14H0v14zM-7 96v574H7V96H-7zm208-7H0v14h201V89zm-7-89v96h14V0h-14z" fill="#DCC7B3" mask="url(#a)"/></svg>