<svg width="436" height="382" fill="none" xmlns="http://www.w3.org/2000/svg"><mask id="a" fill="#fff"><path d="M118.083 0v195.303l49.959 54.503 149.875-54.503L436 258.89V382H0V0h118.083z"/></mask><path d="M118.083 0v195.303l49.959 54.503 149.875-54.503L436 258.89V382H0V0h118.083z" fill="#fff"/><path d="M118.083 0h7v-7h-7v7zm0 195.303h-7v2.723l1.84 2.007 5.16-4.73zm49.959 54.503l-5.161 4.73 3.159 3.446 4.394-1.597-2.392-6.579zm149.875-54.503l3.319-6.163-2.763-1.488-2.949 1.072 2.393 6.579zM436 258.89h7v-4.181l-3.681-1.982L436 258.89zM436 382v7h7v-7h-7zM0 382h-7v7h7v-7zM0 0v-7h-7v7h7zm111.083 0v195.303h14V0h-14zm1.84 200.033l49.958 54.503 10.321-9.46-49.958-54.503-10.321 9.46zm57.511 56.352l149.875-54.504-4.785-13.157-149.875 54.503 4.785 13.158zm144.164-54.919l118.083 63.587 6.638-12.326-118.083-63.587-6.638 12.326zM429 258.89V382h14V258.89h-14zM436 375H0v14h436v-14zM7 382V0H-7v382H7zM0 7h118.083V-7H0V7z" fill="#DCC7B3" mask="url(#a)"/></svg>