<svg width="1340" height="670" fill="none" xmlns="http://www.w3.org/2000/svg"><mask id="a" fill="#fff"><path fill-rule="evenodd" clip-rule="evenodd" d="M0 96v574h1340V0H201v96H0z"/></mask><path d="M0 670h-7v7h7v-7zM0 96v-7h-7v7h7zm1340 574v7h7v-7h-7zm0-670h7v-7h-7v7zM201 0v-7h-7v7h7zm0 96v7h7v-7h-7zM7 670V96H-7v574H7zm1333-7H0v14h1340v-14zm-7-663v670h14V0h-14zM201 7h1139V-7H201V7zm-7-7v96h14V0h-14zm7 89H0v14h201V89z" fill="#DCC7B3" mask="url(#a)"/><path fill="#fff" stroke="#DCC7B3" stroke-width="7" d="M510.5-293.5h194v292h-194z"/></svg>