<?xml version="1.0" encoding="utf-8"?><svg viewBox="0 0 56 63" xmlns="http://www.w3.org/2000/svg" xmlns:xlink="http://www.w3.org/1999/xlink"><style>:root>svg{display:none}:root>svg:target{display:block}</style><svg fill="none" viewBox="0 0 18 18" id="icon-close" xmlns="http://www.w3.org/2000/svg"><path d="M1.789 16.425l7.307-7.308m7.308-7.307L9.096 9.117m0 0L1.672 1.692m7.424 7.425l7.425 7.425" stroke="currentColor" stroke-width="2"/></svg><svg fill="none" viewBox="0 0 14 22" id="icon-cursor-arrow" xmlns="http://www.w3.org/2000/svg"><path d="M1.985 2.015l9.193 9.192-9.193 9.192" stroke="currentColor" stroke-width="3"/></svg><svg fill="none" viewBox="0 0 32 32" id="icon-gesture-click" xmlns="http://www.w3.org/2000/svg"><path d="M16 .667v4.552h-2.666V.667h2.667zM6.668 4.113l3.219 3.219-1.885 1.885L4.782 6l1.885-1.887zM24.553 6l-3.219 3.218-1.885-1.884 3.218-3.22L24.553 6zM14.667 9.08a1.008 1.008 0 00-1.008 1.008v13.375l-5.997-1.334-.133.202 4.565 5.941a1.014 1.014 0 00.8.393h9.448a1.013 1.013 0 00.957-.689l2.376-7.133a1.013 1.013 0 00-.448-1.192l-4.833-2.82a1.013 1.013 0 00-.508-.138h-4.212v-6.605a1.008 1.008 0 00-1.007-1.008zm-3.674 1.008a3.674 3.674 0 017.348 0v3.939h1.545c.65 0 1.29.173 1.853.5l4.832 2.821a3.68 3.68 0 011.635 4.336l-2.377 7.133a3.68 3.68 0 01-3.487 2.515h-9.448a3.681 3.681 0 01-2.913-1.435L4.25 22.44l1.253-1.883a2.506 2.506 0 012.63-1.056l2.86.636V10.088z" fill="#575756"/></svg><svg fill="none" viewBox="0 0 56 63" id="icon-play" xmlns="http://www.w3.org/2000/svg"><path d="M2.564 60.255L51 32.29 2.564 4.327V40.5" stroke="#fff" stroke-width="5"/></svg><svg fill="none" viewBox="0 0 48 43" id="icon-projects" xmlns="http://www.w3.org/2000/svg"><path d="M46.5 29.396v11.157h-45V1.5h10v20.584l.394.43 5.5 6 .677.738.942-.342 15.868-5.77L46.5 29.395z" stroke="#fff" stroke-width="3"/></svg><svg fill="none" viewBox="0 0 20 47" id="icon-to-top" xmlns="http://www.w3.org/2000/svg"><path fill="currentColor" stroke="currentColor" stroke-width="3" d="M5.5 42.952v-9h9v9z"/><path d="M1.515 11.515L10 3.029l8.485 8.486" stroke="currentColor" stroke-width="3"/></svg></svg>