<svg width="1178" height="1205" fill="none" xmlns="http://www.w3.org/2000/svg"><path fill="#000" d="M281.576 886.843l308.488 178.106v139.568l-308.488-178.106z"/><path fill="#000" d="M590.064 1065.2l330.9-191.045v139.468l-330.9 191.045z"/><path fill="#000" d="M612.137 696l308.854 178.317-330.56 190.849-308.854-178.317z"/><path d="M614.433 1131.35c-1.517.87-2.853 1.29-4.009 1.24-1.147-.05-2.047-.53-2.699-1.45-.644-.92-.966-2.25-.966-3.99v-13.8l3.228-1.89v13.73c0 .83.119 1.5.358 2.01.247.51.577.87.992 1.09.415.21.891.28 1.429.2.538-.08 1.094-.28 1.667-.61a7.841 7.841 0 001.681-1.32c.538-.56 1.014-1.18 1.429-1.87.414-.69.741-1.44.979-2.23s.357-1.59.357-2.4v-13.74l3.229-1.86v13.82c0 1.75-.327 3.45-.979 5.12a16.074 16.074 0 01-2.7 4.57 14.796 14.796 0 01-3.996 3.38zm10.579-6.57v-22l7.873-4.54c.185-.11.423-.24.714-.39.291-.15.56-.28.807-.37 1.103-.44 2.012-.55 2.726-.31.724.24 1.257.75 1.601 1.55.353.79.53 1.79.53 3 0 1.79-.393 3.56-1.178 5.31-.785 1.74-1.989 3.22-3.612 4.47l-1.363.92-4.909 2.84v7.68l-3.189 1.84zm10.943-6.32l-3.758-6.78 3.242-2.7 4.128 7.4-3.612 2.08zm-7.754-6.64l4.551-2.63c.177-.1.375-.23.596-.37.22-.15.423-.31.609-.48.529-.46.943-.97 1.243-1.53.309-.56.525-1.12.649-1.68.132-.57.198-1.09.198-1.55 0-.47-.066-.91-.198-1.33-.124-.42-.34-.74-.649-.95-.3-.22-.714-.25-1.243-.09-.186.04-.389.12-.609.24-.221.11-.419.21-.596.31l-4.551 2.63v7.43zm13.487 3.33v-22l7.556-4.36c1.288-.74 2.342-1.05 3.162-.92.829.11 1.442.51 1.839 1.21.406.69.609 1.53.609 2.52 0 1.21-.251 2.39-.754 3.52a8.493 8.493 0 01-2.025 2.88v-.76c1.2-.38 2.109-.24 2.726.4.626.63.94 1.59.94 2.86a11.273 11.273 0 01-2.581 7.21c-.847 1.04-1.896 1.92-3.149 2.64l-8.323 4.8zm3.229-5.33l4.697-2.71a5.806 5.806 0 001.495-1.25c.441-.51.785-1.08 1.032-1.69a5.06 5.06 0 00.384-1.92c0-.59-.11-1.06-.331-1.4-.22-.34-.542-.52-.966-.55-.423-.05-.93.11-1.521.45l-4.79 2.76v6.31zm0-9.75l4.287-2.47c.459-.27.869-.6 1.231-1.02.361-.41.648-.88.86-1.4.211-.51.317-1.06.317-1.65 0-.76-.212-1.27-.635-1.54-.423-.26-1.014-.18-1.773.26l-4.287 2.48v5.34zm11.349 6.67l6.007-25.47 4.671-2.7 6.008 18.53-3.282 1.9-5.451-16.59.714-.42-5.385 22.85-3.282 1.9zm3.348-6.7v-3.44l10.003-5.78v3.44l-10.003 5.78zm14.936-3.86v-22l3.229-1.86 8.839 10.4v-15.51l3.228-1.86v22l-3.228 1.86-8.839-10.4v15.51l-3.229 1.86zm22.705-13.11v-22l7.873-4.54c.186-.11.424-.24.715-.39.291-.15.56-.28.807-.37 1.103-.44 2.011-.55 2.726-.31.723.24 1.257.75 1.601 1.55.353.79.529 1.79.529 3 0 1.2-.176 2.4-.529 3.6a12.18 12.18 0 01-1.614 3.4 11.731 11.731 0 01-2.713 2.83c-.247.18-.52.37-.82.57-.291.18-.525.33-.702.43l-4.684 2.71v7.68l-3.189 1.84zm3.189-12.96l4.552-2.63c.177-.1.375-.23.596-.37.22-.15.423-.31.608-.48.53-.46.944-.97 1.244-1.53.309-.56.525-1.12.648-1.68a6.9 6.9 0 00.199-1.55c0-.47-.066-.91-.199-1.33-.123-.42-.339-.74-.648-.95-.3-.21-.714-.25-1.244-.09-.185.04-.388.12-.608.24-.221.11-.419.21-.596.31l-4.552 2.63v7.43zm13.184 3.51v-22l3.189-1.84v18.55l8.415-4.86v3.45l-11.604 6.7zm11.729-6.77l6.007-25.47 4.671-2.7 6.007 18.53-3.281 1.9-5.452-16.59.715-.42-5.386 22.85-3.281 1.9zm3.348-6.7v-3.44l10.003-5.77v3.43l-10.003 5.78zm14.936-3.86v-22l3.228-1.86 8.839 10.4v-15.51l3.229-1.86v22l-3.229 1.86-8.839-10.4v15.51l-3.228 1.86zm18.201-10.51v-22l3.229-1.86 8.839 10.4v-15.51l3.228-1.86v22l-3.228 1.87-8.839-10.41v15.51l-3.229 1.86zm18.466-10.66v-22l3.189-1.84v22l-3.189 1.84zm6.359-3.67v-22l3.228-1.86 8.839 10.4v-15.51l3.229-1.86v22l-3.229 1.86-8.839-10.4v15.51l-3.228 1.86zm26.061-14.59c-1.235.72-2.395 1.14-3.48 1.26-1.077.12-2.025-.08-2.845-.58-.812-.51-1.447-1.34-1.906-2.49-.458-1.17-.688-2.66-.688-4.5 0-2.4.388-4.68 1.165-6.83.776-2.16 1.839-4.079 3.189-5.765 1.349-1.696 2.871-3.032 4.565-4.01 2.346-1.355 4.203-1.796 5.57-1.322 1.377.458 2.307 1.683 2.792 3.675l-3.255 2.475c-.361-1.095-.952-1.793-1.773-2.093-.82-.311-1.866-.1-3.136.634a9.93 9.93 0 00-3.189 2.806 12.565 12.565 0 00-1.918 3.9 16.255 16.255 0 00-.636 4.58c0 1.61.212 2.89.636 3.84.423.94 1.058 1.49 1.905 1.67.856.16 1.923-.11 3.202-.83a9.66 9.66 0 002.527-2.05c.724-.84 1.315-1.81 1.774-2.91.458-1.11.767-2.34.926-3.7l-3.361 1.95v-2.89l6.748-3.899c.018.153.031.389.04.699.009.31.013.49.013.55 0 2.08-.357 4.14-1.072 6.17a19.194 19.194 0 01-3.043 5.55 16.406 16.406 0 01-4.75 4.11zm-197.911 154.27c-1.905 1.1-3.537 1.56-4.896 1.39-1.358-.19-2.404-.93-3.136-2.23-.723-1.3-1.085-3.09-1.085-5.36 0-2.27.362-4.48 1.085-6.61a19.733 19.733 0 013.136-5.83 16.623 16.623 0 014.896-4.28c2.197-1.27 4.027-1.69 5.491-1.26 1.465.42 2.492 1.53 3.083 3.34l-3.215 2.88c-.37-1.23-1.001-1.98-1.892-2.27-.891-.3-2.047-.04-3.467.78a10.375 10.375 0 00-3.202 2.84 12.567 12.567 0 00-1.919 3.9 16.466 16.466 0 00-.648 4.58c0 1.61.212 2.89.635 3.85.432.94 1.076 1.5 1.932 1.66.856.17 1.923-.11 3.202-.85 1.42-.82 2.576-1.9 3.467-3.23.891-1.32 1.522-2.81 1.892-4.45l3.215-.83a20.29 20.29 0 01-3.083 6.91 16.916 16.916 0 01-5.491 5.07zm18.744-10.82c-1.905 1.1-3.537 1.56-4.896 1.39-1.358-.19-2.404-.93-3.136-2.23-.723-1.3-1.085-3.09-1.085-5.36 0-2.27.362-4.48 1.085-6.62a19.984 19.984 0 013.136-5.83 16.734 16.734 0 014.896-4.27c1.905-1.1 3.537-1.56 4.896-1.38 1.367.17 2.412.91 3.136 2.21.732 1.3 1.098 3.08 1.098 5.35 0 2.28-.366 4.48-1.098 6.63a19.643 19.643 0 01-3.136 5.84 16.881 16.881 0 01-4.896 4.27zm0-3.47a10.166 10.166 0 003.189-2.82 12.36 12.36 0 001.919-3.91c.432-1.45.648-2.98.648-4.59 0-1.61-.216-2.88-.648-3.81-.424-.95-1.063-1.5-1.919-1.67-.847-.18-1.91.1-3.189.81a10.166 10.166 0 00-3.189 2.82c-.847 1.15-1.486 2.46-1.919 3.91a16.189 16.189 0 00-.635 4.58c0 1.61.212 2.89.635 3.84.424.93 1.059 1.49 1.906 1.66.856.17 1.923-.11 3.202-.82zm10.97-3.33v-22l3.229-1.86 8.839 10.4v-15.51l3.228-1.86v22l-3.228 1.87-8.839-10.41v15.51l-3.229 1.86zm25.254-14.12c-1.394.81-2.651 1.25-3.771 1.34-1.112.08-2.029-.19-2.752-.81-.715-.64-1.169-1.62-1.363-2.94l3.308-2.49c.282 1.14.86 1.81 1.733 2.02.882.2 1.897-.02 3.043-.69.68-.39 1.319-.88 1.919-1.47.6-.59 1.085-1.23 1.456-1.91.379-.69.569-1.37.569-2.06 0-.3-.045-.56-.133-.76a.933.933 0 00-.397-.47c-.167-.11-.388-.17-.661-.17-.265-.02-.574.01-.927.09l-4.922 1.16c-.423.1-.882.18-1.376.23-.485.04-.948-.03-1.389-.19-.433-.18-.79-.51-1.072-1-.274-.51-.41-1.24-.41-2.21 0-1.41.308-2.78.926-4.09a13.282 13.282 0 012.514-3.62 15.672 15.672 0 013.52-2.74c1.305-.74 2.47-1.16 3.493-1.24 1.023-.09 1.879.15 2.567.71.688.56 1.173 1.43 1.455 2.62l-3.427 2.67c-.141-.69-.414-1.19-.82-1.5-.397-.32-.887-.45-1.469-.4-.573.04-1.186.24-1.839.6-.635.36-1.226.81-1.773 1.36a7.506 7.506 0 00-1.31 1.73c-.326.62-.49 1.21-.49 1.78 0 .54.141.91.424 1.09.282.17.63.24 1.045.21.423-.05.851-.14 1.284-.26l3.413-.87c.468-.12.993-.23 1.575-.33a4.3 4.3 0 011.681.06c.538.13.979.45 1.323.96.353.51.529 1.31.529 2.41 0 1.15-.207 2.27-.622 3.37a13.395 13.395 0 01-1.654 3.1c-.697.97-1.495 1.86-2.395 2.66-.891.8-1.826 1.49-2.805 2.05zm17.221-9.94c-1.518.87-2.854 1.29-4.01 1.24-1.146-.05-2.046-.53-2.699-1.45-.644-.92-.966-2.25-.966-3.99v-13.8l3.229-1.89v13.73c0 .83.119 1.5.357 2.01.247.51.578.87.992 1.09.415.21.891.28 1.43.2.538-.07 1.093-.28 1.667-.61a7.812 7.812 0 001.68-1.32c.538-.56 1.015-1.18 1.429-1.87.415-.69.741-1.44.979-2.23.239-.79.358-1.59.358-2.4v-13.74l3.228-1.86v13.83c0 1.74-.326 3.44-.979 5.11a16.094 16.094 0 01-2.699 4.57 14.826 14.826 0 01-3.996 3.38zm10.843-6.72v-22l3.189-1.84v18.55l8.415-4.86v3.45l-11.604 6.7zm14.994-8.66v-18.55l-6.166 3.56v-3.45l15.521-8.96v3.45l-6.166 3.56v18.55l-3.189 1.84zm10.942-6.31v-22.01l3.188-1.84v22.01l-3.188 1.84zm6.358-3.67v-22.01l3.229-1.86 8.839 10.4v-15.5l3.228-1.87v22l-3.228 1.87-8.839-10.41v15.51l-3.229 1.87zm26.061-14.59c-1.235.71-2.395 1.13-3.48 1.26-1.076.11-2.024-.09-2.845-.59-.811-.51-1.446-1.34-1.905-2.49-.459-1.16-.688-2.66-.688-4.49 0-2.41.388-4.68 1.164-6.83.777-2.16 1.84-4.08 3.189-5.77 1.35-1.7 2.872-3.03 4.565-4.01 2.347-1.36 4.204-1.8 5.571-1.32 1.376.46 2.307 1.68 2.792 3.67l-3.255 2.48c-.362-1.1-.953-1.8-1.773-2.1-.821-.31-1.866-.1-3.136.64a9.985 9.985 0 00-3.189 2.8 12.512 12.512 0 00-1.919 3.91 16.189 16.189 0 00-.635 4.58c0 1.61.212 2.89.635 3.83.424.94 1.059 1.5 1.906 1.67.855.17 1.923-.11 3.202-.83a9.676 9.676 0 002.527-2.05c.723-.84 1.314-1.8 1.773-2.9.459-1.11.768-2.35.926-3.7l-3.361 1.94v-2.89l6.749-3.89c.017.15.031.38.039.69.009.31.014.5.014.56 0 2.08-.358 4.13-1.072 6.16a19.088 19.088 0 01-3.043 5.55 16.596 16.596 0 01-4.751 4.12z" fill="#fff"/><path fill="#000" d="M319.576 160.175l286.372 165.337V465.08L319.576 299.743zm286.373 165.211l277.642-160.297v139.469L605.949 464.853z"/><path fill="#000" d="M597.154 0l286.372 165.337-277.578 160.26L319.577 160.26z"/><path d="M337.408 252.952V230.95l3.189 1.841v22.002l-3.189-1.841zm6.359 3.671v-22.002l3.228 1.864 8.839 20.612v-15.509l3.229 1.864v22.002l-3.229-1.864-8.839-20.611v15.508l-3.228-1.864zm22.779 13.152v-18.549l-6.166-3.56v-3.453l15.521 8.961v3.453l-6.166-3.56v18.549l-3.189-1.841zm10.677 6.164v-22.002l12.306 7.105v3.453l-9.117-5.264v5.424l7.529 4.347v3.453l-7.529-4.347v6.219l9.117 5.264v3.453l-12.306-7.105zm21.745 13.013c-1.235-.713-2.395-1.632-3.48-2.758a19.56 19.56 0 01-2.845-3.873 20.705 20.705 0 01-1.905-4.691 20.09 20.09 0 01-.688-5.286c0-2.404.388-4.233 1.164-5.486.777-1.263 1.84-1.958 3.189-2.085 1.35-.138 2.872.283 4.565 1.26 2.347 1.355 4.204 3.059 5.571 5.111 1.376 2.048 2.307 4.347 2.792 6.899l-3.255-1.284a12.967 12.967 0 00-1.773-4.14 9.192 9.192 0 00-3.136-2.987c-1.279-.759-2.342-1.052-3.189-.879-.847.173-1.487.736-1.919 1.688-.423.958-.635 2.241-.635 3.851 0 1.609.212 3.132.635 4.568a12.454 12.454 0 001.906 3.866 10.765 10.765 0 003.202 2.872c.961.566 1.804.853 2.527.863.723 0 1.314-.285 1.773-.855.459-.581.768-1.457.926-2.628l-3.361-1.941v-2.887l6.749 3.896c.017.173.031.42.039.741.009.321.014.512.014.573 0 2.078-.358 3.72-1.072 4.927-.706 1.202-1.72 1.88-3.043 2.032-1.324.153-2.907-.303-4.751-1.367zm10.729 5.736v-22.002l7.873 4.546c.186.107.424.254.715.443.291.178.56.364.807.558 1.103.83 2.011 1.777 2.726 2.841a11.932 11.932 0 011.601 3.4c.353 1.192.529 2.394.529 3.606 0 1.793-.392 3.109-1.177 3.949-.786.831-1.99.93-3.613.298l-1.363-.649-4.909-2.834v7.685l-3.189-1.841zm10.943 6.318l-3.758-11.123 3.242 1.046 4.129 12.162-3.613-2.085zm-7.754-15.6l4.552 2.628c.176.102.375.206.596.313.22.107.423.184.608.229.529.153.944.123 1.244-.091.309-.209.525-.522.648-.94a4.28 4.28 0 00.199-1.322 6.81 6.81 0 00-.199-1.55 6.324 6.324 0 00-.648-1.704 5.39 5.39 0 00-1.244-1.528 4.224 4.224 0 00-.608-.458c-.221-.148-.42-.273-.596-.375l-4.552-2.628v7.426zm12.165 18.146l6.007-18.533 4.671 2.697 6.007 25.47-3.281-1.895-5.452-22.888.715.413-5.386 16.631-3.281-1.895zm3.347-2.834v-3.438l10.004 5.776v3.437l-10.004-5.775zm17.938 15.124v-18.549l-6.166-3.56v-3.453l15.521 8.961v3.453l-6.166-3.56v18.549l-3.189-1.841zm10.677 6.164v-22.002l12.306 7.105v3.453l-9.117-5.264v5.424l7.529 4.347v3.453l-7.529-4.347v6.219l9.117 5.263v3.454l-12.306-7.105zm14.687 8.479v-22.002l6.073 3.507c.159.091.472.277.94.558.476.285.935.585 1.376.901a14.993 14.993 0 013.824 4.072 19.311 19.311 0 012.382 5.241 20.32 20.32 0 01.807 5.615c0 1.864-.269 3.425-.807 4.683-.539 1.258-1.332 2.093-2.382 2.505-1.041.408-2.316.288-3.824-.359a15.69 15.69 0 01-1.363-.68 92.502 92.502 0 01-.953-.534l-6.073-3.507zm3.242-1.597l2.831 1.635c.265.153.6.336 1.006.55.414.219.781.385 1.098.497.9.326 1.632.285 2.197-.122.564-.408.979-1.06 1.243-1.956.274-.891.411-1.912.411-3.064 0-1.191-.137-2.391-.411-3.598a12.85 12.85 0 00-1.27-3.376 8.457 8.457 0 00-2.17-2.613 8.822 8.822 0 00-1.098-.772 34.744 34.744 0 00-1.006-.611l-2.831-1.635v15.065zm-137.799-36.089v-22.002l6.074 3.507c.159.091.472.277.939.557.477.286.936.586 1.377.902a14.993 14.993 0 013.824 4.072 19.316 19.316 0 012.381 5.24c.539 1.88.808 3.751.808 5.616 0 1.864-.269 3.425-.808 4.683-.538 1.258-1.332 2.093-2.381 2.505-1.041.408-2.316.288-3.824-.359a15.549 15.549 0 01-1.363-.68c-.477-.265-.794-.443-.953-.534l-6.074-3.507zm3.242-1.597l2.832 1.635c.265.153.6.336 1.006.55.414.219.78.385 1.098.497.9.326 1.632.285 2.196-.122.565-.408.98-1.06 1.244-1.956.274-.891.41-1.913.41-3.064 0-1.191-.136-2.391-.41-3.598a12.886 12.886 0 00-1.27-3.376 8.471 8.471 0 00-2.17-2.613 8.898 8.898 0 00-1.098-.772 34.744 34.744 0 00-1.006-.611l-2.832-1.635v15.065zm14.495 11.837v-22.002l12.305 7.105v3.453l-9.117-5.264v5.424l7.53 4.347v3.453l-7.53-4.347v6.219l9.117 5.264v3.453l-12.305-7.105zm21.558 12.905a16.122 16.122 0 01-3.771-3.018 16.966 16.966 0 01-2.753-3.987 14.28 14.28 0 01-1.362-4.515l3.308 1.329a10.1 10.1 0 001.733 4.026c.882 1.222 1.897 2.164 3.043 2.827.68.392 1.319.639 1.919.741.6.101 1.085.025 1.455-.23.38-.249.569-.715.569-1.398 0-.305-.044-.611-.132-.916a3.984 3.984 0 00-.397-.932 5.766 5.766 0 00-.661-.932 9.478 9.478 0 00-.927-.978l-4.922-4.523c-.423-.387-.882-.84-1.376-1.36a13.708 13.708 0 01-1.389-1.795 10.517 10.517 0 01-1.072-2.238c-.274-.82-.41-1.714-.41-2.682 0-1.416.308-2.424.926-3.025.626-.606 1.464-.846 2.514-.718 1.058.132 2.232.575 3.52 1.329a15.298 15.298 0 013.493 2.796 15.866 15.866 0 014.022 7.976l-3.427-1.291a8.046 8.046 0 00-.82-2.445 9.113 9.113 0 00-1.469-2.101 8.67 8.67 0 00-1.839-1.52c-.635-.377-1.226-.606-1.773-.688-.538-.086-.975-.012-1.31.222-.327.239-.49.644-.49 1.215a3.2 3.2 0 00.424 1.573c.282.499.63.971 1.045 1.414.423.438.851.848 1.284 1.23l3.413 3.071c.468.412.993.909 1.575 1.489a16.057 16.057 0 011.68 1.994c.539.749.98 1.579 1.324 2.491.352.917.529 1.925.529 3.025 0 1.141-.207 2.025-.622 2.651-.406.621-.957 1.016-1.654 1.184-.697.168-1.495.135-2.395-.099-.891-.229-1.826-.627-2.805-1.192zm9.811 5.206v-22.002l3.189 1.841v22.002l-3.189-1.841zm14.218 8.667c-1.235-.713-2.395-1.632-3.48-2.758a19.501 19.501 0 01-2.845-3.873 20.697 20.697 0 01-1.905-4.69 20.092 20.092 0 01-.688-5.287c0-2.404.388-4.232 1.164-5.485.776-1.263 1.839-1.958 3.189-2.086 1.35-.137 2.871.283 4.565 1.261 2.347 1.355 4.204 3.058 5.571 5.111 1.376 2.047 2.307 4.347 2.792 6.898l-3.255-1.283a12.972 12.972 0 00-1.773-4.141 9.192 9.192 0 00-3.136-2.987c-1.279-.759-2.342-1.052-3.189-.879-.847.174-1.487.736-1.919 1.689-.423.957-.635 2.241-.635 3.85 0 1.61.212 3.132.635 4.569a12.448 12.448 0 001.906 3.865 10.769 10.769 0 003.202 2.873c.961.565 1.804.853 2.527.863.723 0 1.314-.285 1.773-.856.459-.58.768-1.456.926-2.628l-3.361-1.94v-2.888l6.749 3.896c.017.173.031.42.039.741.009.321.014.512.014.573 0 2.078-.358 3.721-1.072 4.928-.706 1.202-1.72 1.879-3.044 2.032-1.323.153-2.906-.303-4.75-1.368zm10.729 5.736v-22.001l3.229 1.864 8.839 20.611v-15.508l3.228 1.864v22.002l-3.228-1.864-8.839-20.612v15.508l-3.229-1.864z" fill="#fff"/><path fill="#000" d="M1102.81 554.356l74.51 43.018-58.527 33.79-74.509-43.018zm-223.244.118l89.423 51.629v98.21l-89.423-51.628z"/><path transform="matrix(.86603 .5 0 1 898.05 587.522)" fill="#000" stroke="#fff" stroke-width="1.671" d="M.724 1.254h54.3v50.95H.724z"/><path fill="#000" d="M742.221 434.593l89.6 51.731-91.644 52.911-89.6-51.731z"/><mask id="a" fill="#fff"><path d="M731.57 440.742l89.601 51.732-70.343 40.612-89.601-51.731 70.343-40.613z"/></mask><path d="M731.57 440.742l89.601 51.732-70.343 40.612-89.601-51.731 70.343-40.613z" fill="#000"/><path d="M730.123 441.578l89.601 51.731 2.895-1.671-89.601-51.731-2.895 1.671zm22.153 90.672l-89.601-51.731-2.895 1.672 89.601 51.731 2.895-1.672z" fill="#fff" mask="url(#a)"/><mask id="b" fill="#fff"><path d="M719.121 447.93l89.601 51.732-45.443 26.236-89.601-51.731 45.443-26.237z"/></mask><path d="M719.121 447.93l89.601 51.732-45.443 26.236-89.601-51.731 45.443-26.237z" fill="#000"/><path d="M717.674 448.766l89.601 51.731 2.895-1.671-89.601-51.731-2.895 1.671zm47.052 76.297l-89.601-51.732-2.895 1.672 89.601 51.731 2.895-1.671z" fill="#fff" mask="url(#b)"/><mask id="c" fill="#fff"><path d="M708.221 454.224l89.601 51.731-23.644 13.65-89.601-51.731 23.644-13.65z"/></mask><path d="M708.221 454.224l89.601 51.731-23.644 13.65-89.601-51.731 23.644-13.65z" fill="#000"/><path d="M706.773 455.059l89.601 51.731 2.895-1.671-89.601-51.731-2.895 1.671zm68.853 63.711l-89.601-51.732-2.895 1.672 89.601 51.731 2.895-1.671z" fill="#fff" mask="url(#c)"/><mask id="d" fill="#fff"><path d="M697.256 460.553l89.601 51.732-1.716.99-89.601-51.731 1.716-.991z"/></mask><path d="M697.256 460.553l89.601 51.732-1.716.99-89.601-51.731 1.716-.991z" fill="#000"/><path d="M695.808 461.389l89.601 51.731 2.895-1.671-89.601-51.731-2.895 1.671zm90.78 51.051l-89.601-51.732-2.895 1.672 89.601 51.731 2.895-1.671z" fill="#fff" mask="url(#d)"/><path fill="#000" d="M1160.1 587.412l17.02 9.827-197.407 113.974-17.02-9.827z"/><mask id="e" fill="#fff"><path d="M803.516 631.875l157.953 91.195v121.775L803.516 753.65V631.875z"/></mask><path d="M803.516 631.875l157.953 91.195v121.775L803.516 753.65V631.875z" fill="#000"/><path d="M804.963 754.486V632.711l-2.895-1.671v121.775l2.895 1.671z" fill="#fff" mask="url(#e)"/><mask id="f" fill="#fff"><path d="M968.154 607.176l134.556-77.684v97.273l-134.556 77.683v-97.272z"/></mask><path d="M968.154 607.176l134.556-77.684v97.273l-134.556 77.683v-97.272z" fill="#000"/><path d="M969.602 703.613V606.34l-2.895 1.671v97.273l2.895-1.671z" fill="#fff" mask="url(#f)"/><mask id="g" fill="#fff"><path d="M996.568 618.972l30.922-17.853v50.304l-30.922 17.853v-50.304z"/></mask><path d="M996.568 618.972l30.922-17.853v50.304l-30.922 17.853v-50.304z" fill="#000"/><path d="M1026.04 601.955v50.304l2.9-1.672v-50.304l-2.9 1.672zm-28.024 66.485v-50.304l-2.895 1.672v50.304l2.895-1.672z" fill="#fff" mask="url(#g)"/><mask id="h" fill="#fff"><path d="M1082.65 569.274l-30.09 17.37v50.304l30.09-17.37v-50.304z"/></mask><path d="M1082.65 569.274l-30.09 17.37v50.304l30.09-17.37v-50.304z" fill="#000"/><path d="M1054.01 585.808v50.304l-2.9 1.672V587.48l2.9-1.672zm27.19 34.605v-50.304l2.9-1.671v50.304l-2.9 1.671z" fill="#fff" mask="url(#h)"/><mask id="i" fill="#fff"><path d="M740 539.11l35.101-20.265v183.296L740 722.406V539.11z"/></mask><path d="M740 539.11l35.101-20.265v183.296L740 722.406V539.11z" fill="#000"/><path d="M740 540.782l35.101-20.266v-3.342L740 537.439v3.343z" fill="#fff" mask="url(#i)"/><mask id="j" fill="#fff"><path d="M803.516 630.031L766.743 608.8v98.249l36.773 21.23v-98.248z"/></mask><path d="M803.516 630.031L766.743 608.8v98.249l36.773 21.23v-98.248z" fill="#000"/><path d="M768.191 609.636v98.248l-2.895-1.671v-98.249l2.895 1.672z" fill="#fff" mask="url(#j)"/><mask id="k" fill="#fff"><path d="M773.443 591.211l208.256 120.236-20.207 11.667-208.256-120.237 20.207-11.666z"/></mask><path d="M773.443 591.211l208.256 120.236-20.207 11.667-208.256-120.237 20.207-11.666z" fill="#000"/><path d="M962.939 722.278L754.684 602.042l-2.895 1.671 208.255 120.236 2.895-1.671z" fill="#fff" mask="url(#k)"/><mask id="l" fill="#fff"><path d="M961.469 721.465l215.621-124.488v123.181L961.469 844.645v-123.18z"/></mask><path d="M961.469 721.465l215.621-124.488v123.181L961.469 844.645v-123.18z" fill="#000"/><path d="M961.469 723.136l215.621-124.487v-3.343L961.469 719.793v3.343z" fill="#fff" mask="url(#l)"/><mask id="m" fill="#fff"><path d="M650.576 487.48l89.423 51.629v183.262l-89.423-51.628V487.48z"/></mask><path d="M650.576 487.48l89.423 51.629v183.262l-89.423-51.628V487.48z" fill="#000"/><path d="M739.999 539.109l1.448.835v-1.671l-1.448-.836v1.672zm-89.423-49.957l89.423 51.628v-3.343l-89.423-51.628v3.343zm87.976 49.121v183.263l2.895 1.671V539.944l-2.895-1.671z" fill="#fff" mask="url(#m)"/><mask id="n" fill="#fff"><path d="M678.156 527.818l30.922 17.853v45.256l-30.922-17.853v-45.256z"/></mask><path d="M678.156 527.818l30.922 17.853v45.256l-30.922-17.853v-45.256z" fill="#000"/><path d="M707.631 544.836v45.255l2.895 1.672v-45.256l-2.895-1.671zm-28.027 29.074v-45.256l-2.895-1.671v45.256l2.895 1.671z" fill="#fff" mask="url(#n)"/><path fill="#000" d="M758.385 406.349l121.181 69.964v176.402l-121.181-69.964z"/><mask id="o" fill="#fff"><path d="M785.129 444.488l67.694 39.083v49.732l-67.694-39.083v-49.732z"/></mask><path d="M851.376 482.735v49.732l2.895 1.672v-49.732l-2.895-1.672zm-64.8 12.32v-49.732l-2.895-1.671v49.732l2.895 1.671z" fill="#fff" mask="url(#o)"/><mask id="p" fill="#fff"><path d="M816.887 462.037l2.507 1.448v49.732l-2.507-1.448v-49.732z"/></mask><path d="M817.946 462.649v49.732l2.895 1.671V464.32l-2.895-1.671z" fill="#fff" mask="url(#p)"/><path d="M879.566 477.153l133.714-77.201v78.053l-133.714 77.201v-78.053z" fill="#000"/><path d="M880.29 554.788v-78.053l-1.447.836v78.053l1.447-.836z" fill="#fff"/><path d="M890.98 329.993L1013 400.44l-133.067 76.825-122.018-70.447 133.065-76.825z" fill="#000"/><path d="M879.933 477.265l-.723.418.723.418.724-.418-.724-.418zm132.337-77.243l-133.06 76.825 1.447.836 133.063-76.825-1.45-.836zm-131.613 76.825L758.639 406.4l-1.447.836 122.018 70.447 1.447-.836z" fill="#fff"/><mask id="q" fill="#fff"><path d="M1013.35 477.961l89.28 51.547-134.495 77.65-89.283-51.547 134.498-77.65z"/></mask><path d="M1013.35 477.961l89.28 51.547-134.495 77.65-89.283-51.547 134.498-77.65z" fill="#000"/><path d="M968.135 607.158l-1.447.836 1.447.836 1.448-.836-1.448-.836zm133.045-78.485l-134.492 77.65 2.895 1.671 134.497-77.65-2.9-1.671zm-131.597 77.65L880.3 554.775l-2.895 1.671 89.283 51.548 2.895-1.671z" fill="#fff" mask="url(#q)"/><path fill="#000" d="M14.81 462.545l86.92 50.183v55.378l-86.92-50.183z"/><path d="M93.316 417.287l86.921 50.184-78.506 45.326-86.921-50.184 78.506-45.326z" fill="#000"/><path d="M102.412 512.404l-86.92-50.184-1.364.786 86.921 50.184 1.363-.786z" fill="#fff"/><path d="M210.156 399.297l101.486-58.593v25.203L210.156 424.5v-25.203zm.787 147.87l16.521-9.538v61.685l-16.521 9.538v-61.685z" fill="#000"/><path transform="matrix(.86603 .5 0 1 87.761 475.57)" fill="#000" stroke="#fff" stroke-width="1.573" d="M.681 1.18h140.771v60.382H.681z"/><path fill="#000" d="M195.209 432.505l140.822 81.303v148.454L195.209 580.96zM2 525.203l285.68 164.938v134.407L2 659.61zm407.252 7.794l77.65 44.831v128.224l-77.65-44.831zM213.898 284.166l97.244 56.143-100.899 58.254-97.244-56.143 100.899-58.254z"/><path d="M210.243 398.563l-.681.394.681.393.681-.393-.681-.394zm100.218-58.647L209.562 398.17l1.362.787 100.9-58.254-1.363-.787zm-99.537 58.254l-97.243-56.144-1.363.787 97.244 56.144 1.362-.787z" fill="#fff"/><path d="M112.609 462.447l122.514 70.734-24.311 14.036-122.513-70.734 24.31-14.036z" fill="#000"/><path d="M116.625 460.128l122.514 70.733-28.328 16.356-122.514-70.734 28.328-16.355z" fill="#000"/><path d="M88.978 476.877l28.328-16.356-1.362-.786-28.328 16.355 1.362.787z" fill="#fff"/><path d="M311.055 366.086l140.426 81.076-115.458 66.66-140.427-81.076 115.459-66.66z" fill="#000"/><path d="M378.375 662.1l101.034-58.332v97.845l-101.034 58.332V662.1z" fill="#fff"/><path d="M450.383 587.009l29.027 16.759-101.166 58.408-29.027-16.759 101.166-58.408zm37.297-111.57l87.896 50.747-89.447 51.643-87.896-50.747 89.447-51.643z" fill="#000"/><path d="M486.81 577.435l-87.896-50.747-1.363.787 87.897 50.747 1.362-.787z" fill="#fff"/><path d="M486.105 577.845l89.464-51.651v128.243l-89.464 51.652V577.845z" fill="#000"/><path d="M486.105 577.845v-.786l-.681.393v.787l.681-.394zm0 .787l89.464-51.652v-1.573l-89.464 51.652v1.573zm.682 127.063V577.452l-1.363.787v128.243l1.363-.787z" fill="#fff"/><path fill="#000" d="M112.604 342.623l97.553 56.322v120.799l-97.553-56.322z"/><path d="M336.031 513.814l115.647-66.769V595.44l-115.647 66.769V513.814z" fill="#fff"/><path d="M347.002 526.818l93.705-54.101v123.138l-93.705 54.1V526.818z" fill="#fff"/><path d="M437.982 474.29v123.138l5.451-3.147V471.143l-5.451 3.147zm-88.255 174.092V525.244l-5.45 3.147v123.138l5.45-3.147z" fill="#000"/><path d="M397.426 666.818l75.303-43.476v82.152l-75.303 43.477v-82.153z" fill="#fff"/><path d="M470.004 624.915v82.153l5.451-3.147v-82.153l-5.451 3.147zm-69.853 122.482v-82.152l-5.45 3.147v82.152l5.45-3.147z" fill="#000"/><path d="M357.572 520.715l72.566-41.895v123.137l-72.566 41.896V520.715z" fill="#fff"/><path d="M427.412 480.393v123.138l5.451-3.147V477.246l-5.451 3.147zm-67.114 161.886V519.142l-5.451 3.147v123.137l5.451-3.147z" fill="#000"/><path d="M408.031 660.696l53.995-31.174v82.152l-53.995 31.174v-82.152z" fill="#fff"/><path d="M459.301 631.095v82.153l5.451-3.147v-82.153l-5.451 3.147zm-48.544 110.18v-82.153l-5.451 3.147v82.153l5.451-3.147z" fill="#000"/><path d="M368.525 514.391l50.659-29.247v123.137l-50.659 29.248V514.391z" fill="#fff"/><path d="M416.458 486.717v123.138l5.451-3.147V483.57l-5.451 3.147zm-45.207 149.238V512.818l-5.451 3.147v123.137l5.451-3.147z" fill="#000"/><path d="M419.041 654.338l33.351-19.255v82.153l-33.351 19.255v-82.153z" fill="#fff"/><path d="M449.667 636.657v82.152l5.45-3.147V633.51l-5.45 3.147zm-27.901 98.26v-82.152l-5.45 3.147v82.152l5.45-3.147z" fill="#000"/><path d="M379.479 508.067l28.751-16.599v123.137l-28.751 16.6V508.067z" fill="#fff"/><path d="M405.505 493.041v123.138l5.45-3.147V489.894l-5.45 3.147zm-23.301 136.59V506.494l-5.451 3.147v123.137l5.451-3.147z" fill="#000"/><path d="M430.205 647.894l11.373-6.566v82.152l-11.373 6.566v-82.152z" fill="#fff"/><path d="M438.853 642.901v82.153l5.45-3.147v-82.153l-5.45 3.147zm-5.923 85.572V646.32l-5.45 3.147v82.153l5.45-3.147z" fill="#000"/><path d="M388.926 502.614l9.86-5.693v123.138l-9.86 5.692V502.614z" fill="#fff"/><path d="M396.061 498.494v123.138l5.45-3.147V495.347l-5.45 3.147zm-4.41 125.684V501.04l-5.45 3.147v123.138l5.45-3.147zm-104.885 66.509l104.843-60.531v133.21l-104.843 60.531v-133.21z" fill="#000"/><path transform="matrix(.86603 .5 -.86603 .5 50.685 497.169)" fill="#000" stroke="#fff" stroke-width="1.573" d="M0 0h329.907v56.136H0z"/></svg>