<svg width="1178" height="1205" fill="none" xmlns="http://www.w3.org/2000/svg"><path fill="#000" d="M281.576 886.843l308.488 178.106v139.568l-308.488-178.106z"/><path fill="#000" d="M590.064 1065.2l330.9-191.045v139.468l-330.9 191.045z"/><path fill="#000" d="M612.136 696L920.99 874.317l-330.56 190.849-308.854-178.317z"/><path d="M606.76 1135.32v-22l12.305-7.11v3.46l-9.116 5.26v18.55l-3.189 1.84zm13.627-7.87v-22l7.873-4.54c.185-.11.423-.24.714-.39.291-.15.56-.28.807-.37 1.103-.44 2.012-.54 2.726-.31.723.24 1.257.76 1.601 1.56.353.78.53 1.78.53 2.99 0 1.2-.177 2.4-.53 3.61a12.256 12.256 0 01-1.614 3.39 11.731 11.731 0 01-2.713 2.83c-.247.19-.52.37-.82.57-.291.19-.525.33-.701.43l-4.684 2.71v7.68l-3.189 1.84zm3.189-12.96l4.551-2.63c.177-.1.375-.23.596-.37.22-.15.423-.31.608-.48.53-.46.944-.96 1.244-1.52.309-.57.525-1.13.649-1.69.132-.57.198-1.09.198-1.55 0-.47-.066-.91-.198-1.33-.124-.42-.34-.74-.649-.95-.3-.21-.714-.24-1.244-.09-.185.04-.388.13-.608.24a7.32 7.32 0 00-.596.32l-4.551 2.62v7.43zm10.277 5.19l6.008-25.47 4.671-2.7 6.007 18.54-3.282 1.89-5.451-16.59.714-.42-5.385 22.85-3.282 1.9zm3.348-6.7v-3.44l10.003-5.77v3.43l-10.003 5.78zm14.744-.08v-7.12a4.776 4.776 0 001.549-1.43c.414-.59.745-1.28.992-2.05.256-.78.454-1.63.595-2.55.142-.92.252-1.88.331-2.88.097-1.31.181-2.58.252-3.82.07-1.26.136-2.55.198-3.88.071-1.34.15-2.8.238-4.37l12.425-7.14v18.55l1.429-.83v7.12l-3.176 1.84v-3.67l-11.644 6.72v3.67l-3.189 1.84zm4.962-9.98l8.429-4.87v-15.1l-6.325 3.62a361.77 361.77 0 00-.158 3.09c-.036.94-.084 1.9-.146 2.88-.053.98-.128 2.06-.225 3.23a53.106 53.106 0 01-.291 2.92 13.18 13.18 0 01-.437 2.16c-.194.64-.476 1.33-.847 2.07zm23.221-9.5c-1.905 1.1-3.537 1.56-4.895 1.39-1.359-.18-2.404-.92-3.136-2.22-.724-1.31-1.086-3.09-1.086-5.37 0-2.27.362-4.47 1.086-6.61a19.71 19.71 0 013.136-5.83 16.751 16.751 0 014.895-4.28c1.906-1.1 3.538-1.56 4.896-1.37 1.368.16 2.413.9 3.136 2.2.732 1.3 1.098 3.09 1.098 5.36 0 2.27-.366 4.48-1.098 6.62a19.773 19.773 0 01-3.136 5.85 16.821 16.821 0 01-4.896 4.26zm0-3.47a10.166 10.166 0 003.189-2.82 12.204 12.204 0 001.919-3.9c.432-1.45.648-2.98.648-4.59 0-1.61-.216-2.88-.648-3.81-.424-.95-1.063-1.51-1.919-1.68-.847-.17-1.91.1-3.189.82a10.166 10.166 0 00-3.189 2.82 12.587 12.587 0 00-1.918 3.9 16.274 16.274 0 00-.635 4.59c0 1.61.211 2.88.635 3.83.423.94 1.058 1.49 1.905 1.67.856.16 1.923-.11 3.202-.83zm19.029-7.52c-1.906 1.1-3.538 1.57-4.896 1.39-1.359-.18-2.404-.92-3.136-2.22-.724-1.3-1.085-3.09-1.085-5.36 0-2.27.361-4.48 1.085-6.62a19.96 19.96 0 013.136-5.83 16.709 16.709 0 014.896-4.27c2.196-1.27 4.027-1.69 5.491-1.26 1.464.41 2.492 1.53 3.083 3.33l-3.215 2.88c-.371-1.22-1.002-1.98-1.893-2.27-.891-.3-2.046-.04-3.466.78a10.41 10.41 0 00-3.203 2.85 12.587 12.587 0 00-1.918 3.9c-.424 1.44-.64 2.96-.649 4.58 0 1.61.212 2.89.636 3.85.432.94 1.076 1.49 1.931 1.66.856.17 1.924-.12 3.203-.85 1.42-.82 2.575-1.9 3.466-3.23a13.106 13.106 0 001.893-4.45l3.215-.83a20.309 20.309 0 01-3.083 6.91 16.787 16.787 0 01-5.491 5.06zm15.264-9.27v-18.55l-6.167 3.56v-3.45l15.522-8.96v3.45l-6.167 3.56v18.55l-3.188 1.84zm10.676-6.16v-22l7.873-4.55c.186-.11.424-.23.715-.38.291-.16.56-.28.807-.37 1.103-.45 2.011-.55 2.726-.31.723.23 1.257.75 1.601 1.55.353.78.529 1.78.529 3 0 1.2-.176 2.4-.529 3.6a12.256 12.256 0 01-1.614 3.39c-.715 1.07-1.619 2.01-2.713 2.84-.247.18-.52.37-.82.56-.291.19-.525.34-.702.44l-4.684 2.7v7.69l-3.189 1.84zm3.189-12.97l4.552-2.62c.177-.11.375-.23.596-.38.22-.15.423-.3.608-.47.529-.46.944-.97 1.244-1.53.309-.56.525-1.13.648-1.69.133-.56.199-1.08.199-1.55s-.066-.91-.199-1.32c-.123-.43-.339-.75-.648-.96-.3-.21-.715-.24-1.244-.09-.185.05-.388.13-.608.25a7.4 7.4 0 00-.596.31l-4.552 2.63v7.42zm20.978-.53c-1.906 1.1-3.538 1.57-4.896 1.4-1.359-.19-2.404-.93-3.136-2.23-.724-1.3-1.085-3.09-1.085-5.36 0-2.27.361-4.48 1.085-6.62a19.96 19.96 0 013.136-5.83 16.709 16.709 0 014.896-4.27c1.905-1.1 3.537-1.56 4.895-1.38 1.368.17 2.413.91 3.136 2.21.733 1.3 1.099 3.08 1.099 5.35 0 2.28-.366 4.48-1.099 6.63a19.72 19.72 0 01-3.136 5.84 16.83 16.83 0 01-4.895 4.26zm0-3.46a10.152 10.152 0 003.188-2.82 12.339 12.339 0 001.919-3.91c.432-1.45.649-2.98.649-4.59 0-1.61-.217-2.88-.649-3.81-.423-.95-1.063-1.5-1.919-1.67-.846-.18-1.909.1-3.188.81-1.28.73-2.342 1.67-3.189 2.82s-1.487 2.46-1.919 3.91a16.189 16.189 0 00-.635 4.58c0 1.61.212 2.89.635 3.84.423.93 1.059 1.49 1.905 1.66.856.17 1.923-.11 3.203-.82zm26.266-12.16l-3.229 1.87v-15.51l-8.839 20.61-3.228 1.86v-22l3.228-1.86v15.51l8.839-20.62 3.229-1.86v22zm7.483-4.32v-18.55l-6.166 3.56v-3.45l15.521-8.96v3.45l-6.166 3.56v18.55l-3.189 1.84zm10.677-6.16v-22l12.306-7.11v3.45l-9.117 5.27v5.42l7.529-4.35v3.46l-7.529 4.34v6.22l9.117-5.26v3.45l-12.306 7.11zm13.363-7.72v-3.08c.424-.22.781-.46 1.072-.73.291-.28.534-.63.728-1.05.203-.43.379-.97.529-1.63.15-.67.296-1.48.437-2.44.203-1.37.37-2.77.502-4.2a157.666 157.666 0 00.583-8.083c.053-1.192.097-2.221.132-3.087l12.756-7.364v22.004l-3.189 1.84v-18.55l-6.616 3.82-.159 2.567c-.053.983-.128 2.073-.225 3.243-.088 1.17-.203 2.4-.344 3.69a80.41 80.41 0 01-.49 3.82 35.23 35.23 0 01-.635 3.23 12.19 12.19 0 01-.992 2.65c-.406.77-.94 1.44-1.601 2.01-.653.56-1.482 1.01-2.488 1.34zm19.627-11.33v-22.002l3.189-1.841v7.685l4.684-2.704c.177-.102.415-.229.715-.382.3-.163.573-.29.82-.382 1.094-.438 1.998-.537 2.713-.298.723.234 1.257.751 1.601 1.551.353.784.529 1.777.529 2.979 0 1.212-.176 2.419-.529 3.621a11.976 11.976 0 01-1.601 3.385c-.715 1.068-1.619 2.008-2.713 2.838-.247.18-.52.37-.82.56-.291.19-.529.34-.715.44l-7.873 4.55zm3.189-5.29l4.552-2.63c.185-.11.384-.23.596-.38.22-.144.427-.3.621-.463.521-.453.931-.96 1.231-1.52a6.368 6.368 0 00.648-1.688 7.018 7.018 0 00.199-1.566c0-.469-.066-.909-.199-1.322-.123-.418-.339-.731-.648-.94-.3-.214-.71-.247-1.231-.099a3.42 3.42 0 00-.621.237 8.894 8.894 0 00-.596.313l-4.552 2.628v7.43zm13.178-4.16v-22.001l3.189-1.842v9.26l9.025-5.211v-9.259l3.175-1.833v22.002l-3.175 1.833v-9.29l-9.025 5.211v9.289l-3.189 1.841zm18.279-10.553v-22.001l3.188-1.841v7.685l4.685-2.705c.176-.101.414-.229.714-.381.3-.163.574-.291.821-.382 1.093-.438 1.998-.538 2.712-.298.723.234 1.257.751 1.601 1.55.353.785.529 1.778.529 2.98 0 1.212-.176 2.419-.529 3.621a11.957 11.957 0 01-1.601 3.384c-.714 1.065-1.619 2.009-2.712 2.835a15.76 15.76 0 01-.821.565 17.93 17.93 0 01-.714.443l-7.873 4.545zm3.188-5.294l4.552-2.628c.186-.107.384-.231.596-.374.22-.148.428-.303.622-.466.52-.453.93-.96 1.23-1.52a6.412 6.412 0 00.649-1.689 7.057 7.057 0 00.198-1.566c0-.468-.066-.909-.198-1.321-.124-.418-.34-.731-.649-.94-.3-.214-.71-.247-1.23-.099a3.42 3.42 0 00-.622.236c-.212.102-.41.207-.596.314l-4.552 2.628v7.425zm12.968-4.033v-22.002l3.189-1.841v22.001l-3.189 1.842zm6.077-3.509v-22.002l3.229-1.864v15.508l8.839-20.611 3.228-1.864v22.002l-3.228 1.864v-15.509l-8.839 20.612-3.229 1.864zm7.635-28.274c-.741.428-1.416.609-2.025.542a2.03 2.03 0 01-1.442-.832c-.362-.494-.542-1.169-.542-2.025l2.487-1.436c0 .489.146.823.437 1.001.3.163.662.122 1.085-.122.423-.245.781-.619 1.072-1.123.3-.52.45-1.024.45-1.513l2.487-1.436c0 .855-.181 1.739-.542 2.651a10.05 10.05 0 01-1.456 2.505c-.608.769-1.279 1.365-2.011 1.788zM606.76 1175.32v-22l3.189-1.84v10.2l7.608-14.59 3.917-2.27-8.191 15.52 8.746 6.17-4.049 2.33-8.031-5.63v10.27l-3.189 1.84zm23.365-13.03c-1.906 1.1-3.538 1.56-4.896 1.39-1.359-.18-2.404-.92-3.136-2.22-.723-1.31-1.085-3.09-1.085-5.37 0-2.27.362-4.47 1.085-6.61a19.71 19.71 0 013.136-5.83 16.743 16.743 0 014.896-4.28c1.905-1.1 3.537-1.56 4.896-1.37 1.367.16 2.412.9 3.136 2.2.732 1.3 1.098 3.09 1.098 5.36 0 2.27-.366 4.48-1.098 6.62a19.82 19.82 0 01-3.136 5.85 16.847 16.847 0 01-4.896 4.26zm0-3.47a10.166 10.166 0 003.189-2.82 12.306 12.306 0 001.918-3.9c.433-1.45.649-2.98.649-4.59 0-1.61-.216-2.88-.649-3.81-.423-.95-1.063-1.51-1.918-1.68-.847-.17-1.91.1-3.189.82a10.166 10.166 0 00-3.189 2.82 12.567 12.567 0 00-1.919 3.9 16.31 16.31 0 00-.635 4.59c0 1.61.212 2.88.635 3.83.424.94 1.059 1.49 1.906 1.67.855.16 1.923-.11 3.202-.83zm10.97-3.32v-22l3.189-1.85v9.26l9.024-5.21v-9.26l3.176-1.83v22l-3.176 1.84v-9.29l-9.024 5.21v9.29l-3.189 1.84zm26.363-14.76c-1.906 1.1-3.538 1.56-4.896 1.39-1.359-.19-2.404-.93-3.136-2.23-.724-1.3-1.085-3.09-1.085-5.36 0-2.27.361-4.48 1.085-6.62a19.78 19.78 0 013.136-5.82 16.598 16.598 0 014.896-4.28c2.196-1.27 4.027-1.69 5.491-1.26 1.464.41 2.492 1.53 3.083 3.33l-3.215 2.88c-.371-1.22-1.002-1.97-1.893-2.26-.891-.3-2.046-.04-3.466.78a10.238 10.238 0 00-3.202 2.84 12.567 12.567 0 00-1.919 3.9c-.424 1.44-.64 2.96-.648 4.58 0 1.61.211 2.89.635 3.85.432.94 1.076 1.49 1.932 1.66.855.17 1.923-.11 3.202-.85 1.42-.82 2.575-1.9 3.466-3.23a13.106 13.106 0 001.893-4.45l3.215-.83a20.309 20.309 0 01-3.083 6.91 16.926 16.926 0 01-5.491 5.07zm8.845-5.57l6.008-25.47 4.671-2.7 6.007 18.54-3.282 1.89-5.451-16.59.714-.41-5.385 22.85-3.282 1.89zm3.348-6.7v-3.44l10.003-5.77v3.43l-10.003 5.78zm14.44-3.57v-3.09c.423-.21.781-.45 1.072-.72.291-.28.534-.63.728-1.05.202-.43.379-.98.529-1.63.15-.67.295-1.48.437-2.44.202-1.37.37-2.77.502-4.2.141-1.45.261-2.86.358-4.23.097-1.38.172-2.66.225-3.85.052-1.2.097-2.23.132-3.09l12.756-7.37v22.01l-3.189 1.84v-18.55l-6.616 3.82c-.045.71-.097 1.56-.159 2.57-.053.98-.128 2.07-.225 3.24-.088 1.17-.203 2.4-.344 3.68a79.187 79.187 0 01-.49 3.83 35.23 35.23 0 01-.635 3.23 12.19 12.19 0 01-.992 2.65c-.406.77-.94 1.44-1.601 2.01-.653.56-1.482 1-2.488 1.34zm24.232-13.99v-18.55l-6.166 3.56v-3.45l15.521-8.96v3.45l-6.166 3.56v18.55l-3.189 1.84zm25.973-15l-3.229 1.87v-15.51l-8.839 20.61-3.228 1.87v-22.01l3.228-1.86v15.51l8.839-20.61 3.229-1.87v22zm2.905-1.67v-22l3.189-1.85v9.26l9.024-5.21v-9.26l3.176-1.83v22l-3.176 1.84v-9.29l-9.024 5.21v9.29l-3.189 1.84zm18.305-10.57v-22l12.305-7.11v3.46l-9.116 5.26v18.55l-3.189 1.84z" fill="#fff"/><path fill="#000" d="M319.576 160.175l286.372 165.337V465.08L319.576 299.743z"/><path fill="#000" d="M605.948 325.386L883.59 165.089v139.469L605.948 464.853z"/><path fill="#000" d="M597.154 0l286.372 165.337-277.578 160.26L319.577 160.26z"/><path d="M337.144 252.799v-22.002l3.189 1.841v10.207l7.608-5.814 3.917 2.261-8.191 6.059 8.747 16.264-4.049-2.338-8.032-14.904v10.267l-3.189-1.841zm23.365 13.948a16.828 16.828 0 01-4.896-4.263 20.033 20.033 0 01-3.136-5.844 20.523 20.523 0 01-1.085-6.616c0-2.271.362-4.059 1.085-5.363.732-1.298 1.778-2.034 3.136-2.207 1.359-.184 2.991.275 4.896 1.375a16.732 16.732 0 014.896 4.278 19.539 19.539 0 013.136 5.829 20.361 20.361 0 011.098 6.623c0 2.272-.366 4.057-1.098 5.356-.723 1.303-1.769 2.044-3.136 2.223-1.359.173-2.991-.291-4.896-1.391zm0-3.468c1.279.749 2.342 1.036 3.189.863.856-.168 1.495-.731 1.919-1.688.432-.953.648-2.233.648-3.843 0-1.609-.216-3.13-.648-4.561a12.35 12.35 0 00-1.919-3.888 10.664 10.664 0 00-3.189-2.865c-1.279-.749-2.342-1.036-3.189-.863-.847.173-1.486.736-1.919 1.688-.423.958-.635 2.241-.635 3.85 0 1.61.212 3.133.635 4.569a12.448 12.448 0 001.906 3.865 10.767 10.767 0 003.202 2.873zm10.97 9.343v-22.001l2.871 1.657 6.59 19.389 6.589-11.78 2.872 1.658v22.002l-2.977-1.719v-14.103l-5.849 10.726-1.27-.733-5.836-17.472v14.103l-2.99-1.727zm21.845 12.613v-22.002l15.442 8.915v22.002l-3.189-1.841V273.76l-9.064-5.233v18.549l-3.189-1.841zm17.033 9.834v-3.087c.424.275.781.446 1.072.512.291.056.534-.012.728-.206.203-.199.379-.54.529-1.024.15-.494.296-1.138.437-1.932a50.06 50.06 0 00.503-3.622 117.81 117.81 0 00.582-7.41c.053-1.131.097-2.108.132-2.934l12.756 7.365v22.002l-3.189-1.841v-18.549l-6.616-3.82-.159 2.384a89.15 89.15 0 01-.225 2.987 76.884 76.884 0 01-.344 3.285 49.968 49.968 0 01-.489 3.262c-.177.957-.389 1.787-.636 2.49-.247.693-.577 1.195-.992 1.505-.406.306-.939.359-1.601.161-.653-.194-1.482-.703-2.488-1.528zm19.654 11.347v-22.002l12.306 7.105v3.453l-9.117-5.264v5.424l7.529 4.347v3.453l-7.529-4.347v6.219l9.117 5.264v3.453l-12.306-7.105zm14.687 8.479v-22.002l3.188 1.841v10.207l7.609-5.814 3.917 2.261-8.191 6.059 8.746 16.264-4.049-2.338-8.032-14.904v10.267l-3.188-1.841zm23.365 13.948a16.802 16.802 0 01-4.896-4.263 20.01 20.01 0 01-3.136-5.844 20.496 20.496 0 01-1.085-6.616c0-2.271.361-4.059 1.085-5.363.732-1.298 1.777-2.034 3.136-2.207 1.358-.184 2.99.275 4.896 1.375a16.838 16.838 0 015.491 5.08 20.153 20.153 0 013.083 6.899l-3.215-.833c-.371-1.65-1.002-3.135-1.893-4.454a10.327 10.327 0 00-3.466-3.224c-1.279-.738-2.347-1.024-3.203-.856-.846.174-1.486.736-1.918 1.689-.424.947-.64 2.223-.649 3.827 0 1.61.212 3.137.636 4.584a12.56 12.56 0 001.931 3.896 10.424 10.424 0 003.203 2.842c1.42.82 2.575 1.08 3.466.779.891-.3 1.522-1.057 1.893-2.269l3.215 2.88c-.591 1.808-1.619 2.926-3.083 3.354-1.464.418-3.295-.008-5.491-1.276zm10.685 5.711v-22.001l3.189 1.841v9.259l9.024 5.21v-9.259l3.176 1.833v22.002l-3.176-1.833v-9.29l-9.024-5.21v9.289l-3.189-1.841zm26.363 15.679a16.828 16.828 0 01-4.896-4.263 20.057 20.057 0 01-3.136-5.844 20.523 20.523 0 01-1.085-6.616c0-2.271.362-4.059 1.085-5.363.733-1.298 1.778-2.034 3.136-2.207 1.359-.184 2.991.275 4.896 1.375a16.707 16.707 0 014.896 4.278 19.539 19.539 0 013.136 5.829 20.361 20.361 0 011.098 6.623c0 2.272-.366 4.057-1.098 5.356-.723 1.303-1.769 2.044-3.136 2.223-1.358.173-2.99-.291-4.896-1.391zm0-3.468c1.279.749 2.342 1.036 3.189.863.856-.168 1.495-.731 1.919-1.688.432-.952.648-2.233.648-3.843 0-1.609-.216-3.129-.648-4.561a12.35 12.35 0 00-1.919-3.888 10.664 10.664 0 00-3.189-2.865c-1.279-.749-2.342-1.036-3.189-.863-.847.173-1.486.736-1.918 1.688-.424.958-.635 2.241-.635 3.851 0 1.609.211 3.132.635 4.568a12.43 12.43 0 001.905 3.866 10.778 10.778 0 003.202 2.872zm10.97 9.343v-22.001l12.306 7.104v3.453l-9.117-5.263v5.424l7.529 4.347v3.453l-7.529-4.347v6.219l9.117 5.263v3.453l-12.306-7.105zm-178.937-63.309v-22.002l15.442 8.916v22.001l-3.189-1.841v-18.549l-9.064-5.233v18.549l-3.189-1.841zm18.356 10.598v-22.002l7.873 4.546c.186.107.424.254.715.443.291.178.56.364.807.558 1.103.83 2.011 1.777 2.726 2.841a11.932 11.932 0 011.601 3.4c.353 1.192.529 2.394.529 3.606 0 1.202-.176 2.2-.529 2.995-.353.784-.891 1.293-1.614 1.527-.715.24-1.619.141-2.713-.297a15.858 15.858 0 01-1.522-.757l-4.684-2.704v7.685l-3.189-1.841zm3.189-9.282l4.552 2.628c.176.102.375.206.595.313.221.107.424.184.609.229.529.153.944.123 1.244-.091.309-.209.525-.522.648-.94a4.28 4.28 0 00.199-1.322 6.81 6.81 0 00-.199-1.55 6.324 6.324 0 00-.648-1.704 5.404 5.404 0 00-1.244-1.528 4.178 4.178 0 00-.609-.458c-.22-.148-.419-.273-.595-.375l-4.552-2.628v7.426zm20.978 23.693a16.802 16.802 0 01-4.896-4.263 20.01 20.01 0 01-3.136-5.844 20.5 20.5 0 01-1.085-6.616c0-2.272.361-4.059 1.085-5.363.732-1.299 1.777-2.035 3.136-2.208 1.358-.183 2.99.275 4.896 1.375a16.716 16.716 0 014.895 4.278 19.516 19.516 0 013.136 5.829 20.337 20.337 0 011.099 6.624c0 2.271-.366 4.056-1.099 5.355-.723 1.304-1.768 2.045-3.136 2.223-1.358.173-2.99-.29-4.895-1.39zm0-3.469c1.279.749 2.342 1.037 3.188.864.856-.168 1.496-.731 1.919-1.689.432-.952.648-2.233.648-3.842 0-1.61-.216-3.13-.648-4.561a12.345 12.345 0 00-1.919-3.889 10.632 10.632 0 00-3.188-2.864c-1.28-.749-2.343-1.037-3.189-.864-.847.173-1.487.736-1.919 1.689-.423.957-.635 2.241-.635 3.85s.212 3.132.635 4.568a12.452 12.452 0 001.905 3.866 10.756 10.756 0 003.203 2.872zm10.969 9.344v-22.002l12.306 7.105v3.453l-9.117-5.264v5.424l7.529 4.347v3.453l-7.529-4.347v6.219l9.117 5.264v3.453l-12.306-7.105zm14.687 8.479V310.16l3.189 1.842v10.206l7.608-5.814 3.917 2.262-8.191 6.058 8.747 16.264-4.049-2.338-8.032-14.904v10.267l-3.189-1.841zm20.919 12.078v-18.549l-6.166-3.56v-3.453l15.521 8.961v3.453l-6.166-3.56v18.549l-3.189-1.841zm25.973 14.995l-3.229-1.864v-15.508l-8.839 10.405-3.228-1.864v-22.002l3.228 1.864v15.508l8.839-10.405 3.229 1.864v22.002zm2.905 1.677v-22.001l7.873 4.545c.185.107.423.255.714.443a8.3 8.3 0 01.808.558c1.102.83 2.011 1.777 2.725 2.842a11.9 11.9 0 011.601 3.399 12.64 12.64 0 01.53 3.606c0 1.202-.177 2.2-.53 2.995-.352.784-.891 1.294-1.614 1.528-.714.239-1.619.14-2.712-.298a16.39 16.39 0 01-1.522-.756l-4.684-2.705v7.686l-3.189-1.842zm3.189-9.282l4.552 2.628c.176.102.374.207.595.314.221.107.423.183.609.229.529.153.944.122 1.243-.092.309-.209.525-.522.649-.94.132-.412.198-.853.198-1.321 0-.469-.066-.986-.198-1.551a6.387 6.387 0 00-.649-1.704 5.365 5.365 0 00-1.243-1.527 4.239 4.239 0 00-.609-.459 10.931 10.931 0 00-.595-.374l-4.552-2.628v7.425zm20.977 23.693a16.828 16.828 0 01-4.896-4.263 20.033 20.033 0 01-3.136-5.844 20.523 20.523 0 01-1.085-6.616c0-2.271.362-4.059 1.085-5.363.732-1.298 1.778-2.034 3.136-2.207 1.359-.184 2.991.275 4.896 1.375a16.732 16.732 0 014.896 4.278 19.539 19.539 0 013.136 5.829 20.361 20.361 0 011.098 6.623c0 2.272-.366 4.057-1.098 5.355-.723 1.304-1.769 2.045-3.136 2.224-1.359.173-2.991-.291-4.896-1.391zm0-3.468c1.279.748 2.342 1.036 3.189.863.856-.168 1.495-.731 1.919-1.688.432-.953.648-2.234.648-3.843s-.216-3.13-.648-4.561a12.35 12.35 0 00-1.919-3.888 10.664 10.664 0 00-3.189-2.865c-1.279-.749-2.342-1.036-3.189-.863-.847.173-1.486.736-1.919 1.688-.423.958-.635 2.241-.635 3.85 0 1.61.212 3.133.635 4.569a12.448 12.448 0 001.906 3.865 10.78 10.78 0 003.202 2.873zm10.97 9.343v-22.001l7.555 4.362c1.288.743 2.343 1.652 3.163 2.727.829 1.07 1.442 2.182 1.839 3.338.406 1.162.609 2.236.609 3.224 0 1.212-.252 2.096-.754 2.651-.494.56-1.169.741-2.025.543v-.764c1.2 1.008 2.108 2.19 2.726 3.544.626 1.36.939 2.677.939 3.95 0 1.304-.216 2.32-.648 3.048-.432.728-1.076 1.121-1.932 1.177-.847.061-1.896-.27-3.149-.993l-8.323-4.806zm3.229-1.604l4.697 2.712c.556.321 1.054.481 1.495.481.441-.01.785-.178 1.032-.504.256-.331.384-.822.384-1.474 0-.591-.11-1.184-.331-1.78a5.82 5.82 0 00-.966-1.673 5.35 5.35 0 00-1.521-1.307l-4.79-2.765v6.31zm0-9.748l4.287 2.475c.459.265.869.4 1.23.405.362.005.649-.13.86-.405.212-.275.318-.703.318-1.283 0-.764-.212-1.523-.635-2.277a4.681 4.681 0 00-1.773-1.787l-4.287-2.476v5.348zm11.349 19.769l6.007-18.534 4.671 2.697 6.008 25.47-3.282-1.894-5.452-22.888.715.412-5.385 16.631-3.282-1.894zm3.348-2.834v-3.438l10.003 5.775v3.438l-10.003-5.775zm14.936 13.39v-22.002l3.189 1.841v9.26l9.024 5.21v-9.259l3.176 1.833v22.002l-3.176-1.834v-9.289l-9.024-5.21v9.289l-3.189-1.841zm33.601 19.4l-3.229-1.864v-15.509l-8.839 10.405-3.228-1.864v-22.001l3.228 1.864v15.508l8.839-10.405 3.229 1.864v22.002zm2.905 1.677v-22.002l12.306 7.105v3.453l-9.117-5.264v5.424l7.529 4.347v3.453l-7.529-4.347v6.219l9.117 5.264v3.453l-12.306-7.105z" fill="#fff"/><path fill="#000" d="M1102.81 554.356l74.51 43.018-58.527 33.79-74.509-43.018zm-223.244.119l89.423 51.629v98.21l-89.423-51.628z"/><path transform="matrix(.86603 .5 0 1 898.049 587.522)" fill="#000" stroke="#fff" stroke-width="1.671" d="M.724 1.254h54.3v50.95H.724z"/><path fill="#000" d="M742.221 434.593l89.6 51.731-91.644 52.911-89.6-51.731z"/><mask id="a" fill="#fff"><path d="M731.57 440.743l89.601 51.731-70.343 40.612-89.601-51.731 70.343-40.612z"/></mask><path d="M731.57 440.743l89.601 51.731-70.343 40.612-89.601-51.731 70.343-40.612z" fill="#000"/><path d="M730.122 441.578l89.601 51.732 2.895-1.672-89.601-51.731-2.895 1.671zm22.153 90.673l-89.601-51.732-2.895 1.672 89.601 51.731 2.895-1.671z" fill="#fff" mask="url(#a)"/><mask id="b" fill="#fff"><path d="M719.12 447.93l89.601 51.731-45.443 26.237-89.601-51.731 45.443-26.237z"/></mask><path d="M719.12 447.93l89.601 51.731-45.443 26.237-89.601-51.731 45.443-26.237z" fill="#000"/><path d="M717.673 448.766l89.601 51.731 2.895-1.671-89.601-51.732-2.895 1.672zm47.052 76.297l-89.601-51.732-2.895 1.672 89.601 51.731 2.895-1.671z" fill="#fff" mask="url(#b)"/><mask id="c" fill="#fff"><path d="M708.22 454.224l89.601 51.731-23.644 13.65-89.601-51.731 23.644-13.65z"/></mask><path d="M708.22 454.224l89.601 51.731-23.644 13.65-89.601-51.731 23.644-13.65z" fill="#000"/><path d="M706.772 455.059l89.601 51.732 2.895-1.672-89.601-51.731-2.895 1.671zm68.853 63.711l-89.601-51.732-2.895 1.672 89.601 51.731 2.895-1.671z" fill="#fff" mask="url(#c)"/><mask id="d" fill="#fff"><path d="M697.256 460.554l89.601 51.731-1.716.991-89.601-51.732 1.716-.99z"/></mask><path d="M697.256 460.554l89.601 51.731-1.716.991-89.601-51.732 1.716-.99z" fill="#000"/><path d="M695.809 461.389l89.601 51.732 2.895-1.672-89.601-51.731-2.895 1.671zm90.78 51.051l-89.601-51.731-2.895 1.671 89.601 51.731 2.895-1.671z" fill="#fff" mask="url(#d)"/><path fill="#000" d="M1160.1 587.412l17.02 9.827-197.407 113.974-17.02-9.827z"/><mask id="e" fill="#fff"><path d="M803.515 631.875l157.953 91.195v121.775l-157.953-91.194V631.875z"/></mask><path d="M803.515 631.875l157.953 91.195v121.775l-157.953-91.194V631.875z" fill="#000"/><path d="M804.962 754.486V632.711l-2.895-1.671v121.775l2.895 1.671z" fill="#fff" mask="url(#e)"/><mask id="f" fill="#fff"><path d="M968.154 607.176l134.556-77.684v97.273l-134.556 77.684v-97.273z"/></mask><path d="M968.154 607.176l134.556-77.684v97.273l-134.556 77.684v-97.273z" fill="#000"/><path d="M969.601 703.613V606.34l-2.895 1.672v97.272l2.895-1.671z" fill="#fff" mask="url(#f)"/><mask id="g" fill="#fff"><path d="M996.568 618.972l30.922-17.853v50.304l-30.922 17.853v-50.304z"/></mask><path d="M996.568 618.972l30.922-17.853v50.304l-30.922 17.853v-50.304z" fill="#000"/><path d="M1026.04 601.955v50.304l2.9-1.672v-50.303l-2.9 1.671zm-28.024 66.485v-50.304l-2.895 1.672v50.304l2.895-1.672z" fill="#fff" mask="url(#g)"/><mask id="h" fill="#fff"><path d="M1082.65 569.273l-30.09 17.371v50.304l30.09-17.371v-50.304z"/></mask><path d="M1082.65 569.273l-30.09 17.371v50.304l30.09-17.371v-50.304z" fill="#000"/><path d="M1054.01 585.808v50.304l-2.89 1.671v-50.304l2.89-1.671zm27.19 34.605v-50.304l2.9-1.671v50.304l-2.9 1.671z" fill="#fff" mask="url(#h)"/><mask id="i" fill="#fff"><path d="M740 539.11l35.1-20.265v183.296L740 722.406V539.11z"/></mask><path d="M740 539.11l35.1-20.265v183.296L740 722.406V539.11z" fill="#000"/><path d="M740 540.782l35.1-20.266v-3.342L740 537.439v3.343z" fill="#fff" mask="url(#i)"/><mask id="j" fill="#fff"><path d="M803.515 630.03l-36.772-21.23v98.248l36.772 21.231V630.03z"/></mask><path d="M803.515 630.03l-36.772-21.23v98.248l36.772 21.231V630.03z" fill="#000"/><path d="M768.19 609.636v98.248l-2.895-1.671v-98.249l2.895 1.672z" fill="#fff" mask="url(#j)"/><mask id="k" fill="#fff"><path d="M773.443 591.21l208.255 120.237-20.207 11.666-208.255-120.236 20.207-11.667z"/></mask><path d="M773.443 591.21l208.255 120.237-20.207 11.666-208.255-120.236 20.207-11.667z" fill="#000"/><path d="M962.939 722.278L754.683 602.041l-2.895 1.672 208.256 120.236 2.895-1.671z" fill="#fff" mask="url(#k)"/><mask id="l" fill="#fff"><path d="M961.468 721.465l215.622-124.488v123.181L961.468 844.645v-123.18z"/></mask><path d="M961.468 721.465l215.622-124.488v123.181L961.468 844.645v-123.18z" fill="#000"/><path d="M961.468 723.136l215.622-124.487v-3.343L961.468 719.793v3.343z" fill="#fff" mask="url(#l)"/><mask id="m" fill="#fff"><path d="M650.576 487.48l89.423 51.628v183.263l-89.423-51.628V487.48z"/></mask><path d="M650.576 487.48l89.423 51.628v183.263l-89.423-51.628V487.48z" fill="#000"/><path d="M739.999 539.108l1.448.836v-1.671l-1.448-.836v1.671zm-89.423-49.957l89.423 51.629v-3.343l-89.423-51.628v3.342zm87.976 49.122v183.262l2.895 1.672V539.944l-2.895-1.671z" fill="#fff" mask="url(#m)"/><mask id="n" fill="#fff"><path d="M678.155 527.818l30.922 17.853v45.256l-30.922-17.853v-45.256z"/></mask><path d="M678.155 527.818l30.922 17.853v45.256l-30.922-17.853v-45.256z" fill="#000"/><path d="M707.63 544.835v45.256l2.895 1.672v-45.256l-2.895-1.672zm-28.027 29.075v-45.256l-2.895-1.671v45.255l2.895 1.672z" fill="#fff" mask="url(#n)"/><path fill="#000" d="M758.385 406.35l121.181 69.964v176.402l-121.181-69.964z"/><mask id="o" fill="#fff"><path d="M785.129 444.488l67.694 39.083v49.732l-67.694-39.083v-49.732z"/></mask><path d="M851.376 482.735v49.732l2.895 1.672v-49.732l-2.895-1.672zm-64.8 12.32v-49.731l-2.895-1.672v49.732l2.895 1.671z" fill="#fff" mask="url(#o)"/><mask id="p" fill="#fff"><path d="M816.887 462.037l2.507 1.448v49.732l-2.507-1.448v-49.732z"/></mask><path d="M817.946 462.649v49.732l2.895 1.671V464.32l-2.895-1.671z" fill="#fff" mask="url(#p)"/><path d="M879.566 477.153l133.714-77.202v78.053l-133.714 77.202v-78.053z" fill="#000"/><path d="M880.29 554.788v-78.053l-1.447.836v78.053l1.447-.836z" fill="#fff"/><path d="M890.98 329.993L1013 400.44l-133.067 76.825-122.018-70.447 133.065-76.825z" fill="#000"/><path d="M879.933 477.265l-.724.418.724.418.724-.418-.724-.418zm132.337-77.243l-133.061 76.825 1.448.836 133.063-76.825-1.45-.836zm-131.613 76.825L758.639 406.4l-1.448.836 122.018 70.447 1.448-.836z" fill="#fff"/><mask id="q" fill="#fff"><path d="M1013.35 477.96l89.28 51.548-134.495 77.65-89.283-51.548 134.498-77.65z"/></mask><path d="M1013.35 477.96l89.28 51.548-134.495 77.65-89.283-51.548 134.498-77.65z" fill="#000"/><path d="M968.135 607.158l-1.447.836 1.447.835 1.448-.835-1.448-.836zm133.045-78.486l-134.492 77.65 2.895 1.672 134.497-77.65-2.9-1.672zm-131.597 77.65L880.3 554.775l-2.895 1.671 89.283 51.548 2.895-1.672z" fill="#fff" mask="url(#q)"/><path fill="#000" d="M14.81 462.545l86.92 50.183v55.378l-86.92-50.183z"/><path d="M93.317 417.287l86.921 50.184-78.507 45.326-86.92-50.184 78.506-45.326z" fill="#000"/><path d="M102.413 512.403L15.492 462.22l-1.363.786 86.921 50.184 1.363-.787z" fill="#fff"/><path d="M210.157 399.297l101.486-58.593v25.203L210.157 424.5v-25.203zm.786 147.87l16.521-9.538v61.685l-16.521 9.538v-61.685z" fill="#000"/><path transform="matrix(.86603 .5 0 1 87.76 475.57)" fill="#000" stroke="#fff" stroke-width="1.573" d="M.681 1.18h140.771v60.382H.681z"/><path fill="#000" d="M195.209 432.505l140.822 81.303v148.454L195.209 580.96zM2 525.204l285.68 164.938v134.406L2 659.611zm407.252 7.793l77.65 44.831v128.224l-77.65-44.831zM213.898 284.166l97.244 56.143-100.899 58.254-97.244-56.143 100.899-58.254z"/><path d="M210.243 398.563l-.681.394.681.393.681-.393-.681-.394zm100.218-58.647L209.562 398.17l1.362.787 100.9-58.254-1.363-.787zm-99.537 58.254l-97.243-56.144-1.363.787 97.244 56.144 1.362-.787z" fill="#fff"/><path d="M112.608 462.447l122.514 70.734-24.311 14.035-122.513-70.733 24.31-14.036z" fill="#000"/><path d="M116.625 460.128l122.514 70.734-28.328 16.355-122.513-70.733 28.327-16.356z" fill="#000"/><path d="M88.979 476.877l28.328-16.355-1.363-.787-28.328 16.355 1.363.787z" fill="#fff"/><path d="M311.056 366.086l140.427 81.076-115.459 66.66-140.426-81.076 115.458-66.66z" fill="#000"/><path d="M378.375 662.1l101.034-58.332v97.845l-101.034 58.332V662.1z" fill="#fff"/><path d="M450.382 587.009l29.027 16.759-101.166 58.408-29.027-16.758 101.166-58.409zm37.296-111.57l87.897 50.748-89.447 51.642-87.897-50.747 89.447-51.643z" fill="#000"/><path d="M486.809 577.435l-87.897-50.747-1.362.787 87.896 50.747 1.363-.787z" fill="#fff"/><path d="M486.106 577.845l89.464-51.651v128.243l-89.464 51.652V577.845z" fill="#000"/><path d="M486.106 577.845v-.786l-.681.393v.787l.681-.394zm0 .787l89.464-51.652v-1.573l-89.464 51.652v1.573zm.682 127.063V577.452l-1.363.787v128.243l1.363-.787z" fill="#fff"/><path fill="#000" d="M112.604 342.623l97.553 56.322v120.799l-97.553-56.322z"/><path d="M336.031 513.814l115.647-66.769V595.44l-115.647 66.768V513.814z" fill="#fff"/><path d="M347.001 526.818l93.706-54.101v123.138l-93.706 54.101V526.818z" fill="#fff"/><path d="M437.982 474.29v123.138l5.45-3.147V471.144l-5.45 3.146zm-88.255 174.092V525.244l-5.451 3.147v123.138l5.451-3.147z" fill="#000"/><path d="M397.426 666.818l75.303-43.476v82.152l-75.303 43.477v-82.153z" fill="#fff"/><path d="M470.004 624.915v82.153l5.451-3.147v-82.153l-5.451 3.147zm-69.853 122.482v-82.152l-5.45 3.147v82.152l5.45-3.147z" fill="#000"/><path d="M357.572 520.715l72.565-41.895v123.137l-72.565 41.896V520.715z" fill="#fff"/><path d="M427.412 480.393v123.138l5.45-3.147V477.246l-5.45 3.147zM360.297 642.28V519.142l-5.45 3.147v123.137l5.45-3.146z" fill="#000"/><path d="M408.03 660.696l53.996-31.174v82.152l-53.996 31.174v-82.152z" fill="#fff"/><path d="M459.3 631.095v82.153l5.451-3.147v-82.153l-5.451 3.147zm-48.544 110.18v-82.153l-5.451 3.147v82.153l5.451-3.147z" fill="#000"/><path d="M368.525 514.391l50.659-29.247v123.137l-50.659 29.248V514.391z" fill="#fff"/><path d="M416.458 486.717v123.138l5.451-3.147V483.57l-5.451 3.147zm-45.207 149.238V512.818l-5.451 3.147v123.137l5.451-3.147z" fill="#000"/><path d="M419.042 654.338l33.35-19.255v82.153l-33.35 19.255v-82.153z" fill="#fff"/><path d="M449.667 636.657v82.152l5.451-3.147V633.51l-5.451 3.147zm-27.9 98.26v-82.152l-5.451 3.147v82.152l5.451-3.147z" fill="#000"/><path d="M379.479 508.067l28.751-16.6v123.138l-28.751 16.6V508.067z" fill="#fff"/><path d="M405.505 493.041v123.137l5.451-3.146V489.894l-5.451 3.147zm-23.301 136.59V506.493l-5.45 3.147v123.138l5.45-3.147z" fill="#000"/><path d="M430.204 647.894l11.373-6.566v82.152l-11.373 6.567v-82.153z" fill="#fff"/><path d="M438.852 642.901v82.153l5.45-3.147v-82.152l-5.45 3.146zm-5.923 85.572v-82.152l-5.45 3.146v82.153l5.45-3.147z" fill="#000"/><path d="M388.924 502.614l9.861-5.693v123.138l-9.861 5.692V502.614z" fill="#fff"/><path d="M396.059 498.494v123.138l5.451-3.147V495.348l-5.451 3.146zm-4.409 125.684V501.04l-5.451 3.147v123.138l5.451-3.147zm-104.884 66.509l104.843-60.532v133.21l-104.843 60.532v-133.21z" fill="#000"/><path transform="matrix(.86603 .5 -.86603 .5 50.686 497.169)" fill="#000" stroke="#fff" stroke-width="1.573" d="M0 0h329.907v56.136H0z"/></svg>